SplineFontDB: 3.2
FontName: sportIcons
FullName: sportIcons
FamilyName: .
Weight: Book
Copyright: Typeface (c) (your company). 2021. All Rights Reserved
Version: 1.000;November 8, 2023;FontCreator 14.0.0.2901 32-bit
ItalicAngle: 0
UnderlinePosition: -5392
UnderlineWidth: 150
Ascent: 1638
Descent: 410
InvalidEm: 0
sfntRevision: 0x00010000
LayerCount: 2
Layer: 0 1 "Back" 1
Layer: 1 1 "Fore" 0
XUID: [1021 928 1260476039 14875]
StyleMap: 0x0040
FSType: 0
OS2Version: 4
OS2_WeightWidthSlopeOnly: 1
OS2_UseTypoMetrics: 0
CreationTime: 1632751415
ModificationTime: 1716499589
PfmFamily: 17
TTFWeight: 400
TTFWidth: 5
LineGap: 0
VLineGap: 0
Panose: 2 0 5 0 0 0 0 0 0 0
OS2TypoAscent: 1638
OS2TypoAOffset: 0
OS2TypoDescent: -410
OS2TypoDOffset: 0
OS2TypoLinegap: 0
OS2WinAscent: 1024
OS2WinAOffset: 0
OS2WinDescent: 40
OS2WinDOffset: 0
HheadAscent: 1024
HheadAOffset: 0
HheadDescent: -40
HheadDOffset: 0
OS2SubXSize: 1434
OS2SubYSize: 1331
OS2SubXOff: 0
OS2SubYOff: 283
OS2SupXSize: 1434
OS2SupYSize: 1331
OS2SupXOff: 0
OS2SupYOff: 977
OS2StrikeYSize: 102
OS2StrikeYPos: 530
OS2CapHeight: 1434
OS2XHeight: 1024
OS2Vendor: 'HL  '
OS2CodePages: 00000001.00000000
OS2UnicodeRanges: 00000000.10000000.00000000.00000000
MarkAttachClasses: 1
DEI: 91125
TtTable: prep
PUSHW_1
 511
SCANCTRL
PUSHB_1
 1
SCANTYPE
SVTCA[y-axis]
MPPEM
PUSHB_1
 8
LT
IF
PUSHB_2
 1
 1
INSTCTRL
EIF
PUSHB_2
 70
 6
CALL
IF
POP
PUSHB_1
 16
EIF
MPPEM
PUSHB_1
 20
GT
IF
POP
PUSHB_1
 128
EIF
SCVTCI
PUSHB_1
 6
CALL
NOT
IF
EIF
PUSHB_1
 20
CALL
EndTTInstrs
TtTable: fpgm
PUSHB_1
 0
FDEF
PUSHB_1
 0
SZP0
MPPEM
PUSHB_1
 76
LT
IF
PUSHB_1
 74
SROUND
EIF
PUSHB_1
 0
SWAP
MIAP[rnd]
RTG
PUSHB_1
 6
CALL
IF
RTDG
EIF
MPPEM
PUSHB_1
 76
LT
IF
RDTG
EIF
DUP
MDRP[rp0,rnd,grey]
PUSHB_1
 1
SZP0
MDAP[no-rnd]
RTG
ENDF
PUSHB_1
 1
FDEF
DUP
MDRP[rp0,min,white]
PUSHB_1
 12
CALL
ENDF
PUSHB_1
 2
FDEF
MPPEM
GT
IF
RCVT
SWAP
EIF
POP
ENDF
PUSHB_1
 3
FDEF
ROUND[Black]
RTG
DUP
PUSHB_1
 64
LT
IF
POP
PUSHB_1
 64
EIF
ENDF
PUSHB_1
 4
FDEF
PUSHB_1
 6
CALL
IF
POP
SWAP
POP

StartChar: .notdef
Encoding: 65536 -1 0
Width: 1435
GlyphClass: 1
Flags: W
LayerCount: 2
Fore
SplineSet
180 0 m 1,0,-1
 180 1434 l 1,1,-1
 1255 1434 l 1,2,-1
 1255 0 l 1,3,-1
 180 0 l 1,0,-1
360 180 m 1,4,-1
 1075 180 l 1,5,-1
 1075 1254 l 1,6,-1
 360 1254 l 1,7,-1
 360 180 l 1,4,-1
EndSplineSet
EndChar

StartChar: uniE001
Encoding: 57345 57345 3
Width: 1024
VWidth: 1024
GlyphClass: 2
Flags: HW
LayerCount: 2
Fore
SplineSet
878.620117188 88.9765625 m 2,0,1
 844.151367188 88.9765625 844.151367188 88.9765625 811.772460938 105.688476562 c 2,2,-1
 740.74609375 144.334960938 l 2,3,4
 719.85546875 155.825195312 719.85546875 155.825195312 695.310546875 155.825195312 c 128,-1,5
 670.764648438 155.825195312 670.764648438 155.825195312 649.874023438 144.334960938 c 2,6,-1
 578.84765625 105.688476562 l 2,7,8
 547.512695312 88.9765625 547.512695312 88.9765625 512 88.9765625 c 128,-1,9
 476.487304688 88.9765625 476.487304688 88.9765625 445.151367188 105.688476562 c 2,10,-1
 374.125976562 144.334960938 l 2,11,12
 353.235351562 155.825195312 353.235351562 155.825195312 328.689453125 155.825195312 c 128,-1,13
 304.143554688 155.825195312 304.143554688 155.825195312 283.25390625 144.334960938 c 2,14,-1
 212.227539062 105.688476562 l 2,15,16
 180.892578125 88.9765625 180.892578125 88.9765625 145.379882812 88.9765625 c 128,-1,17
 109.866210938 88.9765625 109.866210938 88.9765625 78.53125 105.688476562 c 0,18,19
 70.17578125 109.866210938 70.17578125 109.866210938 67.564453125 118.745117188 c 128,-1,20
 64.953125 127.623046875 64.953125 127.623046875 69.130859375 135.979492188 c 256,21,22
 73.30859375 144.334960938 73.30859375 144.334960938 82.1875 146.946289062 c 128,-1,23
 91.0654296875 149.557617188 91.0654296875 149.557617188 99.421875 144.334960938 c 0,24,25
 121.356445312 132.845703125 121.356445312 132.845703125 145.379882812 132.845703125 c 128,-1,26
 169.403320312 132.845703125 169.403320312 132.845703125 191.337890625 144.334960938 c 2,27,-1
 262.364257812 182.981445312 l 2,28,29
 293.69921875 199.693359375 293.69921875 199.693359375 329.211914062 199.693359375 c 128,-1,30
 364.725585938 199.693359375 364.725585938 199.693359375 396.060546875 182.981445312 c 2,31,-1
 466.041992188 144.334960938 l 2,32,33
 487.9765625 132.845703125 487.9765625 132.845703125 512 132.845703125 c 128,-1,34
 536.0234375 132.845703125 536.0234375 132.845703125 557.958007812 144.334960938 c 2,35,-1
 628.984375 182.981445312 l 2,36,37
 660.319335938 199.693359375 660.319335938 199.693359375 695.83203125 199.693359375 c 128,-1,38
 731.345703125 199.693359375 731.345703125 199.693359375 762.680664062 182.981445312 c 2,39,-1
 833.70703125 144.334960938 l 2,40,41
 854.596679688 132.845703125 854.596679688 132.845703125 879.142578125 132.845703125 c 128,-1,42
 903.688476562 132.845703125 903.688476562 132.845703125 924.578125 144.334960938 c 0,43,44
 932.934570312 149.557617188 932.934570312 149.557617188 941.8125 146.946289062 c 128,-1,45
 950.690429688 144.334960938 950.690429688 144.334960938 954.869140625 135.979492188 c 128,-1,46
 959.046875 127.623046875 959.046875 127.623046875 956.435546875 118.745117188 c 128,-1,47
 953.82421875 109.866210938 953.82421875 109.866210938 946.512695312 105.688476562 c 0,48,49
 914.1328125 88.9765625 914.1328125 88.9765625 879.665039062 88.9765625 c 2,50,-1
 878.620117188 88.9765625 l 2,0,1
945.46875 194.471679688 m 1,51,-1
 945.46875 194.471679688 l 1,52,53
 913.088867188 177.758789062 913.088867188 177.758789062 878.09765625 177.758789062 c 128,-1,54
 843.107421875 177.758789062 843.107421875 177.758789062 811.772460938 194.471679688 c 2,55,-1
 740.74609375 233.118164062 l 2,56,57
 718.811523438 244.607421875 718.811523438 244.607421875 694.788085938 244.607421875 c 128,-1,58
 670.764648438 244.607421875 670.764648438 244.607421875 648.830078125 233.118164062 c 2,59,-1
 578.84765625 194.471679688 l 2,60,61
 546.46875 177.758789062 546.46875 177.758789062 511.477539062 177.758789062 c 128,-1,62
 476.487304688 177.758789062 476.487304688 177.758789062 445.151367188 194.471679688 c 2,63,-1
 374.125976562 233.118164062 l 2,64,65
 352.19140625 244.607421875 352.19140625 244.607421875 328.16796875 244.607421875 c 128,-1,66
 304.143554688 244.607421875 304.143554688 244.607421875 282.209960938 233.118164062 c 2,67,-1
 211.18359375 194.471679688 l 2,68,69
 179.848632812 177.758789062 179.848632812 177.758789062 144.334960938 177.758789062 c 128,-1,70
 108.822265625 177.758789062 108.822265625 177.758789062 77.4873046875 194.471679688 c 0,71,72
 70.17578125 198.649414062 70.17578125 198.649414062 67.564453125 208.049804688 c 128,-1,73
 64.953125 217.450195312 64.953125 217.450195312 69.130859375 225.284179688 c 128,-1,74
 73.30859375 233.118164062 73.30859375 233.118164062 82.1875 235.729492188 c 128,-1,75
 91.0654296875 238.340820312 91.0654296875 238.340820312 99.421875 234.162109375 c 0,76,77
 120.311523438 222.672851562 120.311523438 222.672851562 144.857421875 222.672851562 c 128,-1,78
 169.403320312 222.672851562 169.403320312 222.672851562 190.29296875 234.162109375 c 2,79,-1
 261.319335938 271.764648438 l 2,80,81
 292.654296875 289.520507812 292.654296875 289.520507812 328.16796875 289.520507812 c 128,-1,82
 363.680664062 289.520507812 363.680664062 289.520507812 395.015625 271.764648438 c 2,83,-1
 466.041992188 234.162109375 l 2,84,85
 487.9765625 222.672851562 487.9765625 222.672851562 512 222.672851562 c 128,-1,86
 536.0234375 222.672851562 536.0234375 222.672851562 557.958007812 234.162109375 c 2,87,-1
 627.939453125 271.764648438 l 2,88,89
 659.274414062 289.520507812 659.274414062 289.520507812 694.788085938 289.520507812 c 128,-1,90
 730.30078125 289.520507812 730.30078125 289.520507812 761.635742188 271.764648438 c 2,91,-1
 832.662109375 234.162109375 l 2,92,93
 854.596679688 222.672851562 854.596679688 222.672851562 878.620117188 222.672851562 c 128,-1,94
 902.643554688 222.672851562 902.643554688 222.672851562 924.578125 234.162109375 c 0,95,96
 932.934570312 238.340820312 932.934570312 238.340820312 941.290039062 235.729492188 c 128,-1,97
 949.646484375 233.118164062 949.646484375 233.118164062 954.869140625 224.76171875 c 0,98,99
 959.046875 216.40625 959.046875 216.40625 956.435546875 207.52734375 c 128,-1,100
 953.82421875 198.649414062 953.82421875 198.649414062 945.46875 194.471679688 c 1,51,-1
256.096679688 847.28515625 m 0,101,102
 260.275390625 851.462890625 260.275390625 851.462890625 264.975585938 848.8515625 c 128,-1,103
 269.67578125 846.240234375 269.67578125 846.240234375 269.67578125 841.018554688 c 2,104,-1
 269.67578125 741.790039062 l 1,105,106
 225.806640625 695.83203125 225.806640625 695.83203125 201.783203125 636.818359375 c 128,-1,107
 177.758789062 577.803710938 177.758789062 577.803710938 177.758789062 512 c 0,108,109
 177.758789062 401.283203125 177.758789062 401.283203125 242.518554688 313.544921875 c 1,110,-1
 190.29296875 285.342773438 l 2,111,112
 174.625976562 276.987304688 174.625976562 276.987304688 161.046875 274.8984375 c 1,113,114
 87.931640625 381.4375 87.931640625 381.4375 87.931640625 512 c 0,115,116
 87.931640625 613.31640625 87.931640625 613.31640625 132.845703125 701.0546875 c 128,-1,117
 177.758789062 788.79296875 177.758789062 788.79296875 256.096679688 847.28515625 c 0,101,102
402.327148438 897.420898438 m 0,118,119
 406.504882812 828.484375 406.504882812 828.484375 412.772460938 779.392578125 c 1,120,-1
 314.588867188 779.392578125 l 1,121,-1
 314.588867188 869.219726562 l 2,122,123
 314.588867188 885.931640625 314.588867188 885.931640625 329.211914062 893.243164062 c 0,124,125
 353.235351562 904.732421875 353.235351562 904.732421875 378.303710938 913.088867188 c 0,126,127
 387.704101562 916.22265625 387.704101562 916.22265625 395.015625 911 c 128,-1,128
 402.327148438 905.77734375 402.327148438 905.77734375 402.327148438 897.420898438 c 0,118,119
566.314453125 779.392578125 m 1,129,-1
 457.685546875 779.392578125 l 1,130,131
 448.28515625 838.928710938 448.28515625 838.928710938 446.196289062 913.088867188 c 0,132,133
 446.196289062 920.400390625 446.196289062 920.400390625 450.374023438 925.623046875 c 128,-1,134
 454.552734375 930.845703125 454.552734375 930.845703125 461.864257812 931.889648438 c 0,135,136
 484.842773438 935.0234375 484.842773438 935.0234375 511.477539062 935.0234375 c 128,-1,137
 538.112304688 935.0234375 538.112304688 935.0234375 561.091796875 931.889648438 c 0,138,139
 568.403320312 930.845703125 568.403320312 930.845703125 572.581054688 925.623046875 c 128,-1,140
 576.758789062 920.400390625 576.758789062 920.400390625 576.758789062 913.088867188 c 0,141,142
 573.625976562 844.151367188 573.625976562 844.151367188 566.314453125 779.392578125 c 1,129,-1
709.411132812 869.219726562 m 1,143,-1
 708.366210938 868.174804688 l 1,144,-1
 708.366210938 778.34765625 l 1,145,-1
 610.18359375 778.34765625 l 1,146,147
 617.495117188 836.83984375 617.495117188 836.83984375 620.627929688 897.420898438 c 0,148,149
 620.627929688 905.77734375 620.627929688 905.77734375 627.939453125 911 c 128,-1,150
 635.250976562 916.22265625 635.250976562 916.22265625 643.607421875 913.088867188 c 0,151,152
 665.541992188 906.821289062 665.541992188 906.821289062 693.743164062 893.243164062 c 0,153,154
 709.411132812 885.931640625 709.411132812 885.931640625 709.411132812 869.219726562 c 1,143,-1
696.876953125 734.478515625 m 1,155,156
 758.502929688 683.297851562 758.502929688 683.297851562 784.615234375 609.138671875 c 1,157,158
 651.962890625 623.76171875 651.962890625 623.76171875 512 623.76171875 c 0,159,160
 365.76953125 623.76171875 365.76953125 623.76171875 238.340820312 609.138671875 c 1,161,162
 264.453125 683.297851562 264.453125 683.297851562 327.123046875 734.478515625 c 1,163,-1
 696.876953125 734.478515625 l 1,155,156
512 401.283203125 m 0,164,165
 658.23046875 401.283203125 658.23046875 401.283203125 784.615234375 415.905273438 c 1,166,167
 768.947265625 370.9921875 768.947265625 370.9921875 739.701171875 333.389648438 c 1,168,169
 681.208984375 352.19140625 681.208984375 352.19140625 627.939453125 323.989257812 c 2,170,-1
 557.958007812 285.342773438 l 2,171,172
 536.0234375 273.853515625 536.0234375 273.853515625 512 273.853515625 c 128,-1,173
 487.9765625 273.853515625 487.9765625 273.853515625 466.041992188 285.342773438 c 2,174,-1
 395.015625 323.989257812 l 2,175,176
 341.74609375 352.19140625 341.74609375 352.19140625 284.298828125 333.389648438 c 1,177,178
 254.0078125 370.9921875 254.0078125 370.9921875 238.340820312 415.905273438 c 1,179,180
 370.9921875 401.283203125 370.9921875 401.283203125 512 401.283203125 c 0,164,165
226.850585938 563.180664062 m 1,181,182
 358.458007812 578.84765625 358.458007812 578.84765625 512 578.84765625 c 0,183,184
 667.630859375 578.84765625 667.630859375 578.84765625 796.104492188 562.135742188 c 1,185,186
 801.327148438 536.0234375 801.327148438 536.0234375 801.327148438 512 c 128,-1,187
 801.327148438 487.9765625 801.327148438 487.9765625 796.104492188 461.864257812 c 1,188,189
 667.630859375 445.151367188 667.630859375 445.151367188 511.477539062 445.151367188 c 128,-1,190
 355.32421875 445.151367188 355.32421875 445.151367188 226.850585938 461.864257812 c 1,191,192
 221.627929688 487.9765625 221.627929688 487.9765625 221.627929688 512 c 0,193,194
 221.627929688 537.068359375 221.627929688 537.068359375 226.850585938 563.180664062 c 1,181,182
767.903320312 847.28515625 m 0,195,196
 845.196289062 788.79296875 845.196289062 788.79296875 890.109375 701.0546875 c 128,-1,197
 935.0234375 613.31640625 935.0234375 613.31640625 935.0234375 512 c 0,198,199
 935.0234375 382.481445312 935.0234375 382.481445312 861.908203125 275.942382812 c 1,200,201
 848.330078125 278.03125 848.330078125 278.03125 832.662109375 285.342773438 c 2,202,-1
 780.436523438 313.544921875 l 1,203,204
 846.240234375 401.283203125 846.240234375 401.283203125 846.240234375 512 c 0,205,206
 846.240234375 577.803710938 846.240234375 577.803710938 821.6953125 637.33984375 c 128,-1,207
 797.149414062 696.876953125 797.149414062 696.876953125 753.280273438 741.790039062 c 1,208,-1
 753.280273438 841.018554688 l 2,209,210
 753.280273438 846.240234375 753.280273438 846.240234375 758.502929688 848.8515625 c 128,-1,211
 763.724609375 851.462890625 763.724609375 851.462890625 767.903320312 847.28515625 c 0,195,196
EndSplineSet
EndChar

StartChar: uniE002
Encoding: 57346 57346 4
Width: 1024
VWidth: 1024
GlyphClass: 2
Flags: HW
LayerCount: 2
Fore
SplineSet
324.388671875 511.588867188 m 1,0,1
 324.388671875 430.400390625 324.388671875 430.400390625 294.765625 356.891601562 c 128,-1,2
 265.142578125 283.3828125 265.142578125 283.3828125 212.479492188 225.234375 c 0,3,4
 203.703125 215.360351562 203.703125 215.360351562 191.0859375 215.909179688 c 128,-1,5
 178.46875 216.45703125 178.46875 216.45703125 170.788085938 226.33203125 c 0,6,7
 102.765625 307.520507812 102.765625 307.520507812 78.6279296875 409.5546875 c 128,-1,8
 54.4912109375 511.588867188 54.4912109375 511.588867188 78.6279296875 613.623046875 c 128,-1,9
 102.765625 715.657226562 102.765625 715.657226562 170.788085938 796.845703125 c 0,10,11
 178.46875 805.623046875 178.46875 805.623046875 191.0859375 806.171875 c 128,-1,12
 203.703125 806.719726562 203.703125 806.719726562 212.479492188 797.943359375 c 0,13,14
 265.142578125 740.891601562 265.142578125 740.891601562 294.765625 666.833984375 c 128,-1,15
 324.388671875 592.77734375 324.388671875 592.77734375 324.388671875 511.588867188 c 1,16,-1
 324.388671875 511.588867188 l 1,0,1
777.508789062 829.759765625 m 0,17,18
 718.262695312 765.028320312 718.262695312 765.028320312 685.348632812 683.291992188 c 128,-1,19
 652.434570312 601.5546875 652.434570312 601.5546875 652.434570312 511.040039062 c 128,-1,20
 652.434570312 420.525390625 652.434570312 420.525390625 685.348632812 338.7890625 c 128,-1,21
 718.262695312 257.051757812 718.262695312 257.051757812 777.508789062 193.416992188 c 0,22,23
 786.28515625 184.639648438 786.28515625 184.639648438 785.188476562 172.0234375 c 128,-1,24
 784.090820312 159.40625 784.090820312 159.40625 773.120117188 151.725585938 c 0,25,26
 696.3203125 95.771484375 696.3203125 95.771484375 604.16015625 76.5712890625 c 128,-1,27
 512 57.37109375 512 57.37109375 419.291015625 76.5712890625 c 128,-1,28
 326.583007812 95.771484375 326.583007812 95.771484375 249.782226562 151.725585938 c 0,29,30
 239.908203125 159.40625 239.908203125 159.40625 238.811523438 172.0234375 c 128,-1,31
 237.713867188 184.639648438 237.713867188 184.639648438 246.491210938 193.416992188 c 0,32,33
 305.737304688 257.051757812 305.737304688 257.051757812 338.651367188 339.336914062 c 128,-1,34
 371.565429688 421.623046875 371.565429688 421.623046875 371.565429688 511.588867188 c 128,-1,35
 371.565429688 601.5546875 371.565429688 601.5546875 338.651367188 683.291992188 c 128,-1,36
 305.737304688 765.028320312 305.737304688 765.028320312 246.491210938 829.759765625 c 0,37,38
 237.713867188 838.537109375 237.713867188 838.537109375 238.811523438 851.154296875 c 128,-1,39
 239.908203125 863.771484375 239.908203125 863.771484375 249.782226562 871.451171875 c 0,40,41
 326.583007812 927.40625 326.583007812 927.40625 419.291015625 947.154296875 c 128,-1,42
 512 966.903320312 512 966.903320312 604.16015625 947.154296875 c 128,-1,43
 696.3203125 927.40625 696.3203125 927.40625 773.120117188 871.451171875 c 0,44,45
 784.090820312 863.771484375 784.090820312 863.771484375 784.639648438 851.154296875 c 128,-1,46
 785.188476562 838.537109375 785.188476562 838.537109375 777.508789062 829.759765625 c 0,17,18
853.2109375 796.845703125 m 0,47,48
 921.234375 715.657226562 921.234375 715.657226562 945.37109375 613.623046875 c 128,-1,49
 969.508789062 511.588867188 969.508789062 511.588867188 945.37109375 409.5546875 c 128,-1,50
 921.234375 307.520507812 921.234375 307.520507812 853.2109375 226.33203125 c 0,51,52
 845.53125 216.45703125 845.53125 216.45703125 832.9140625 215.909179688 c 128,-1,53
 820.296875 215.360351562 820.296875 215.360351562 811.51953125 225.234375 c 0,54,55
 757.759765625 283.3828125 757.759765625 283.3828125 728.13671875 356.891601562 c 128,-1,56
 698.513671875 430.400390625 698.513671875 430.400390625 698.513671875 511.588867188 c 128,-1,57
 698.513671875 592.77734375 698.513671875 592.77734375 728.13671875 666.833984375 c 128,-1,58
 757.759765625 740.891601562 757.759765625 740.891601562 811.51953125 797.943359375 c 0,59,60
 819.200195312 806.719726562 819.200195312 806.719726562 832.365234375 806.171875 c 128,-1,61
 845.53125 805.623046875 845.53125 805.623046875 853.2109375 796.845703125 c 0,47,48
EndSplineSet
EndChar

StartChar: uniE003
Encoding: 57347 57347 5
Width: 1024
VWidth: 1024
GlyphClass: 2
Flags: HW
LayerCount: 2
Fore
SplineSet
297.735351562 482.331054688 m 1,0,1
 287.845703125 349.37109375 287.845703125 349.37109375 203.234375 244.981445312 c 0,2,3
 193.344726562 231.794921875 193.344726562 231.794921875 176.862304688 232.344726562 c 128,-1,4
 160.379882812 232.893554688 160.379882812 232.893554688 150.490234375 246.080078125 c 0,5,6
 85.6591796875 333.987304688 85.6591796875 333.987304688 68.0771484375 443.87109375 c 0,7,8
 64.7802734375 462.551757812 64.7802734375 462.551757812 75.76953125 475.188476562 c 128,-1,9
 86.7578125 487.825195312 86.7578125 487.825195312 105.4375 487.825195312 c 2,10,-1
 292.241210938 487.825195312 l 2,11,12
 294.438476562 487.825195312 294.438476562 487.825195312 296.086914062 486.176757812 c 128,-1,13
 297.735351562 484.528320312 297.735351562 484.528320312 297.735351562 482.331054688 c 1,14,-1
 297.735351562 482.331054688 l 1,0,1
203.234375 779.018554688 m 0,15,16
 291.142578125 670.232421875 291.142578125 670.232421875 297.735351562 535.075195312 c 1,17,-1
 99.943359375 535.075195312 l 2,18,19
 83.4609375 535.075195312 83.4609375 535.075195312 74.12109375 546.61328125 c 128,-1,20
 64.7802734375 558.151367188 64.7802734375 558.151367188 66.978515625 573.53515625 c 0,21,22
 82.3623046875 685.616210938 82.3623046875 685.616210938 150.490234375 777.918945312 c 0,23,24
 160.379882812 791.10546875 160.379882812 791.10546875 176.862304688 791.10546875 c 128,-1,25
 193.344726562 791.10546875 193.344726562 791.10546875 203.234375 779.018554688 c 0,15,16
231.8046875 818.576171875 m 0,26,27
 223.013671875 829.564453125 223.013671875 829.564453125 224.112304688 843.849609375 c 128,-1,28
 225.211914062 858.134765625 225.211914062 858.134765625 237.298828125 866.92578125 c 0,29,30
 330.700195312 939.44921875 330.700195312 939.44921875 449.375 957.030273438 c 0,31,32
 464.758789062 959.228515625 464.758789062 959.228515625 476.846679688 949.338867188 c 128,-1,33
 488.93359375 939.44921875 488.93359375 939.44921875 488.93359375 924.065429688 c 2,34,-1
 488.93359375 535.075195312 l 1,35,-1
 344.985351562 535.075195312 l 1,36,37
 341.688476562 615.291015625 341.688476562 615.291015625 312.020507812 687.814453125 c 128,-1,38
 282.3515625 760.337890625 282.3515625 760.337890625 231.8046875 818.576171875 c 0,26,27
231.8046875 205.422851562 m 0,39,40
 282.3515625 263.661132812 282.3515625 263.661132812 312.020507812 335.635742188 c 128,-1,41
 341.688476562 407.609375 341.688476562 407.609375 344.985351562 487.825195312 c 1,42,-1
 488.93359375 487.825195312 l 1,43,-1
 488.93359375 99.93359375 l 2,44,45
 488.93359375 84.5498046875 488.93359375 84.5498046875 476.846679688 74.66015625 c 128,-1,46
 464.758789062 64.7705078125 464.758789062 64.7705078125 449.375 66.96875 c 0,47,48
 331.798828125 83.451171875 331.798828125 83.451171875 237.298828125 157.073242188 c 0,49,50
 225.211914062 165.864257812 225.211914062 165.864257812 224.112304688 180.149414062 c 128,-1,51
 223.013671875 194.434570312 223.013671875 194.434570312 231.8046875 205.422851562 c 0,39,40
535.084960938 487.825195312 m 1,52,-1
 535.084960938 488.923828125 l 1,53,-1
 679.033203125 488.923828125 l 1,54,55
 682.330078125 408.708007812 682.330078125 408.708007812 711.998046875 336.184570312 c 128,-1,56
 741.666992188 263.661132812 741.666992188 263.661132812 791.115234375 205.422851562 c 0,57,58
 801.004882812 194.434570312 801.004882812 194.434570312 799.90625 180.149414062 c 128,-1,59
 798.806640625 165.864257812 798.806640625 165.864257812 786.719726562 157.073242188 c 0,60,61
 693.318359375 84.5498046875 693.318359375 84.5498046875 574.643554688 66.96875 c 0,62,63
 559.259765625 64.7705078125 559.259765625 64.7705078125 547.171875 74.66015625 c 128,-1,64
 535.084960938 84.5498046875 535.084960938 84.5498046875 535.084960938 99.93359375 c 2,65,-1
 535.084960938 487.825195312 l 1,52,-1
791.115234375 818.576171875 m 0,66,67
 740.568359375 760.337890625 740.568359375 760.337890625 711.44921875 688.36328125 c 128,-1,68
 682.330078125 616.389648438 682.330078125 616.389648438 677.934570312 536.173828125 c 1,69,-1
 535.084960938 536.173828125 l 1,70,-1
 535.084960938 924.065429688 l 2,71,72
 535.084960938 939.44921875 535.084960938 939.44921875 547.171875 949.338867188 c 128,-1,73
 559.259765625 959.228515625 559.259765625 959.228515625 573.544921875 957.030273438 c 0,74,75
 692.219726562 940.547851562 692.219726562 940.547851562 786.719726562 866.92578125 c 0,76,77
 797.708007812 858.134765625 797.708007812 858.134765625 799.356445312 843.849609375 c 128,-1,78
 801.004882812 829.564453125 801.004882812 829.564453125 791.115234375 818.576171875 c 0,66,67
819.684570312 244.981445312 m 0,79,80
 732.876953125 351.568359375 732.876953125 351.568359375 726.283203125 487.825195312 c 1,81,-1
 924.075195312 487.825195312 l 2,82,83
 939.458984375 487.825195312 939.458984375 487.825195312 949.348632812 476.287109375 c 128,-1,84
 959.23828125 464.749023438 959.23828125 464.749023438 957.040039062 449.365234375 c 0,85,86
 940.557617188 337.284179688 940.557617188 337.284179688 873.528320312 246.080078125 c 0,87,88
 863.638671875 232.893554688 863.638671875 232.893554688 847.15625 232.344726562 c 128,-1,89
 830.673828125 231.794921875 830.673828125 231.794921875 819.684570312 244.981445312 c 0,79,80
924.075195312 536.173828125 m 1,90,-1
 924.075195312 536.173828125 l 1,91,-1
 725.184570312 536.173828125 l 1,92,93
 732.876953125 672.430664062 732.876953125 672.430664062 819.684570312 779.018554688 c 0,94,95
 830.673828125 792.204101562 830.673828125 792.204101562 847.15625 791.654296875 c 128,-1,96
 863.638671875 791.10546875 863.638671875 791.10546875 873.528320312 777.918945312 c 0,97,98
 940.557617188 686.715820312 940.557617188 686.715820312 957.040039062 574.633789062 c 0,99,100
 959.23828125 559.25 959.23828125 559.25 949.348632812 547.711914062 c 128,-1,101
 939.458984375 536.173828125 939.458984375 536.173828125 924.075195312 536.173828125 c 1,90,-1
EndSplineSet
EndChar

StartChar: uniE004
Encoding: 57348 57348 6
Width: 1024
VWidth: 1024
GlyphClass: 2
Flags: HW
LayerCount: 2
Fore
SplineSet
291.202148438 301.088867188 m 1,0,1
 257.149414062 243.966796875 257.149414062 243.966796875 208.815429688 198.928710938 c 0,2,3
 200.02734375 191.239257812 200.02734375 191.239257812 188.493164062 191.7890625 c 128,-1,4
 176.958984375 192.337890625 176.958984375 192.337890625 169.26953125 201.125976562 c 0,5,6
 125.330078125 249.459960938 125.330078125 249.459960938 99.5146484375 309.876953125 c 128,-1,7
 73.7001953125 370.293945312 73.7001953125 370.293945312 69.306640625 437.302734375 c 0,8,9
 63.8134765625 512 63.8134765625 512 69.306640625 586.698242188 c 0,10,11
 73.7001953125 653.706054688 73.7001953125 653.706054688 99.5146484375 714.123046875 c 128,-1,12
 125.330078125 774.541015625 125.330078125 774.541015625 169.26953125 822.874023438 c 0,13,14
 176.958984375 831.662109375 176.958984375 831.662109375 188.493164062 832.211914062 c 128,-1,15
 200.02734375 832.760742188 200.02734375 832.760742188 208.815429688 825.071289062 c 0,16,17
 257.149414062 780.033203125 257.149414062 780.033203125 291.202148438 722.911132812 c 1,18,19
 281.31640625 722.911132812 281.31640625 722.911132812 274.17578125 716.3203125 c 128,-1,20
 267.03515625 709.729492188 267.03515625 709.729492188 267.03515625 699.842773438 c 128,-1,21
 267.03515625 689.956054688 267.03515625 689.956054688 274.17578125 682.81640625 c 128,-1,22
 281.31640625 675.67578125 281.31640625 675.67578125 291.202148438 675.67578125 c 2,23,-1
 315.369140625 675.67578125 l 1,24,25
 342.83203125 610.864257812 342.83203125 610.864257812 347.225585938 535.068359375 c 1,26,-1
 325.255859375 535.068359375 l 2,27,28
 315.369140625 535.068359375 315.369140625 535.068359375 308.229492188 528.477539062 c 128,-1,29
 301.088867188 521.88671875 301.088867188 521.88671875 301.088867188 512 c 128,-1,30
 301.088867188 502.11328125 301.088867188 502.11328125 308.229492188 495.522460938 c 128,-1,31
 315.369140625 488.931640625 315.369140625 488.931640625 325.255859375 488.931640625 c 2,32,-1
 347.225585938 488.931640625 l 1,33,34
 342.83203125 413.135742188 342.83203125 413.135742188 315.369140625 348.32421875 c 1,35,-1
 291.202148438 348.32421875 l 2,36,37
 281.31640625 348.32421875 281.31640625 348.32421875 274.17578125 341.18359375 c 128,-1,38
 267.03515625 334.043945312 267.03515625 334.043945312 267.03515625 324.157226562 c 128,-1,39
 267.03515625 314.270507812 267.03515625 314.270507812 274.17578125 307.6796875 c 128,-1,40
 281.31640625 301.088867188 281.31640625 301.088867188 291.202148438 301.088867188 c 1,0,1
680.0703125 301.088867188 m 1,41,42
 716.3203125 228.587890625 716.3203125 228.587890625 774.541015625 173.663085938 c 0,43,44
 784.426757812 163.77734375 784.426757812 163.77734375 783.328125 150.594726562 c 128,-1,45
 782.23046875 137.413085938 782.23046875 137.413085938 770.146484375 129.723632812 c 0,46,47
 686.661132812 75.8974609375 686.661132812 75.8974609375 587.795898438 69.306640625 c 0,48,49
 544.955078125 67.109375 544.955078125 67.109375 512 67.109375 c 0,50,51
 477.946289062 67.109375 477.946289062 67.109375 437.302734375 69.306640625 c 0,52,53
 338.4375 75.8974609375 338.4375 75.8974609375 253.853515625 129.723632812 c 0,54,55
 241.770507812 137.413085938 241.770507812 137.413085938 240.671875 150.594726562 c 128,-1,56
 239.573242188 163.77734375 239.573242188 163.77734375 249.459960938 173.663085938 c 0,57,58
 307.6796875 228.587890625 307.6796875 228.587890625 343.930664062 301.088867188 c 1,59,-1
 383.4765625 301.088867188 l 2,60,61
 393.362304688 301.088867188 393.362304688 301.088867188 400.502929688 308.778320312 c 128,-1,62
 407.642578125 316.467773438 407.642578125 316.467773438 407.642578125 325.8046875 c 128,-1,63
 407.642578125 335.142578125 407.642578125 335.142578125 400.502929688 341.733398438 c 128,-1,64
 393.362304688 348.32421875 393.362304688 348.32421875 384.57421875 348.32421875 c 2,65,-1
 364.801757812 348.32421875 l 1,66,67
 390.067382812 414.234375 390.067382812 414.234375 393.362304688 488.931640625 c 1,68,-1
 417.529296875 488.931640625 l 2,69,70
 427.416015625 488.931640625 427.416015625 488.931640625 434.556640625 496.072265625 c 128,-1,71
 441.696289062 503.211914062 441.696289062 503.211914062 441.696289062 512.549804688 c 128,-1,72
 441.696289062 521.88671875 441.696289062 521.88671875 434.556640625 528.477539062 c 128,-1,73
 427.416015625 535.068359375 427.416015625 535.068359375 418.627929688 535.068359375 c 2,74,-1
 393.362304688 535.068359375 l 1,75,76
 390.067382812 609.766601562 390.067382812 609.766601562 364.801757812 675.67578125 c 1,77,-1
 383.4765625 675.67578125 l 2,78,79
 393.362304688 675.67578125 393.362304688 675.67578125 400.502929688 683.365234375 c 128,-1,80
 407.642578125 691.0546875 407.642578125 691.0546875 407.642578125 700.392578125 c 128,-1,81
 407.642578125 709.729492188 407.642578125 709.729492188 400.502929688 716.3203125 c 128,-1,82
 393.362304688 722.911132812 393.362304688 722.911132812 384.57421875 722.911132812 c 2,83,-1
 343.930664062 722.911132812 l 1,84,85
 307.6796875 795.412109375 307.6796875 795.412109375 249.459960938 850.336914062 c 0,86,87
 239.573242188 860.223632812 239.573242188 860.223632812 240.671875 873.405273438 c 128,-1,88
 241.770507812 886.586914062 241.770507812 886.586914062 253.853515625 894.276367188 c 0,89,90
 337.338867188 948.102539062 337.338867188 948.102539062 437.302734375 954.694335938 c 0,91,92
 477.946289062 956.890625 477.946289062 956.890625 512 956.890625 c 0,93,94
 544.955078125 956.890625 544.955078125 956.890625 587.795898438 954.694335938 c 0,95,96
 685.5625 948.102539062 685.5625 948.102539062 770.146484375 894.276367188 c 0,97,98
 782.23046875 886.586914062 782.23046875 886.586914062 783.328125 873.405273438 c 128,-1,99
 784.426757812 860.223632812 784.426757812 860.223632812 774.541015625 850.336914062 c 0,100,101
 716.3203125 795.412109375 716.3203125 795.412109375 680.0703125 722.911132812 c 1,102,-1
 640.524414062 722.911132812 l 2,103,104
 630.637695312 722.911132812 630.637695312 722.911132812 623.497070312 715.221679688 c 128,-1,105
 616.357421875 707.532226562 616.357421875 707.532226562 616.357421875 698.1953125 c 128,-1,106
 616.357421875 688.857421875 616.357421875 688.857421875 623.497070312 682.266601562 c 128,-1,107
 630.637695312 675.67578125 630.637695312 675.67578125 639.42578125 675.67578125 c 2,108,-1
 659.198242188 675.67578125 l 1,109,110
 633.93359375 609.766601562 633.93359375 609.766601562 630.637695312 535.068359375 c 1,111,-1
 605.372070312 535.068359375 l 2,112,113
 596.583984375 535.068359375 596.583984375 535.068359375 589.444335938 528.477539062 c 128,-1,114
 582.303710938 521.88671875 582.303710938 521.88671875 582.303710938 512 c 128,-1,115
 582.303710938 502.11328125 582.303710938 502.11328125 589.444335938 495.522460938 c 128,-1,116
 596.583984375 488.931640625 596.583984375 488.931640625 605.372070312 488.931640625 c 2,117,-1
 630.637695312 488.931640625 l 1,118,119
 633.93359375 414.234375 633.93359375 414.234375 659.198242188 348.32421875 c 1,120,-1
 640.524414062 348.32421875 l 2,121,122
 630.637695312 348.32421875 630.637695312 348.32421875 623.497070312 340.634765625 c 128,-1,123
 616.357421875 332.9453125 616.357421875 332.9453125 616.357421875 323.608398438 c 128,-1,124
 616.357421875 314.270507812 616.357421875 314.270507812 623.497070312 307.6796875 c 128,-1,125
 630.637695312 301.088867188 630.637695312 301.088867188 639.42578125 301.088867188 c 2,126,-1
 680.0703125 301.088867188 l 1,41,42
954.694335938 586.698242188 m 0,127,128
 960.186523438 512 960.186523438 512 954.694335938 437.302734375 c 0,129,130
 950.299804688 370.293945312 950.299804688 370.293945312 924.485351562 309.876953125 c 128,-1,131
 898.670898438 249.459960938 898.670898438 249.459960938 854.73046875 201.125976562 c 0,132,133
 847.041015625 192.337890625 847.041015625 192.337890625 835.506835938 191.7890625 c 128,-1,134
 823.97265625 191.239257812 823.97265625 191.239257812 815.184570312 198.928710938 c 0,135,136
 766.8515625 243.966796875 766.8515625 243.966796875 732.797851562 301.088867188 c 1,137,138
 742.684570312 301.088867188 742.684570312 301.088867188 749.82421875 307.6796875 c 128,-1,139
 756.96484375 314.270507812 756.96484375 314.270507812 756.96484375 324.157226562 c 128,-1,140
 756.96484375 334.043945312 756.96484375 334.043945312 749.82421875 341.18359375 c 128,-1,141
 742.684570312 348.32421875 742.684570312 348.32421875 732.797851562 348.32421875 c 2,142,-1
 708.630859375 348.32421875 l 1,143,144
 681.16796875 414.234375 681.16796875 414.234375 676.774414062 488.931640625 c 1,145,-1
 697.645507812 488.931640625 l 2,146,147
 707.532226562 488.931640625 707.532226562 488.931640625 715.221679688 496.072265625 c 128,-1,148
 722.911132812 503.211914062 722.911132812 503.211914062 722.362304688 512.549804688 c 128,-1,149
 721.8125 521.88671875 721.8125 521.88671875 715.221679688 528.477539062 c 128,-1,150
 708.630859375 535.068359375 708.630859375 535.068359375 698.744140625 535.068359375 c 2,151,-1
 676.774414062 535.068359375 l 1,152,153
 681.16796875 609.766601562 681.16796875 609.766601562 708.630859375 675.67578125 c 1,154,-1
 732.797851562 675.67578125 l 2,155,156
 742.684570312 675.67578125 742.684570312 675.67578125 749.82421875 682.81640625 c 128,-1,157
 756.96484375 689.956054688 756.96484375 689.956054688 756.96484375 699.842773438 c 128,-1,158
 756.96484375 709.729492188 756.96484375 709.729492188 749.82421875 716.3203125 c 128,-1,159
 742.684570312 722.911132812 742.684570312 722.911132812 732.797851562 722.911132812 c 1,160,161
 766.8515625 780.033203125 766.8515625 780.033203125 815.184570312 825.071289062 c 0,162,163
 823.97265625 832.760742188 823.97265625 832.760742188 835.506835938 832.211914062 c 128,-1,164
 847.041015625 831.662109375 847.041015625 831.662109375 854.73046875 822.874023438 c 0,165,166
 898.670898438 774.541015625 898.670898438 774.541015625 924.485351562 714.123046875 c 128,-1,167
 950.299804688 653.706054688 950.299804688 653.706054688 954.694335938 586.698242188 c 0,127,128
EndSplineSet
EndChar

StartChar: uniE005
Encoding: 57349 57349 7
Width: 1024
VWidth: 1024
GlyphClass: 2
Flags: HW
LayerCount: 2
Fore
SplineSet
412.55859375 611.440429688 m 128,-1,1
 451.565429688 650.447265625 451.565429688 650.447265625 494.967773438 676.26953125 c 128,-1,2
 538.370117188 702.090820312 538.370117188 702.090820312 575.729492188 711.430664062 c 128,-1,3
 613.088867188 720.770507812 613.088867188 720.770507812 644.404296875 716.375 c 128,-1,4
 675.719726562 711.979492188 675.719726562 711.979492188 693.30078125 694.399414062 c 128,-1,5
 710.880859375 676.818359375 710.880859375 676.818359375 715.276367188 645.502929688 c 128,-1,6
 719.671875 614.1875 719.671875 614.1875 710.33203125 576.828125 c 128,-1,7
 700.9921875 539.46875 700.9921875 539.46875 675.169921875 495.517578125 c 128,-1,8
 649.348632812 451.565429688 649.348632812 451.565429688 610.890625 413.108398438 c 128,-1,9
 572.432617188 374.650390625 572.432617188 374.650390625 528.481445312 348.828125 c 128,-1,10
 484.529296875 323.006835938 484.529296875 323.006835938 447.170898438 313.666992188 c 128,-1,11
 409.811523438 304.327148438 409.811523438 304.327148438 378.49609375 308.72265625 c 128,-1,12
 347.180664062 313.118164062 347.180664062 313.118164062 329.599609375 330.698242188 c 128,-1,13
 312.018554688 348.279296875 312.018554688 348.279296875 307.624023438 379.594726562 c 128,-1,14
 303.228515625 410.91015625 303.228515625 410.91015625 312.568359375 448.26953125 c 128,-1,15
 321.908203125 485.627929688 321.908203125 485.627929688 347.729492188 529.030273438 c 128,-1,0
 373.551757812 572.432617188 373.551757812 572.432617188 412.55859375 611.440429688 c 128,-1,1
644.953125 577.926757812 m 2,16,-1
 577.926757812 644.953125 l 2,17,18
 571.333984375 651.545898438 571.333984375 651.545898438 561.994140625 651.545898438 c 128,-1,19
 552.654296875 651.545898438 552.654296875 651.545898438 545.512695312 644.404296875 c 128,-1,20
 538.370117188 637.26171875 538.370117188 637.26171875 538.370117188 627.373046875 c 128,-1,21
 538.370117188 617.483398438 538.370117188 617.483398438 544.962890625 610.890625 c 2,22,-1
 561.4453125 594.409179688 l 1,23,-1
 511.999023438 544.962890625 l 1,24,-1
 495.517578125 561.4453125 l 2,25,26
 488.924804688 568.038085938 488.924804688 568.038085938 479.03515625 568.038085938 c 128,-1,27
 469.146484375 568.038085938 469.146484375 568.038085938 462.00390625 560.895507812 c 128,-1,28
 454.862304688 553.75390625 454.862304688 553.75390625 455.411132812 544.4140625 c 128,-1,29
 455.9609375 535.07421875 455.9609375 535.07421875 462.553710938 528.481445312 c 2,30,-1
 479.03515625 511.999023438 l 1,31,-1
 428.491210938 461.455078125 l 1,32,-1
 412.008789062 477.936523438 l 2,33,34
 405.416015625 485.627929688 405.416015625 485.627929688 396.076171875 485.627929688 c 128,-1,35
 386.737304688 485.627929688 386.737304688 485.627929688 379.594726562 478.486328125 c 128,-1,36
 372.452148438 471.34375 372.452148438 471.34375 372.452148438 461.455078125 c 128,-1,37
 372.452148438 451.565429688 372.452148438 451.565429688 379.044921875 444.97265625 c 2,38,-1
 444.97265625 379.044921875 l 2,39,40
 452.6640625 372.452148438 452.6640625 372.452148438 462.00390625 372.452148438 c 128,-1,41
 471.34375 372.452148438 471.34375 372.452148438 478.486328125 379.044921875 c 128,-1,42
 485.627929688 385.637695312 485.627929688 385.637695312 485.627929688 395.52734375 c 128,-1,43
 485.627929688 405.416015625 485.627929688 405.416015625 479.03515625 412.008789062 c 2,44,-1
 462.553710938 428.491210938 l 1,45,-1
 511.999023438 477.936523438 l 1,46,-1
 528.481445312 461.455078125 l 2,47,48
 535.07421875 454.862304688 535.07421875 454.862304688 544.962890625 454.862304688 c 128,-1,49
 554.852539062 454.862304688 554.852539062 454.862304688 561.994140625 462.00390625 c 128,-1,50
 569.13671875 469.146484375 569.13671875 469.146484375 569.13671875 478.486328125 c 128,-1,51
 569.13671875 487.826171875 569.13671875 487.826171875 561.4453125 495.517578125 c 2,52,-1
 544.962890625 511.999023438 l 1,53,-1
 594.409179688 561.4453125 l 1,54,-1
 610.890625 544.962890625 l 2,55,56
 618.58203125 538.370117188 618.58203125 538.370117188 627.921875 538.370117188 c 128,-1,57
 637.26171875 538.370117188 637.26171875 538.370117188 644.404296875 544.962890625 c 128,-1,58
 651.545898438 551.555664062 651.545898438 551.555664062 651.545898438 561.4453125 c 128,-1,59
 651.545898438 571.333984375 651.545898438 571.333984375 644.953125 577.926757812 c 2,16,-1
838.340820312 872.403320312 m 2,60,-1
 708.68359375 741.647460938 l 1,61,62
 680.115234375 761.42578125 680.115234375 761.42578125 640.008789062 764.172851562 c 128,-1,63
 599.903320312 766.919921875 599.903320312 766.919921875 556.500976562 754.283203125 c 128,-1,64
 513.098632812 741.647460938 513.098632812 741.647460938 466.399414062 713.079101562 c 128,-1,65
 419.701171875 684.509765625 419.701171875 684.509765625 379.594726562 644.404296875 c 128,-1,66
 339.489257812 604.297851562 339.489257812 604.297851562 310.919921875 558.1484375 c 128,-1,67
 282.3515625 511.999023438 282.3515625 511.999023438 269.715820312 468.047851562 c 128,-1,68
 257.079101562 424.095703125 257.079101562 424.095703125 259.826171875 383.990234375 c 128,-1,69
 262.573242188 343.883789062 262.573242188 343.883789062 282.3515625 315.315429688 c 1,70,-1
 151.594726562 184.55859375 l 2,71,72
 143.903320312 176.8671875 143.903320312 176.8671875 132.916015625 177.416992188 c 128,-1,73
 121.927734375 177.965820312 121.927734375 177.965820312 115.334960938 186.756835938 c 0,74,75
 79.07421875 241.696289062 79.07421875 241.696289062 69.7353515625 314.765625 c 128,-1,76
 60.3955078125 387.8359375 60.3955078125 387.8359375 78.525390625 464.750976562 c 128,-1,77
 96.6552734375 541.666992188 96.6552734375 541.666992188 141.706054688 621.329101562 c 128,-1,78
 186.756835938 700.9921875 186.756835938 700.9921875 254.881835938 768.567382812 c 128,-1,79
 323.006835938 836.143554688 323.006835938 836.143554688 402.668945312 881.743164062 c 128,-1,80
 482.33203125 927.34375 482.33203125 927.34375 558.698242188 945.473632812 c 128,-1,81
 635.064453125 963.603515625 635.064453125 963.603515625 708.133789062 954.263671875 c 128,-1,82
 781.204101562 944.923828125 781.204101562 944.923828125 836.143554688 907.565429688 c 0,83,84
 844.93359375 902.071289062 844.93359375 902.071289062 845.483398438 891.083007812 c 128,-1,85
 846.032226562 880.095703125 846.032226562 880.095703125 838.340820312 872.403320312 c 2,60,-1
872.403320312 839.439453125 m 2,86,87
 880.095703125 847.131835938 880.095703125 847.131835938 891.083007812 846.58203125 c 128,-1,88
 902.071289062 846.032226562 902.071289062 846.032226562 907.565429688 837.2421875 c 0,89,90
 944.923828125 782.302734375 944.923828125 782.302734375 954.263671875 709.232421875 c 128,-1,91
 963.603515625 636.163085938 963.603515625 636.163085938 945.473632812 559.247070312 c 128,-1,92
 927.34375 482.33203125 927.34375 482.33203125 881.743164062 402.668945312 c 128,-1,93
 836.143554688 323.006835938 836.143554688 323.006835938 768.567382812 255.430664062 c 128,-1,94
 700.9921875 187.85546875 700.9921875 187.85546875 621.329101562 142.254882812 c 128,-1,95
 541.666992188 96.6552734375 541.666992188 96.6552734375 464.750976562 78.525390625 c 128,-1,96
 387.8359375 60.3955078125 387.8359375 60.3955078125 315.315429688 69.7353515625 c 128,-1,97
 242.794921875 79.07421875 242.794921875 79.07421875 186.756835938 116.43359375 c 0,98,99
 177.965820312 121.927734375 177.965820312 121.927734375 177.416992188 132.916015625 c 128,-1,100
 176.8671875 143.903320312 176.8671875 143.903320312 184.55859375 151.594726562 c 2,101,-1
 315.315429688 282.3515625 l 1,102,103
 344.982421875 263.671875 344.982421875 263.671875 385.088867188 260.924804688 c 128,-1,104
 425.194335938 258.177734375 425.194335938 258.177734375 468.596679688 270.814453125 c 128,-1,105
 511.999023438 283.450195312 511.999023438 283.450195312 558.1484375 311.469726562 c 128,-1,106
 604.297851562 339.489257812 604.297851562 339.489257812 644.404296875 380.14453125 c 128,-1,107
 684.509765625 420.799804688 684.509765625 420.799804688 713.079101562 466.94921875 c 128,-1,108
 741.647460938 513.098632812 741.647460938 513.098632812 754.283203125 556.500976562 c 128,-1,109
 766.919921875 599.903320312 766.919921875 599.903320312 764.172851562 640.008789062 c 128,-1,110
 761.42578125 680.115234375 761.42578125 680.115234375 741.647460938 709.782226562 c 1,111,-1
 872.403320312 839.439453125 l 2,86,87
EndSplineSet
EndChar

StartChar: uniE006
Encoding: 57350 57350 8
Width: 1024
VWidth: 1024
GlyphClass: 2
Flags: HW
LayerCount: 2
Fore
SplineSet
286.293945312 80.12109375 m 2,0,-1
 101.649414062 266.8515625 l 2,1,2
 89.1318359375 279.369140625 89.1318359375 279.369140625 89.1318359375 297.625 c 128,-1,3
 89.1318359375 315.880859375 89.1318359375 315.880859375 101.649414062 329.443359375 c 2,4,-1
 208.0546875 436.890625 l 2,5,6
 221.616210938 450.451171875 221.616210938 450.451171875 239.872070312 450.451171875 c 128,-1,7
 258.127929688 450.451171875 258.127929688 450.451171875 271.688476562 436.890625 c 2,8,-1
 456.333007812 250.16015625 l 2,9,10
 468.850585938 237.642578125 468.850585938 237.642578125 468.850585938 219.38671875 c 128,-1,11
 468.850585938 201.130859375 468.850585938 201.130859375 456.333007812 187.5703125 c 2,12,-1
 348.884765625 80.12109375 l 2,13,14
 336.366210938 66.560546875 336.366210938 66.560546875 317.588867188 66.560546875 c 128,-1,15
 298.811523438 66.560546875 298.811523438 66.560546875 286.293945312 80.12109375 c 2,0,-1
865.260742188 735.2421875 m 1,16,-1
 866.3046875 736.28515625 l 1,17,18
 892.383789062 688.298828125 892.383789062 688.298828125 908.032226562 646.5703125 c 128,-1,19
 923.6796875 604.84375 923.6796875 604.84375 930.459960938 574.591796875 c 128,-1,20
 937.241210938 544.337890625 937.241210938 544.337890625 933.58984375 515.12890625 c 128,-1,21
 929.938476562 485.919921875 929.938476562 485.919921875 924.72265625 468.185546875 c 128,-1,22
 919.506835938 450.451171875 919.506835938 450.451171875 904.90234375 429.587890625 c 128,-1,23
 890.297851562 408.724609375 890.297851562 408.724609375 880.909179688 398.29296875 c 128,-1,24
 871.520507812 387.861328125 871.520507812 387.861328125 853.786132812 370.126953125 c 0,25,26
 845.440429688 361.78125 845.440429688 361.78125 841.267578125 358.65234375 c 0,27,28
 815.188476562 331.529296875 815.188476562 331.529296875 780.241210938 310.666015625 c 128,-1,29
 745.294921875 289.80078125 745.294921875 289.80078125 714.520507812 278.84765625 c 128,-1,30
 683.747070312 267.89453125 683.747070312 267.89453125 649.322265625 261.11328125 c 128,-1,31
 614.896484375 254.333984375 614.896484375 254.333984375 591.946289062 252.24609375 c 128,-1,32
 568.997070312 250.16015625 568.997070312 250.16015625 547.08984375 249.1171875 c 0,33,34
 519.966796875 249.1171875 519.966796875 249.1171875 500.146484375 268.9375 c 2,35,-1
 288.379882812 482.791015625 l 2,36,37
 271.688476562 499.482421875 271.688476562 499.482421875 269.602539062 524.517578125 c 2,38,-1
 263.34375 589.1953125 l 2,39,40
 258.127929688 655.958984375 258.127929688 655.958984375 281.077148438 719.59375 c 128,-1,41
 304.02734375 783.228515625 304.02734375 783.228515625 352.014648438 831.21484375 c 0,42,43
 383.309570312 863.552734375 383.309570312 863.552734375 429.209960938 868.76953125 c 0,44,45
 441.728515625 869.8125 441.728515625 869.8125 449.030273438 861.466796875 c 128,-1,46
 456.333007812 853.12109375 456.333007812 853.12109375 453.203125 841.646484375 c 0,47,48
 441.728515625 782.185546875 441.728515625 782.185546875 462.591796875 710.205078125 c 1,49,50
 457.375976562 648.65625 457.375976562 648.65625 390.612304688 557.900390625 c 0,51,52
 385.396484375 551.640625 385.396484375 551.640625 386.439453125 541.73046875 c 128,-1,53
 387.482421875 531.8203125 387.482421875 531.8203125 394.78515625 527.126953125 c 128,-1,54
 402.086914062 522.431640625 402.086914062 522.431640625 411.475585938 523.474609375 c 128,-1,55
 420.864257812 524.517578125 420.864257812 524.517578125 426.080078125 531.8203125 c 0,56,57
 470.9375 594.412109375 470.9375 594.412109375 489.71484375 641.35546875 c 1,58,59
 522.053710938 575.634765625 522.053710938 575.634765625 580.471679688 513.04296875 c 0,60,61
 670.185546875 417.0703125 670.185546875 417.0703125 793.28125 444.193359375 c 0,62,63
 802.669921875 446.279296875 802.669921875 446.279296875 807.364257812 455.146484375 c 128,-1,64
 812.05859375 464.013671875 812.05859375 464.013671875 808.928710938 473.40234375 c 2,65,-1
 808.928710938 474.4453125 l 2,66,67
 805.799804688 480.705078125 805.799804688 480.705078125 799.018554688 484.876953125 c 128,-1,68
 792.23828125 489.05078125 792.23828125 489.05078125 784.935546875 486.962890625 c 0,69,70
 751.553710938 477.57421875 751.553710938 477.57421875 719.737304688 484.876953125 c 128,-1,71
 687.919921875 492.1796875 687.919921875 492.1796875 658.7109375 508.87109375 c 128,-1,72
 629.500976562 525.560546875 629.500976562 525.560546875 603.943359375 552.68359375 c 128,-1,73
 578.385742188 579.806640625 578.385742188 579.806640625 558.04296875 611.1015625 c 128,-1,74
 537.701171875 642.3984375 537.701171875 642.3984375 523.096679688 677.34375 c 128,-1,75
 508.4921875 712.291015625 508.4921875 712.291015625 501.7109375 745.673828125 c 128,-1,76
 494.930664062 779.0546875 494.930664062 779.0546875 496.495117188 810.873046875 c 128,-1,77
 498.060546875 842.689453125 498.060546875 842.689453125 509.53515625 865.638671875 c 0,78,79
 521.009765625 890.67578125 521.009765625 890.67578125 537.701171875 908.931640625 c 128,-1,80
 554.391601562 927.1875 554.391601562 927.1875 568.474609375 936.0546875 c 128,-1,81
 582.557617188 944.921875 582.557617188 944.921875 599.770507812 950.13671875 c 128,-1,82
 616.983398438 955.353515625 616.983398438 955.353515625 626.893554688 956.396484375 c 128,-1,83
 636.803710938 957.439453125 636.803710938 957.439453125 646.192382812 957.439453125 c 0,84,85
 659.75390625 956.396484375 659.75390625 956.396484375 669.142578125 954.83203125 c 128,-1,86
 678.53125 953.267578125 678.53125 953.267578125 692.614257812 948.572265625 c 128,-1,87
 706.697265625 943.87890625 706.697265625 943.87890625 718.693359375 934.490234375 c 128,-1,88
 730.690429688 925.1015625 730.690429688 925.1015625 747.380859375 908.931640625 c 128,-1,89
 764.072265625 892.76171875 764.072265625 892.76171875 781.28515625 869.8125 c 128,-1,90
 798.497070312 846.861328125 798.497070312 846.861328125 819.8828125 812.958984375 c 128,-1,91
 841.267578125 779.0546875 841.267578125 779.0546875 865.260742188 735.2421875 c 1,16,-1
EndSplineSet
EndChar

StartChar: uniE007
Encoding: 57351 57351 9
Width: 1024
VWidth: 1024
GlyphClass: 2
Flags: HW
LayerCount: 2
Fore
SplineSet
512 957.439453125 m 128,-1,1
 583.98046875 957.439453125 583.98046875 957.439453125 650.22265625 929.2734375 c 128,-1,2
 716.46484375 901.107421875 716.46484375 901.107421875 763.9296875 853.12109375 c 128,-1,3
 811.39453125 805.134765625 811.39453125 805.134765625 839.560546875 739.4140625 c 128,-1,4
 867.7265625 673.693359375 867.7265625 673.693359375 867.7265625 601.19140625 c 128,-1,5
 867.7265625 528.69140625 867.7265625 528.69140625 839.560546875 462.44921875 c 128,-1,6
 811.39453125 396.20703125 811.39453125 396.20703125 763.9296875 348.7421875 c 128,-1,7
 716.46484375 301.27734375 716.46484375 301.27734375 650.22265625 273.111328125 c 128,-1,8
 583.98046875 244.9453125 583.98046875 244.9453125 512 244.9453125 c 128,-1,9
 440.01953125 244.9453125 440.01953125 244.9453125 373.77734375 273.111328125 c 128,-1,10
 307.53515625 301.27734375 307.53515625 301.27734375 260.0703125 348.7421875 c 128,-1,11
 212.60546875 396.20703125 212.60546875 396.20703125 184.439453125 462.44921875 c 128,-1,12
 156.2734375 528.69140625 156.2734375 528.69140625 156.2734375 601.19140625 c 128,-1,13
 156.2734375 673.693359375 156.2734375 673.693359375 184.439453125 739.4140625 c 128,-1,14
 212.60546875 805.134765625 212.60546875 805.134765625 260.0703125 853.12109375 c 128,-1,15
 307.53515625 901.107421875 307.53515625 901.107421875 373.77734375 929.2734375 c 128,-1,0
 440.01953125 957.439453125 440.01953125 957.439453125 512 957.439453125 c 128,-1,1
508.87109375 431.673828125 m 0,16,17
 518.259765625 441.0625 518.259765625 441.0625 518.259765625 454.625 c 128,-1,18
 518.259765625 468.185546875 518.259765625 468.185546875 508.349609375 478.6171875 c 128,-1,19
 498.439453125 489.05078125 498.439453125 489.05078125 484.35546875 488.52734375 c 128,-1,20
 470.2734375 488.005859375 470.2734375 488.005859375 460.884765625 478.6171875 c 128,-1,21
 451.49609375 469.228515625 451.49609375 469.228515625 451.49609375 455.146484375 c 128,-1,22
 451.49609375 441.0625 451.49609375 441.0625 460.884765625 431.673828125 c 0,23,24
 471.31640625 421.2421875 471.31640625 421.2421875 484.876953125 421.2421875 c 128,-1,25
 498.439453125 421.2421875 498.439453125 421.2421875 508.87109375 431.673828125 c 0,16,17
547.46875 518.259765625 m 0,26,27
 556.857421875 507.826171875 556.857421875 507.826171875 570.939453125 507.826171875 c 128,-1,28
 585.0234375 507.826171875 585.0234375 507.826171875 594.412109375 518.259765625 c 0,29,30
 604.84375 527.6484375 604.84375 527.6484375 604.84375 541.73046875 c 128,-1,31
 604.84375 555.814453125 604.84375 555.814453125 594.412109375 565.203125 c 0,32,33
 585.0234375 574.591796875 585.0234375 574.591796875 570.939453125 574.591796875 c 128,-1,34
 556.857421875 574.591796875 556.857421875 574.591796875 547.46875 565.203125 c 256,35,36
 538.080078125 555.814453125 538.080078125 555.814453125 538.080078125 541.73046875 c 128,-1,37
 538.080078125 527.6484375 538.080078125 527.6484375 547.46875 518.259765625 c 0,26,27
638.224609375 387.861328125 m 0,38,39
 647.61328125 398.29296875 647.61328125 398.29296875 647.61328125 411.853515625 c 128,-1,40
 647.61328125 425.416015625 647.61328125 425.416015625 638.224609375 435.84765625 c 0,41,42
 627.79296875 445.236328125 627.79296875 445.236328125 614.232421875 445.236328125 c 128,-1,43
 600.669921875 445.236328125 600.669921875 445.236328125 591.28125 435.84765625 c 0,44,45
 580.849609375 425.416015625 580.849609375 425.416015625 580.849609375 411.853515625 c 128,-1,46
 580.849609375 398.29296875 580.849609375 398.29296875 591.28125 387.861328125 c 0,47,48
 600.669921875 378.47265625 600.669921875 378.47265625 614.232421875 378.47265625 c 128,-1,49
 627.79296875 378.47265625 627.79296875 378.47265625 638.224609375 387.861328125 c 0,38,39
634.052734375 604.84375 m 0,50,51
 644.484375 594.412109375 644.484375 594.412109375 658.044921875 594.412109375 c 128,-1,52
 671.607421875 594.412109375 671.607421875 594.412109375 680.99609375 604.84375 c 0,53,54
 691.427734375 614.232421875 691.427734375 614.232421875 691.427734375 628.314453125 c 128,-1,55
 691.427734375 642.3984375 691.427734375 642.3984375 680.99609375 651.787109375 c 0,56,57
 671.607421875 661.17578125 671.607421875 661.17578125 658.044921875 661.17578125 c 128,-1,58
 644.484375 661.17578125 644.484375 661.17578125 634.052734375 651.787109375 c 0,59,60
 624.6640625 642.3984375 624.6640625 642.3984375 624.6640625 628.314453125 c 128,-1,61
 624.6640625 614.232421875 624.6640625 614.232421875 634.052734375 604.84375 c 0,50,51
724.810546875 474.4453125 m 0,62,63
 734.19921875 484.876953125 734.19921875 484.876953125 734.19921875 498.439453125 c 128,-1,64
 734.19921875 512 734.19921875 512 724.810546875 522.431640625 c 0,65,66
 714.376953125 531.8203125 714.376953125 531.8203125 700.81640625 531.8203125 c 128,-1,67
 687.255859375 531.8203125 687.255859375 531.8203125 677.8671875 522.431640625 c 0,68,69
 667.43359375 512 667.43359375 512 667.43359375 498.439453125 c 128,-1,70
 667.43359375 484.876953125 667.43359375 484.876953125 677.8671875 474.4453125 c 0,71,72
 687.255859375 465.056640625 687.255859375 465.056640625 700.81640625 465.056640625 c 128,-1,73
 714.376953125 465.056640625 714.376953125 465.056640625 724.810546875 474.4453125 c 0,62,63
667.43359375 200.087890625 m 1,74,75
 667.43359375 192.78515625 667.43359375 192.78515625 663.26171875 187.046875 c 128,-1,76
 659.08984375 181.310546875 659.08984375 181.310546875 651.787109375 178.181640625 c 1,77,-1
 651.787109375 178.181640625 l 1,78,79
 628.8359375 170.87890625 628.8359375 170.87890625 614.75390625 151.580078125 c 128,-1,80
 600.669921875 132.28125 600.669921875 132.28125 600.669921875 108.287109375 c 0,81,82
 600.669921875 91.595703125 600.669921875 91.595703125 588.673828125 79.078125 c 128,-1,83
 576.677734375 66.560546875 576.677734375 66.560546875 558.943359375 66.560546875 c 2,84,-1
 464.013671875 66.560546875 l 2,85,86
 447.322265625 66.560546875 447.322265625 66.560546875 434.8046875 79.078125 c 128,-1,87
 422.28515625 91.595703125 422.28515625 91.595703125 422.28515625 108.287109375 c 0,88,89
 422.28515625 132.28125 422.28515625 132.28125 408.203125 151.580078125 c 128,-1,90
 394.119140625 170.87890625 394.119140625 170.87890625 372.212890625 178.181640625 c 1,91,-1
 371.169921875 178.181640625 l 1,92,93
 355.521484375 183.396484375 355.521484375 183.396484375 355.521484375 200.087890625 c 0,94,95
 355.521484375 211.5625 355.521484375 211.5625 364.91015625 217.822265625 c 128,-1,96
 374.298828125 224.080078125 374.298828125 224.080078125 384.73046875 220.951171875 c 0,97,98
 446.279296875 200.087890625 446.279296875 200.087890625 512 200.087890625 c 0,99,100
 576.677734375 200.087890625 576.677734375 200.087890625 638.224609375 220.951171875 c 0,101,102
 648.65625 224.080078125 648.65625 224.080078125 658.044921875 217.822265625 c 128,-1,103
 667.43359375 211.5625 667.43359375 211.5625 667.43359375 200.087890625 c 1,104,-1
 667.43359375 200.087890625 l 1,74,75
EndSplineSet
EndChar

StartChar: uniE008
Encoding: 57352 57352 10
Width: 1024
VWidth: 1024
GlyphClass: 2
Flags: HW
LayerCount: 2
Fore
SplineSet
511.841796875 793.13671875 m 128,-1,1
 531.609375 793.13671875 531.609375 793.13671875 545.336914062 779.408203125 c 128,-1,2
 559.064453125 765.681640625 559.064453125 765.681640625 559.064453125 745.9140625 c 128,-1,3
 559.064453125 726.146484375 559.064453125 726.146484375 545.336914062 712.419921875 c 128,-1,4
 531.609375 698.69140625 531.609375 698.69140625 511.841796875 698.69140625 c 128,-1,5
 492.07421875 698.69140625 492.07421875 698.69140625 478.346679688 712.419921875 c 128,-1,6
 464.620117188 726.146484375 464.620117188 726.146484375 464.620117188 745.9140625 c 128,-1,7
 464.620117188 765.681640625 464.620117188 765.681640625 478.346679688 779.408203125 c 128,-1,0
 492.07421875 793.13671875 492.07421875 793.13671875 511.841796875 793.13671875 c 128,-1,1
827.022460938 365.939453125 m 0,8,9
 792.978515625 336.2890625 792.978515625 336.2890625 771.014648438 301.146484375 c 1,10,-1
 253.767578125 301.146484375 l 1,11,12
 229.606445312 336.2890625 229.606445312 336.2890625 196.661132812 365.939453125 c 0,13,14
 125.279296875 429.634765625 125.279296875 429.634765625 91.7841796875 504.861328125 c 128,-1,15
 58.2890625 580.087890625 58.2890625 580.087890625 69.271484375 647.626953125 c 128,-1,16
 80.2529296875 715.1640625 80.2529296875 715.1640625 132.965820312 760.19140625 c 0,17,18
 240.588867188 851.33984375 240.588867188 851.33984375 389.942382812 795.33203125 c 0,19,20
 403.12109375 789.841796875 403.12109375 789.841796875 410.80859375 776.6640625 c 128,-1,21
 418.49609375 763.484375 418.49609375 763.484375 418.49609375 748.111328125 c 0,22,23
 418.49609375 723.951171875 418.49609375 723.951171875 429.477539062 702.53515625 c 128,-1,24
 440.459960938 681.12109375 440.459960938 681.12109375 461.325195312 667.943359375 c 0,25,26
 483.2890625 653.666015625 483.2890625 653.666015625 510.744140625 652.568359375 c 128,-1,27
 538.198242188 651.470703125 538.198242188 651.470703125 560.162109375 665.74609375 c 0,28,29
 582.125976562 678.923828125 582.125976562 678.923828125 594.206054688 701.4375 c 128,-1,30
 606.286132812 723.951171875 606.286132812 723.951171875 606.286132812 748.111328125 c 0,31,32
 606.286132812 764.583984375 606.286132812 764.583984375 613.973632812 777.76171875 c 128,-1,33
 621.661132812 790.939453125 621.661132812 790.939453125 635.9375 796.431640625 c 0,34,35
 783.094726562 851.33984375 783.094726562 851.33984375 890.717773438 760.19140625 c 0,36,37
 944.529296875 716.263671875 944.529296875 716.263671875 954.961914062 648.17578125 c 128,-1,38
 965.39453125 580.087890625 965.39453125 580.087890625 931.899414062 504.861328125 c 128,-1,39
 898.405273438 429.634765625 898.405273438 429.634765625 827.022460938 365.939453125 c 0,8,9
418.49609375 527.375 m 2,40,41
 418.49609375 563.615234375 418.49609375 563.615234375 391.58984375 592.716796875 c 128,-1,42
 364.684570312 621.818359375 364.684570312 621.818359375 325.149414062 627.310546875 c 0,43,44
 315.265625 629.505859375 315.265625 629.505859375 305.381835938 629.505859375 c 0,45,46
 291.10546875 629.505859375 291.10546875 629.505859375 280.672851562 626.2109375 c 128,-1,47
 270.240234375 622.916015625 270.240234375 622.916015625 265.297851562 617.974609375 c 128,-1,48
 260.356445312 613.033203125 260.356445312 613.033203125 258.708984375 609.73828125 c 128,-1,49
 257.061523438 606.443359375 257.061523438 606.443359375 255.963867188 602.05078125 c 0,50,51
 251.5703125 589.970703125 251.5703125 589.970703125 257.061523438 574.046875 c 128,-1,52
 262.552734375 558.123046875 262.552734375 558.123046875 270.7890625 544.396484375 c 128,-1,53
 279.025390625 530.66796875 279.025390625 530.66796875 297.145507812 509.802734375 c 128,-1,54
 315.265625 488.9375 315.265625 488.9375 326.248046875 477.40625 c 128,-1,55
 337.229492188 465.875 337.229492188 465.875 358.095703125 443.912109375 c 0,56,57
 404.21875 397.787109375 404.21875 397.787109375 418.49609375 381.314453125 c 1,58,-1
 418.49609375 527.375 l 2,40,41
767.720703125 602.05078125 m 0,59,60
 761.130859375 629.505859375 761.130859375 629.505859375 718.301757812 629.505859375 c 0,61,62
 705.123046875 629.505859375 705.123046875 629.505859375 698.534179688 627.310546875 c 0,63,64
 658.999023438 621.818359375 658.999023438 621.818359375 632.09375 592.716796875 c 128,-1,65
 605.188476562 563.615234375 605.188476562 563.615234375 605.188476562 527.375 c 2,66,-1
 605.188476562 381.314453125 l 1,67,68
 619.46484375 397.787109375 619.46484375 397.787109375 665.588867188 443.912109375 c 0,69,70
 686.454101562 465.875 686.454101562 465.875 697.436523438 477.40625 c 128,-1,71
 708.41796875 488.9375 708.41796875 488.9375 726.538085938 509.802734375 c 128,-1,72
 744.658203125 530.66796875 744.658203125 530.66796875 752.89453125 544.396484375 c 128,-1,73
 761.130859375 558.123046875 761.130859375 558.123046875 766.622070312 574.046875 c 128,-1,74
 772.11328125 589.970703125 772.11328125 589.970703125 767.720703125 602.05078125 c 0,59,60
605.188476562 826.08203125 m 1,75,-1
 511.841796875 840.359375 l 1,76,-1
 418.49609375 826.08203125 l 1,77,-1
 418.49609375 900.759765625 l 1,78,-1
 484.38671875 890.875 l 1,79,-1
 474.502929688 956.767578125 l 1,80,-1
 549.180664062 956.767578125 l 1,81,-1
 539.296875 890.875 l 1,82,-1
 605.188476562 900.759765625 l 1,83,-1
 605.188476562 826.08203125 l 1,75,-1
722.694335938 253.92578125 m 2,84,85
 752.345703125 253.92578125 752.345703125 253.92578125 772.662109375 233.607421875 c 128,-1,86
 792.978515625 213.291015625 792.978515625 213.291015625 792.978515625 183.640625 c 2,87,-1
 792.978515625 113.357421875 l 2,88,89
 792.978515625 94.6875 792.978515625 94.6875 779.250976562 80.958984375 c 128,-1,90
 765.5234375 67.232421875 765.5234375 67.232421875 745.756835938 67.232421875 c 2,91,-1
 277.927734375 67.232421875 l 2,92,93
 258.16015625 67.232421875 258.16015625 67.232421875 244.432617188 80.958984375 c 128,-1,94
 230.705078125 94.6875 230.705078125 94.6875 230.705078125 113.357421875 c 2,95,-1
 230.705078125 183.640625 l 2,96,97
 230.705078125 213.291015625 230.705078125 213.291015625 251.021484375 233.607421875 c 128,-1,98
 271.337890625 253.92578125 271.337890625 253.92578125 300.989257812 253.92578125 c 2,99,-1
 722.694335938 253.92578125 l 2,84,85
EndSplineSet
EndChar

StartChar: uniE009
Encoding: 57353 57353 11
Width: 1024
VWidth: 1024
GlyphClass: 2
Flags: HW
LayerCount: 2
Fore
SplineSet
806.9609375 764.451171875 m 0,0,1
 806.9609375 776.525390625 806.9609375 776.525390625 817.9375 780.915039062 c 128,-1,2
 828.9140625 785.305664062 828.9140625 785.305664062 837.694335938 776.525390625 c 2,3,-1
 905.747070312 708.47265625 l 2,4,5
 955.139648438 660.177734375 955.139648438 660.177734375 957.334960938 578.954101562 c 128,-1,6
 959.530273438 497.73046875 959.530273438 497.73046875 915.625 405.530273438 c 128,-1,7
 871.720703125 313.331054688 871.720703125 313.331054688 791.594726562 233.205078125 c 0,8,9
 710.37109375 153.079101562 710.37109375 153.079101562 618.170898438 109.173828125 c 128,-1,10
 525.971679688 65.26953125 525.971679688 65.26953125 444.748046875 66.916015625 c 128,-1,11
 363.524414062 68.5625 363.524414062 68.5625 314.131835938 117.955078125 c 2,12,-1
 247.176757812 186.006835938 l 2,13,14
 238.395507812 194.788085938 238.395507812 194.788085938 242.786132812 206.313476562 c 128,-1,15
 247.176757812 217.837890625 247.176757812 217.837890625 259.250976562 217.837890625 c 0,16,17
 348.157226562 218.935546875 348.157226562 218.935546875 444.748046875 265.583984375 c 128,-1,18
 541.337890625 312.233398438 541.337890625 312.233398438 626.952148438 397.297851562 c 128,-1,19
 712.56640625 482.36328125 712.56640625 482.36328125 759.21484375 578.954101562 c 128,-1,20
 805.86328125 675.543945312 805.86328125 675.543945312 806.9609375 764.451171875 c 0,0,1
708.724609375 906.043945312 m 128,-1,22
 757.568359375 856.651367188 757.568359375 856.651367188 759.763671875 775.9765625 c 128,-1,23
 761.958984375 695.301757812 761.958984375 695.301757812 718.0546875 603.1015625 c 128,-1,24
 674.149414062 510.901367188 674.149414062 510.901367188 594.0234375 430.775390625 c 256,25,26
 513.897460938 350.649414062 513.897460938 350.649414062 421.698242188 306.745117188 c 128,-1,27
 329.498046875 262.83984375 329.498046875 262.83984375 248.274414062 265.03515625 c 128,-1,28
 167.05078125 267.23046875 167.05078125 267.23046875 117.658203125 316.07421875 c 128,-1,29
 68.265625 364.918945312 68.265625 364.918945312 66.619140625 446.142578125 c 128,-1,30
 64.97265625 527.366210938 64.97265625 527.366210938 108.876953125 619.016601562 c 128,-1,31
 152.782226562 710.66796875 152.782226562 710.66796875 232.908203125 791.891601562 c 0,32,33
 313.034179688 872.017578125 313.034179688 872.017578125 405.233398438 915.373046875 c 128,-1,34
 497.43359375 958.729492188 497.43359375 958.729492188 578.657226562 957.083007812 c 128,-1,21
 659.880859375 955.436523438 659.880859375 955.436523438 708.724609375 906.043945312 c 128,-1,22
EndSplineSet
EndChar

StartChar: uniE00A
Encoding: 57354 57354 12
Width: 1024
VWidth: 1024
GlyphClass: 2
Flags: HW
LayerCount: 2
Fore
SplineSet
854.052734375 240.3359375 m 0,0,1
 856.25390625 242.53515625 856.25390625 242.53515625 859.552734375 239.787109375 c 128,-1,2
 862.8515625 237.037109375 862.8515625 237.037109375 860.65234375 233.736328125 c 0,3,4
 797.9609375 155.6484375 797.9609375 155.6484375 706.673828125 111.103515625 c 128,-1,5
 615.384765625 66.560546875 615.384765625 66.560546875 512 66.560546875 c 128,-1,6
 408.61328125 66.560546875 408.61328125 66.560546875 317.326171875 111.654296875 c 128,-1,7
 226.0390625 156.748046875 226.0390625 156.748046875 163.345703125 234.837890625 c 0,8,9
 161.146484375 238.13671875 161.146484375 238.13671875 163.896484375 240.88671875 c 128,-1,10
 166.646484375 243.63671875 166.646484375 243.63671875 169.9453125 241.435546875 c 0,11,12
 205.140625 215.0390625 205.140625 215.0390625 234.837890625 208.44140625 c 0,13,14
 245.8359375 206.240234375 245.8359375 206.240234375 255.734375 205.69140625 c 128,-1,15
 265.6328125 205.140625 265.6328125 205.140625 274.431640625 206.791015625 c 128,-1,16
 283.23046875 208.44140625 283.23046875 208.44140625 289.830078125 210.08984375 c 128,-1,17
 296.427734375 211.740234375 296.427734375 211.740234375 303.578125 215.58984375 c 128,-1,18
 310.7265625 219.439453125 310.7265625 219.439453125 314.576171875 221.638671875 c 128,-1,19
 318.42578125 223.837890625 318.42578125 223.837890625 325.025390625 228.23828125 c 0,20,21
 333.82421875 233.736328125 333.82421875 233.736328125 339.322265625 236.486328125 c 128,-1,22
 344.822265625 239.236328125 344.822265625 239.236328125 353.62109375 240.88671875 c 128,-1,23
 362.419921875 242.53515625 362.419921875 242.53515625 373.41796875 241.435546875 c 0,24,25
 389.916015625 240.3359375 389.916015625 240.3359375 400.365234375 235.38671875 c 128,-1,26
 410.8125 230.4375 410.8125 230.4375 425.111328125 218.33984375 c 0,27,28
 438.30859375 207.33984375 438.30859375 207.33984375 446.55859375 201.291015625 c 128,-1,29
 454.806640625 195.2421875 454.806640625 195.2421875 473.50390625 188.642578125 c 128,-1,30
 492.203125 182.044921875 492.203125 182.044921875 513.099609375 182.044921875 c 0,31,32
 529.59765625 182.044921875 529.59765625 182.044921875 542.794921875 184.79296875 c 128,-1,33
 555.994140625 187.54296875 555.994140625 187.54296875 567.54296875 194.142578125 c 128,-1,34
 579.08984375 200.7421875 579.08984375 200.7421875 584.58984375 205.140625 c 128,-1,35
 590.08984375 209.541015625 590.08984375 209.541015625 600.537109375 217.7890625 c 128,-1,36
 610.986328125 226.0390625 610.986328125 226.0390625 616.486328125 229.88671875 c 128,-1,37
 621.984375 233.736328125 621.984375 233.736328125 631.333984375 237.5859375 c 128,-1,38
 640.681640625 241.435546875 640.681640625 241.435546875 652.78125 242.53515625 c 0,39,40
 663.779296875 243.63671875 663.779296875 243.63671875 672.578125 241.435546875 c 128,-1,41
 681.376953125 239.236328125 681.376953125 239.236328125 686.326171875 236.486328125 c 128,-1,42
 691.275390625 233.736328125 691.275390625 233.736328125 701.173828125 228.23828125 c 0,43,44
 707.7734375 223.837890625 707.7734375 223.837890625 711.072265625 221.638671875 c 128,-1,45
 714.373046875 219.439453125 714.373046875 219.439453125 722.072265625 216.138671875 c 128,-1,46
 729.76953125 212.83984375 729.76953125 212.83984375 736.369140625 210.640625 c 128,-1,47
 742.96875 208.44140625 742.96875 208.44140625 751.767578125 207.33984375 c 128,-1,48
 760.56640625 206.240234375 760.56640625 206.240234375 770.46484375 206.240234375 c 128,-1,49
 780.36328125 206.240234375 780.36328125 206.240234375 792.4609375 208.44140625 c 0,50,51
 819.958984375 213.939453125 819.958984375 213.939453125 854.052734375 240.3359375 c 0,0,1
870.55078125 427.310546875 m 0,52,53
 883.75 427.310546875 883.75 427.310546875 891.998046875 424.560546875 c 128,-1,54
 900.248046875 421.8125 900.248046875 421.8125 912.345703125 415.212890625 c 0,55,56
 917.845703125 410.8125 917.845703125 410.8125 927.744140625 406.4140625 c 0,57,58
 934.341796875 403.115234375 934.341796875 403.115234375 937.642578125 395.96484375 c 128,-1,59
 940.94140625 388.81640625 940.94140625 388.81640625 938.7421875 382.216796875 c 0,60,61
 932.142578125 361.3203125 932.142578125 361.3203125 924.443359375 343.72265625 c 0,62,63
 921.14453125 333.82421875 921.14453125 333.82421875 911.24609375 330.5234375 c 0,64,65
 892.548828125 327.224609375 892.548828125 327.224609375 876.599609375 318.42578125 c 128,-1,66
 860.65234375 309.626953125 860.65234375 309.626953125 852.953125 303.578125 c 128,-1,67
 845.25390625 297.529296875 845.25390625 297.529296875 833.15625 285.4296875 c 0,68,69
 822.158203125 275.53125 822.158203125 275.53125 817.208984375 271.681640625 c 128,-1,70
 812.259765625 267.83203125 812.259765625 267.83203125 801.810546875 262.333984375 c 128,-1,71
 791.361328125 256.833984375 791.361328125 256.833984375 780.36328125 254.634765625 c 0,72,73
 763.865234375 251.333984375 763.865234375 251.333984375 755.06640625 254.083984375 c 128,-1,74
 746.267578125 256.833984375 746.267578125 256.833984375 731.970703125 266.732421875 c 0,75,76
 718.771484375 274.431640625 718.771484375 274.431640625 711.072265625 278.28125 c 128,-1,77
 703.373046875 282.130859375 703.373046875 282.130859375 685.2265625 286.529296875 c 128,-1,78
 667.078125 290.9296875 667.078125 290.9296875 647.28125 288.73046875 c 0,79,80
 627.484375 287.62890625 627.484375 287.62890625 609.88671875 281.03125 c 128,-1,81
 592.2890625 274.431640625 592.2890625 274.431640625 584.58984375 268.3828125 c 128,-1,82
 576.890625 262.333984375 576.890625 262.333984375 563.693359375 252.435546875 c 0,83,84
 552.693359375 243.63671875 552.693359375 243.63671875 547.744140625 239.787109375 c 128,-1,85
 542.794921875 235.9375 542.794921875 235.9375 533.447265625 232.63671875 c 128,-1,86
 524.09765625 229.337890625 524.09765625 229.337890625 513.099609375 229.337890625 c 0,87,88
 501.001953125 229.337890625 501.001953125 229.337890625 491.65234375 232.63671875 c 128,-1,89
 482.302734375 235.9375 482.302734375 235.9375 476.8046875 239.787109375 c 128,-1,90
 471.3046875 243.63671875 471.3046875 243.63671875 461.40625 252.435546875 c 0,91,92
 448.208984375 262.333984375 448.208984375 262.333984375 440.509765625 268.3828125 c 128,-1,93
 432.810546875 274.431640625 432.810546875 274.431640625 415.212890625 281.03125 c 128,-1,94
 397.615234375 287.62890625 397.615234375 287.62890625 377.818359375 288.73046875 c 0,95,96
 358.01953125 290.9296875 358.01953125 290.9296875 339.873046875 286.529296875 c 128,-1,97
 321.724609375 282.130859375 321.724609375 282.130859375 313.4765625 277.73046875 c 128,-1,98
 305.2265625 273.33203125 305.2265625 273.33203125 293.12890625 265.6328125 c 0,99,100
 286.529296875 262.333984375 286.529296875 262.333984375 283.78125 260.68359375 c 128,-1,101
 281.03125 259.033203125 281.03125 259.033203125 276.08203125 256.833984375 c 128,-1,102
 271.1328125 254.634765625 271.1328125 254.634765625 267.283203125 254.083984375 c 128,-1,103
 263.43359375 253.53515625 263.43359375 253.53515625 257.93359375 252.984375 c 128,-1,104
 252.435546875 252.435546875 252.435546875 252.435546875 245.8359375 253.53515625 c 0,105,106
 233.736328125 256.833984375 233.736328125 256.833984375 223.2890625 262.333984375 c 128,-1,107
 212.83984375 267.83203125 212.83984375 267.83203125 207.33984375 272.232421875 c 128,-1,108
 201.841796875 276.630859375 201.841796875 276.630859375 191.943359375 285.4296875 c 0,109,110
 178.744140625 297.529296875 178.744140625 297.529296875 171.595703125 303.578125 c 128,-1,111
 164.447265625 309.626953125 164.447265625 309.626953125 147.94921875 317.875 c 128,-1,112
 131.451171875 326.125 131.451171875 326.125 113.853515625 330.5234375 c 0,113,114
 103.955078125 333.82421875 103.955078125 333.82421875 99.5546875 343.72265625 c 0,115,116
 91.85546875 360.220703125 91.85546875 360.220703125 86.357421875 380.017578125 c 0,117,118
 84.158203125 387.716796875 84.158203125 387.716796875 87.45703125 395.416015625 c 128,-1,119
 90.755859375 403.115234375 90.755859375 403.115234375 98.455078125 406.4140625 c 0,120,121
 102.85546875 408.61328125 102.85546875 408.61328125 112.75390625 414.11328125 c 0,122,123
 120.453125 419.611328125 120.453125 419.611328125 124.8515625 421.8125 c 128,-1,124
 129.251953125 424.01171875 129.251953125 424.01171875 136.94921875 425.662109375 c 128,-1,125
 144.6484375 427.310546875 144.6484375 427.310546875 154.546875 427.310546875 c 0,126,127
 168.845703125 426.2109375 168.845703125 426.2109375 177.64453125 420.712890625 c 128,-1,128
 186.443359375 415.212890625 186.443359375 415.212890625 198.541015625 404.21484375 c 0,129,130
 209.541015625 394.31640625 209.541015625 394.31640625 216.689453125 389.365234375 c 128,-1,131
 223.837890625 384.416015625 223.837890625 384.416015625 238.685546875 377.818359375 c 128,-1,132
 253.53515625 371.21875 253.53515625 371.21875 271.1328125 369.01953125 c 0,133,134
 289.830078125 367.919921875 289.830078125 367.919921875 305.77734375 372.869140625 c 128,-1,135
 321.724609375 377.818359375 321.724609375 377.818359375 328.875 382.767578125 c 128,-1,136
 336.0234375 387.716796875 336.0234375 387.716796875 348.12109375 396.515625 c 0,137,138
 356.919921875 404.21484375 356.919921875 404.21484375 361.3203125 406.962890625 c 128,-1,139
 365.71875 409.712890625 365.71875 409.712890625 373.96875 412.462890625 c 128,-1,140
 382.216796875 415.212890625 382.216796875 415.212890625 392.115234375 415.212890625 c 256,141,142
 402.013671875 415.212890625 402.013671875 415.212890625 410.263671875 411.9140625 c 128,-1,143
 418.51171875 408.61328125 418.51171875 408.61328125 422.912109375 404.763671875 c 128,-1,144
 427.310546875 400.9140625 427.310546875 400.9140625 436.109375 393.21484375 c 0,145,146
 448.208984375 383.31640625 448.208984375 383.31640625 455.357421875 377.267578125 c 128,-1,147
 462.505859375 371.21875 462.505859375 371.21875 478.455078125 365.169921875 c 128,-1,148
 494.40234375 359.12109375 494.40234375 359.12109375 513.099609375 359.12109375 c 0,149,150
 530.697265625 359.12109375 530.697265625 359.12109375 546.64453125 365.71875 c 128,-1,151
 562.59375 372.318359375 562.59375 372.318359375 569.7421875 377.818359375 c 128,-1,152
 576.890625 383.31640625 576.890625 383.31640625 588.990234375 393.21484375 c 0,153,154
 597.787109375 402.013671875 597.787109375 402.013671875 602.1875 405.314453125 c 128,-1,155
 606.5859375 408.61328125 606.5859375 408.61328125 615.384765625 411.9140625 c 128,-1,156
 624.18359375 415.212890625 624.18359375 415.212890625 634.083984375 415.212890625 c 256,157,158
 643.982421875 415.212890625 643.982421875 415.212890625 651.681640625 412.462890625 c 128,-1,159
 659.37890625 409.712890625 659.37890625 409.712890625 663.779296875 406.962890625 c 128,-1,160
 668.177734375 404.21484375 668.177734375 404.21484375 678.078125 396.515625 c 0,161,162
 689.076171875 387.716796875 689.076171875 387.716796875 696.775390625 382.767578125 c 128,-1,163
 704.474609375 377.818359375 704.474609375 377.818359375 720.421875 372.869140625 c 128,-1,164
 736.369140625 367.919921875 736.369140625 367.919921875 755.06640625 369.01953125 c 0,165,166
 771.564453125 371.21875 771.564453125 371.21875 786.962890625 377.818359375 c 128,-1,167
 802.361328125 384.416015625 802.361328125 384.416015625 808.958984375 389.365234375 c 128,-1,168
 815.55859375 394.31640625 815.55859375 394.31640625 826.556640625 404.21484375 c 0,169,170
 835.35546875 411.9140625 835.35546875 411.9140625 839.755859375 415.76171875 c 128,-1,171
 844.154296875 419.611328125 844.154296875 419.611328125 852.404296875 422.912109375 c 128,-1,172
 860.65234375 426.2109375 860.65234375 426.2109375 870.55078125 427.310546875 c 0,52,53
227.138671875 779.263671875 m 1,173,-1
 227.138671875 779.263671875 l 1,174,175
 205.140625 792.4609375 205.140625 792.4609375 187.54296875 793.5625 c 0,176,177
 180.943359375 794.662109375 180.943359375 794.662109375 178.744140625 800.16015625 c 128,-1,178
 176.544921875 805.66015625 176.544921875 805.66015625 180.943359375 808.958984375 c 0,179,180
 243.63671875 879.349609375 243.63671875 879.349609375 329.423828125 918.39453125 c 128,-1,181
 415.212890625 957.439453125 415.212890625 957.439453125 512.548828125 957.439453125 c 128,-1,182
 609.88671875 957.439453125 609.88671875 957.439453125 696.224609375 918.39453125 c 128,-1,183
 782.5625 879.349609375 782.5625 879.349609375 845.25390625 808.958984375 c 0,184,185
 848.5546875 804.560546875 848.5546875 804.560546875 846.35546875 799.060546875 c 128,-1,186
 844.154296875 793.5625 844.154296875 793.5625 838.65625 793.5625 c 0,187,188
 821.05859375 792.4609375 821.05859375 792.4609375 797.9609375 779.263671875 c 0,189,190
 790.26171875 774.86328125 790.26171875 774.86328125 785.86328125 773.21484375 c 128,-1,191
 781.462890625 771.564453125 781.462890625 771.564453125 773.21484375 769.9140625 c 128,-1,192
 764.96484375 768.265625 764.96484375 768.265625 756.166015625 770.46484375 c 0,193,194
 746.267578125 772.6640625 746.267578125 772.6640625 737.46875 777.064453125 c 128,-1,195
 728.669921875 781.462890625 728.669921875 781.462890625 723.720703125 785.86328125 c 128,-1,196
 718.771484375 790.26171875 718.771484375 790.26171875 709.97265625 799.060546875 c 0,197,198
 698.974609375 811.16015625 698.974609375 811.16015625 692.375 816.658203125 c 128,-1,199
 685.775390625 822.158203125 685.775390625 822.158203125 669.828125 830.40625 c 128,-1,200
 653.880859375 838.65625 653.880859375 838.65625 635.18359375 840.85546875 c 0,201,202
 616.486328125 841.955078125 616.486328125 841.955078125 599.98828125 837.005859375 c 128,-1,203
 583.490234375 832.056640625 583.490234375 832.056640625 576.341796875 827.107421875 c 128,-1,204
 569.19140625 822.158203125 569.19140625 822.158203125 557.09375 812.259765625 c 0,205,206
 548.294921875 804.560546875 548.294921875 804.560546875 543.89453125 801.259765625 c 128,-1,207
 539.49609375 797.9609375 539.49609375 797.9609375 531.24609375 795.2109375 c 128,-1,208
 522.998046875 792.4609375 522.998046875 792.4609375 512 792.4609375 c 0,209,210
 502.1015625 792.4609375 502.1015625 792.4609375 493.8515625 795.2109375 c 128,-1,211
 485.603515625 797.9609375 485.603515625 797.9609375 481.75390625 801.259765625 c 128,-1,212
 477.904296875 804.560546875 477.904296875 804.560546875 469.10546875 812.259765625 c 0,213,214
 457.0078125 822.158203125 457.0078125 822.158203125 449.30859375 827.107421875 c 128,-1,215
 441.609375 832.056640625 441.609375 832.056640625 425.111328125 837.005859375 c 128,-1,216
 408.61328125 841.955078125 408.61328125 841.955078125 389.916015625 840.85546875 c 0,217,218
 371.21875 838.65625 371.21875 838.65625 355.8203125 830.95703125 c 128,-1,219
 340.421875 823.2578125 340.421875 823.2578125 333.2734375 817.208984375 c 128,-1,220
 326.125 811.16015625 326.125 811.16015625 315.126953125 799.060546875 c 0,221,222
 306.328125 790.26171875 306.328125 790.26171875 301.37890625 785.86328125 c 128,-1,223
 296.427734375 781.462890625 296.427734375 781.462890625 287.62890625 777.064453125 c 128,-1,224
 278.830078125 772.6640625 278.830078125 772.6640625 268.931640625 770.46484375 c 0,225,226
 260.1328125 768.265625 260.1328125 768.265625 251.884765625 769.9140625 c 128,-1,227
 243.63671875 771.564453125 243.63671875 771.564453125 239.236328125 773.21484375 c 128,-1,228
 234.837890625 774.86328125 234.837890625 774.86328125 227.138671875 779.263671875 c 1,173,-1
909.046875 708.873046875 m 0,229,230
 916.74609375 695.67578125 916.74609375 695.67578125 927.744140625 670.37890625 c 128,-1,231
 938.7421875 645.08203125 938.7421875 645.08203125 943.140625 626.384765625 c 0,232,233
 945.341796875 619.78515625 945.341796875 619.78515625 939.841796875 615.935546875 c 128,-1,234
 934.341796875 612.0859375 934.341796875 612.0859375 928.84375 615.384765625 c 0,235,236
 895.84765625 638.482421875 895.84765625 638.482421875 871.650390625 641.78125 c 0,237,238
 854.052734375 643.982421875 854.052734375 643.982421875 838.10546875 640.1328125 c 128,-1,239
 822.158203125 636.283203125 822.158203125 636.283203125 814.458984375 631.8828125 c 128,-1,240
 806.759765625 627.484375 806.759765625 627.484375 795.76171875 619.78515625 c 0,241,242
 788.0625 613.185546875 788.0625 613.185546875 783.662109375 610.435546875 c 128,-1,243
 779.263671875 607.6875 779.263671875 607.6875 771.015625 605.486328125 c 128,-1,244
 762.765625 603.287109375 762.765625 603.287109375 752.8671875 603.287109375 c 0,245,246
 738.568359375 604.38671875 738.568359375 604.38671875 730.3203125 609.3359375 c 128,-1,247
 722.072265625 614.28515625 722.072265625 614.28515625 708.873046875 626.384765625 c 0,248,249
 696.775390625 637.3828125 696.775390625 637.3828125 690.17578125 642.33203125 c 128,-1,250
 683.576171875 647.28125 683.576171875 647.28125 667.62890625 653.880859375 c 128,-1,251
 651.681640625 660.48046875 651.681640625 660.48046875 634.083984375 661.580078125 c 0,252,253
 619.78515625 662.6796875 619.78515625 662.6796875 608.236328125 659.9296875 c 128,-1,254
 596.6875 657.1796875 596.6875 657.1796875 586.240234375 651.130859375 c 128,-1,255
 575.791015625 645.08203125 575.791015625 645.08203125 570.841796875 641.78125 c 128,-1,256
 565.892578125 638.482421875 565.892578125 638.482421875 557.09375 629.68359375 c 0,257,258
 548.294921875 623.083984375 548.294921875 623.083984375 543.89453125 619.234375 c 128,-1,259
 539.49609375 615.384765625 539.49609375 615.384765625 531.24609375 612.63671875 c 128,-1,260
 522.998046875 609.88671875 522.998046875 609.88671875 513.099609375 609.88671875 c 0,261,262
 498.80078125 609.88671875 498.80078125 609.88671875 490.001953125 614.28515625 c 128,-1,263
 481.203125 618.685546875 481.203125 618.685546875 468.005859375 629.68359375 c 0,264,265
 457.0078125 640.681640625 457.0078125 640.681640625 449.30859375 645.630859375 c 128,-1,266
 441.609375 650.580078125 441.609375 650.580078125 425.662109375 656.630859375 c 128,-1,267
 409.712890625 662.6796875 409.712890625 662.6796875 391.015625 661.580078125 c 0,268,269
 373.41796875 660.48046875 373.41796875 660.48046875 358.01953125 654.4296875 c 128,-1,270
 342.623046875 648.380859375 342.623046875 648.380859375 334.923828125 642.33203125 c 128,-1,271
 327.224609375 636.283203125 327.224609375 636.283203125 317.326171875 626.384765625 c 0,272,273
 308.52734375 618.685546875 308.52734375 618.685546875 303.578125 614.8359375 c 128,-1,274
 298.62890625 610.986328125 298.62890625 610.986328125 290.37890625 607.6875 c 128,-1,275
 282.130859375 604.38671875 282.130859375 604.38671875 272.232421875 603.287109375 c 0,276,277
 262.333984375 603.287109375 262.333984375 603.287109375 254.083984375 605.486328125 c 128,-1,278
 245.8359375 607.6875 245.8359375 607.6875 241.986328125 610.435546875 c 128,-1,279
 238.13671875 613.185546875 238.13671875 613.185546875 229.337890625 619.78515625 c 0,280,281
 218.33984375 627.484375 218.33984375 627.484375 210.640625 631.8828125 c 128,-1,282
 202.94140625 636.283203125 202.94140625 636.283203125 186.994140625 640.1328125 c 128,-1,283
 171.044921875 643.982421875 171.044921875 643.982421875 152.34765625 641.78125 c 0,284,285
 127.05078125 637.3828125 127.05078125 637.3828125 96.255859375 615.384765625 c 0,286,287
 90.755859375 612.0859375 90.755859375 612.0859375 85.2578125 615.935546875 c 128,-1,288
 79.7578125 619.78515625 79.7578125 619.78515625 81.95703125 626.384765625 c 0,289,290
 97.35546875 686.876953125 97.35546875 686.876953125 116.052734375 708.873046875 c 0,291,292
 127.05078125 722.072265625 127.05078125 722.072265625 137.5 730.3203125 c 128,-1,293
 147.94921875 738.568359375 147.94921875 738.568359375 163.345703125 744.068359375 c 0,294,295
 173.24609375 747.3671875 173.24609375 747.3671875 180.39453125 746.818359375 c 128,-1,296
 187.54296875 746.267578125 187.54296875 746.267578125 191.392578125 744.619140625 c 128,-1,297
 195.2421875 742.96875 195.2421875 742.96875 204.041015625 738.568359375 c 0,298,299
 210.640625 735.26953125 210.640625 735.26953125 214.490234375 733.0703125 c 128,-1,300
 218.33984375 730.87109375 218.33984375 730.87109375 226.0390625 728.12109375 c 128,-1,301
 233.736328125 725.37109375 233.736328125 725.37109375 240.3359375 724.271484375 c 128,-1,302
 246.935546875 723.171875 246.935546875 723.171875 256.833984375 723.171875 c 128,-1,303
 266.732421875 723.171875 266.732421875 723.171875 276.630859375 725.37109375 c 0,304,305
 294.228515625 727.5703125 294.228515625 727.5703125 309.076171875 735.26953125 c 128,-1,306
 323.92578125 742.96875 323.92578125 742.96875 331.07421875 749.017578125 c 128,-1,307
 338.22265625 755.06640625 338.22265625 755.06640625 349.220703125 766.064453125 c 0,308,309
 356.919921875 774.86328125 356.919921875 774.86328125 362.419921875 779.263671875 c 128,-1,310
 367.919921875 783.662109375 367.919921875 783.662109375 376.16796875 788.0625 c 128,-1,311
 384.416015625 792.4609375 384.416015625 792.4609375 394.31640625 793.5625 c 0,312,313
 408.61328125 795.76171875 408.61328125 795.76171875 416.86328125 791.361328125 c 128,-1,314
 425.111328125 786.962890625 425.111328125 786.962890625 438.30859375 775.96484375 c 0,315,316
 449.30859375 767.166015625 449.30859375 767.166015625 457.0078125 761.666015625 c 128,-1,317
 464.705078125 756.166015625 464.705078125 756.166015625 480.103515625 750.66796875 c 128,-1,318
 495.501953125 745.16796875 495.501953125 745.16796875 512 745.16796875 c 0,319,320
 530.697265625 745.16796875 530.697265625 745.16796875 546.64453125 750.66796875 c 128,-1,321
 562.59375 756.166015625 562.59375 756.166015625 569.19140625 761.115234375 c 128,-1,322
 575.791015625 766.064453125 575.791015625 766.064453125 587.888671875 775.96484375 c 0,323,324
 596.6875 783.662109375 596.6875 783.662109375 601.087890625 786.962890625 c 128,-1,325
 605.486328125 790.26171875 605.486328125 790.26171875 613.185546875 792.4609375 c 128,-1,326
 620.884765625 794.662109375 620.884765625 794.662109375 630.783203125 793.5625 c 0,327,328
 645.08203125 792.4609375 645.08203125 792.4609375 654.4296875 785.86328125 c 128,-1,329
 663.779296875 779.263671875 663.779296875 779.263671875 676.9765625 766.064453125 c 0,330,331
 686.876953125 755.06640625 686.876953125 755.06640625 694.57421875 749.017578125 c 128,-1,332
 702.2734375 742.96875 702.2734375 742.96875 716.572265625 735.26953125 c 128,-1,333
 730.87109375 727.5703125 730.87109375 727.5703125 748.46875 725.37109375 c 0,334,335
 758.3671875 723.171875 758.3671875 723.171875 768.265625 723.171875 c 128,-1,336
 778.1640625 723.171875 778.1640625 723.171875 785.3125 724.271484375 c 128,-1,337
 792.4609375 725.37109375 792.4609375 725.37109375 799.611328125 728.12109375 c 128,-1,338
 806.759765625 730.87109375 806.759765625 730.87109375 810.609375 733.0703125 c 128,-1,339
 814.458984375 735.26953125 814.458984375 735.26953125 821.05859375 738.568359375 c 0,340,341
 829.857421875 742.96875 829.857421875 742.96875 833.70703125 744.619140625 c 128,-1,342
 837.556640625 746.267578125 837.556640625 746.267578125 844.705078125 746.818359375 c 128,-1,343
 851.853515625 747.3671875 851.853515625 747.3671875 860.65234375 744.068359375 c 0,344,345
 892.548828125 733.0703125 892.548828125 733.0703125 909.046875 708.873046875 c 0,229,230
66.560546875 512 m 2,346,-1
 66.560546875 529.59765625 l 2,347,348
 66.560546875 542.794921875 66.560546875 542.794921875 79.7578125 549.39453125 c 0,349,350
 92.95703125 554.89453125 92.95703125 554.89453125 113.853515625 572.4921875 c 0,351,352
 122.65234375 579.08984375 122.65234375 579.08984375 127.05078125 582.390625 c 128,-1,353
 131.451171875 585.689453125 131.451171875 585.689453125 140.25 589.5390625 c 128,-1,354
 149.048828125 593.388671875 149.048828125 593.388671875 158.947265625 594.48828125 c 0,355,356
 172.14453125 596.6875 172.14453125 596.6875 180.39453125 593.939453125 c 128,-1,357
 188.642578125 591.189453125 188.642578125 591.189453125 200.7421875 581.291015625 c 0,358,359
 211.740234375 573.591796875 211.740234375 573.591796875 218.888671875 569.19140625 c 128,-1,360
 226.0390625 564.79296875 226.0390625 564.79296875 241.435546875 560.392578125 c 128,-1,361
 256.833984375 555.994140625 256.833984375 555.994140625 273.33203125 557.09375 c 0,362,363
 290.9296875 558.193359375 290.9296875 558.193359375 306.328125 564.2421875 c 128,-1,364
 321.724609375 570.291015625 321.724609375 570.291015625 329.423828125 575.791015625 c 128,-1,365
 337.123046875 581.291015625 337.123046875 581.291015625 348.12109375 591.189453125 c 0,366,367
 356.919921875 599.98828125 356.919921875 599.98828125 361.3203125 603.287109375 c 128,-1,368
 365.71875 606.5859375 365.71875 606.5859375 374.517578125 610.435546875 c 128,-1,369
 383.31640625 614.28515625 383.31640625 614.28515625 393.21484375 614.8359375 c 128,-1,370
 403.115234375 615.384765625 403.115234375 615.384765625 410.8125 612.0859375 c 128,-1,371
 418.51171875 608.787109375 418.51171875 608.787109375 422.912109375 606.037109375 c 128,-1,372
 427.310546875 603.287109375 427.310546875 603.287109375 437.208984375 594.48828125 c 0,373,374
 448.208984375 584.58984375 448.208984375 584.58984375 455.357421875 579.640625 c 128,-1,375
 462.505859375 574.69140625 462.505859375 574.69140625 478.455078125 568.642578125 c 128,-1,376
 494.40234375 562.59375 494.40234375 562.59375 512 562.59375 c 1,377,-1
 512 562.59375 l 1,378,379
 530.697265625 563.693359375 530.697265625 563.693359375 546.095703125 569.19140625 c 128,-1,380
 561.4921875 574.69140625 561.4921875 574.69140625 569.19140625 580.19140625 c 128,-1,381
 576.890625 585.689453125 576.890625 585.689453125 587.888671875 594.48828125 c 0,382,383
 596.6875 603.287109375 596.6875 603.287109375 601.087890625 606.037109375 c 128,-1,384
 605.486328125 608.787109375 605.486328125 608.787109375 613.736328125 612.0859375 c 128,-1,385
 621.984375 615.384765625 621.984375 615.384765625 631.8828125 614.28515625 c 0,386,387
 641.78125 614.28515625 641.78125 614.28515625 650.03125 610.435546875 c 128,-1,388
 658.279296875 606.5859375 658.279296875 606.5859375 663.228515625 603.287109375 c 128,-1,389
 668.177734375 599.98828125 668.177734375 599.98828125 676.9765625 591.189453125 c 0,390,391
 687.9765625 581.291015625 687.9765625 581.291015625 695.125 575.791015625 c 128,-1,392
 702.2734375 570.291015625 702.2734375 570.291015625 717.671875 564.2421875 c 128,-1,393
 733.0703125 558.193359375 733.0703125 558.193359375 750.66796875 557.09375 c 256,394,395
 768.265625 555.994140625 768.265625 555.994140625 783.662109375 560.392578125 c 128,-1,396
 799.060546875 564.79296875 799.060546875 564.79296875 806.2109375 569.19140625 c 128,-1,397
 813.359375 573.591796875 813.359375 573.591796875 823.2578125 581.291015625 c 0,398,399
 828.7578125 584.58984375 828.7578125 584.58984375 830.40625 586.240234375 c 128,-1,400
 832.056640625 587.888671875 832.056640625 587.888671875 835.90625 590.08984375 c 128,-1,401
 839.755859375 592.2890625 839.755859375 592.2890625 841.955078125 592.837890625 c 128,-1,402
 844.154296875 593.388671875 844.154296875 593.388671875 848.5546875 595.0390625 c 128,-1,403
 852.953125 596.6875 852.953125 596.6875 855.703125 595.587890625 c 128,-1,404
 858.453125 594.48828125 858.453125 594.48828125 865.052734375 594.48828125 c 0,405,406
 874.951171875 593.388671875 874.951171875 593.388671875 883.75 589.5390625 c 128,-1,407
 892.548828125 585.689453125 892.548828125 585.689453125 896.3984375 582.390625 c 128,-1,408
 900.248046875 579.08984375 900.248046875 579.08984375 909.046875 571.392578125 c 0,409,410
 927.744140625 555.994140625 927.744140625 555.994140625 944.2421875 548.294921875 c 0,411,412
 957.439453125 542.794921875 957.439453125 542.794921875 957.439453125 528.498046875 c 2,413,-1
 957.439453125 512 l 2,414,415
 957.439453125 487.802734375 957.439453125 487.802734375 955.240234375 463.60546875 c 0,416,417
 954.140625 457.0078125 954.140625 457.0078125 948.091796875 454.2578125 c 128,-1,418
 942.041015625 451.5078125 942.041015625 451.5078125 936.54296875 454.806640625 c 0,419,420
 925.54296875 461.40625 925.54296875 461.40625 918.9453125 464.705078125 c 128,-1,421
 912.345703125 468.005859375 912.345703125 468.005859375 897.498046875 471.3046875 c 128,-1,422
 882.650390625 474.60546875 882.650390625 474.60546875 867.251953125 473.50390625 c 0,423,424
 849.654296875 472.404296875 849.654296875 472.404296875 834.806640625 466.35546875 c 128,-1,425
 819.958984375 460.306640625 819.958984375 460.306640625 812.259765625 454.806640625 c 128,-1,426
 804.560546875 449.30859375 804.560546875 449.30859375 794.662109375 439.41015625 c 0,427,428
 785.86328125 431.7109375 785.86328125 431.7109375 781.462890625 427.861328125 c 128,-1,429
 777.064453125 424.01171875 777.064453125 424.01171875 768.265625 420.712890625 c 128,-1,430
 759.466796875 417.412109375 759.466796875 417.412109375 749.568359375 416.3125 c 256,431,432
 739.669921875 415.212890625 739.669921875 415.212890625 731.970703125 417.412109375 c 128,-1,433
 724.271484375 419.611328125 724.271484375 419.611328125 719.87109375 422.912109375 c 128,-1,434
 715.47265625 426.2109375 715.47265625 426.2109375 706.673828125 432.810546875 c 0,435,436
 695.67578125 441.609375 695.67578125 441.609375 688.525390625 447.107421875 c 128,-1,437
 681.376953125 452.607421875 681.376953125 452.607421875 665.978515625 457.556640625 c 128,-1,438
 650.580078125 462.505859375 650.580078125 462.505859375 632.982421875 462.505859375 c 0,439,440
 614.28515625 461.40625 614.28515625 461.40625 598.888671875 455.357421875 c 128,-1,441
 583.490234375 449.30859375 583.490234375 449.30859375 575.791015625 443.80859375 c 128,-1,442
 568.091796875 438.30859375 568.091796875 438.30859375 557.09375 427.310546875 c 0,443,444
 548.294921875 419.611328125 548.294921875 419.611328125 543.345703125 416.3125 c 128,-1,445
 538.396484375 413.013671875 538.396484375 413.013671875 530.697265625 409.712890625 c 128,-1,446
 522.998046875 406.4140625 522.998046875 406.4140625 512 406.4140625 c 0,447,448
 502.1015625 406.4140625 502.1015625 406.4140625 493.8515625 409.712890625 c 128,-1,449
 485.603515625 413.013671875 485.603515625 413.013671875 481.203125 416.3125 c 128,-1,450
 476.8046875 419.611328125 476.8046875 419.611328125 466.90625 427.310546875 c 0,451,452
 457.0078125 438.30859375 457.0078125 438.30859375 449.30859375 443.80859375 c 128,-1,453
 441.609375 449.30859375 441.609375 449.30859375 426.2109375 455.357421875 c 128,-1,454
 410.8125 461.40625 410.8125 461.40625 392.115234375 462.505859375 c 0,455,456
 374.517578125 462.505859375 374.517578125 462.505859375 359.12109375 457.556640625 c 128,-1,457
 343.72265625 452.607421875 343.72265625 452.607421875 336.57421875 447.658203125 c 128,-1,458
 329.423828125 442.708984375 329.423828125 442.708984375 317.326171875 432.810546875 c 0,459,460
 308.52734375 425.111328125 308.52734375 425.111328125 304.126953125 422.361328125 c 128,-1,461
 299.728515625 419.611328125 299.728515625 419.611328125 292.029296875 417.412109375 c 128,-1,462
 284.330078125 415.212890625 284.330078125 415.212890625 275.53125 416.3125 c 0,463,464
 260.1328125 417.412109375 260.1328125 417.412109375 251.333984375 422.912109375 c 128,-1,465
 242.53515625 428.41015625 242.53515625 428.41015625 229.337890625 439.41015625 c 0,466,467
 219.439453125 449.30859375 219.439453125 449.30859375 211.740234375 454.806640625 c 128,-1,468
 204.041015625 460.306640625 204.041015625 460.306640625 189.193359375 466.35546875 c 128,-1,469
 174.345703125 472.404296875 174.345703125 472.404296875 156.748046875 473.50390625 c 0,470,471
 141.349609375 474.60546875 141.349609375 474.60546875 126.501953125 471.3046875 c 128,-1,472
 111.654296875 468.005859375 111.654296875 468.005859375 104.50390625 464.15625 c 128,-1,473
 97.35546875 460.306640625 97.35546875 460.306640625 87.45703125 454.806640625 c 0,474,475
 81.95703125 450.408203125 81.95703125 450.408203125 75.908203125 453.70703125 c 128,-1,476
 69.859375 457.0078125 69.859375 457.0078125 68.759765625 463.60546875 c 0,477,478
 66.560546875 495.501953125 66.560546875 495.501953125 66.560546875 512 c 2,346,-1
EndSplineSet
EndChar

StartChar: uniE00B
Encoding: 57355 57355 13
Width: 1024
VWidth: 1024
GlyphClass: 2
Flags: HW
LayerCount: 2
Fore
SplineSet
145.752929688 420.649414062 m 0,0,1
 131.45703125 370.065429688 131.45703125 370.065429688 125.958984375 327.178710938 c 0,2,3
 124.859375 319.481445312 124.859375 319.481445312 118.26171875 318.931640625 c 128,-1,4
 111.663085938 318.381835938 111.663085938 318.381835938 108.364257812 323.879882812 c 0,5,6
 66.5771484375 414.051757812 66.5771484375 414.051757812 66.5771484375 513.020507812 c 0,7,8
 66.5771484375 615.2890625 66.5771484375 615.2890625 109.463867188 704.911132812 c 128,-1,9
 152.350585938 794.533203125 152.350585938 794.533203125 227.127929688 857.213867188 c 0,10,11
 234.825195312 862.711914062 234.825195312 862.711914062 244.721679688 863.811523438 c 128,-1,12
 254.619140625 864.911132812 254.619140625 864.911132812 263.416015625 860.512695312 c 0,13,14
 332.694335938 820.924804688 332.694335938 820.924804688 384.37890625 761.543945312 c 1,15,16
 297.505859375 691.166015625 297.505859375 691.166015625 236.474609375 603.743164062 c 128,-1,17
 175.443359375 516.3203125 175.443359375 516.3203125 145.752929688 420.649414062 c 0,0,1
487.74609375 522.91796875 m 1,18,19
 411.870117188 466.834960938 411.870117188 466.834960938 362.385742188 387.110351562 c 128,-1,20
 312.900390625 307.384765625 312.900390625 307.384765625 296.40625 213.9140625 c 0,21,22
 290.907226562 184.223632812 290.907226562 184.223632812 289.807617188 158.930664062 c 0,23,24
 289.807617188 147.934570312 289.807617188 147.934570312 279.911132812 142.986328125 c 128,-1,25
 270.014648438 138.038085938 270.014648438 138.038085938 261.216796875 144.635742188 c 0,26,27
 221.62890625 172.126953125 221.62890625 172.126953125 188.639648438 207.31640625 c 0,28,29
 169.9453125 226.010742188 169.9453125 226.010742188 169.9453125 252.40234375 c 0,30,31
 166.646484375 328.278320312 166.646484375 328.278320312 190.838867188 406.354492188 c 0,32,33
 218.330078125 495.426757812 218.330078125 495.426757812 275.512695312 576.80078125 c 128,-1,34
 332.694335938 658.17578125 332.694335938 658.17578125 412.969726562 723.055664062 c 1,35,36
 474.55078125 632.883789062 474.55078125 632.883789062 487.74609375 522.91796875 c 1,18,19
533.931640625 529.515625 m 1,37,-1
 533.931640625 529.515625 l 1,38,39
 521.8359375 639.481445312 521.8359375 639.481445312 464.103515625 731.302734375 c 128,-1,40
 406.372070312 823.125 406.372070312 823.125 317.299804688 882.505859375 c 0,41,42
 308.501953125 888.00390625 308.501953125 888.00390625 309.051757812 899.000976562 c 128,-1,43
 309.6015625 909.997070312 309.6015625 909.997070312 319.499023438 914.396484375 c 0,44,45
 361.286132812 936.389648438 361.286132812 936.389648438 410.770507812 947.385742188 c 0,46,47
 438.26171875 953.983398438 438.26171875 953.983398438 462.454101562 940.788085938 c 0,48,49
 568.021484375 879.20703125 568.021484375 879.20703125 643.34765625 760.994140625 c 128,-1,50
 718.674804688 642.780273438 718.674804688 642.780273438 743.966796875 493.227539062 c 1,51,52
 635.100585938 485.529296875 635.100585938 485.529296875 533.931640625 529.515625 c 1,37,-1
639.499023438 227.110351562 m 1,53,-1
 639.499023438 227.110351562 l 1,54,55
 709.876953125 227.110351562 709.876953125 227.110351562 771.458007812 240.305664062 c 0,56,57
 823.142578125 251.302734375 823.142578125 251.302734375 866.028320312 268.896484375 c 0,58,59
 872.626953125 272.196289062 872.626953125 272.196289062 877.025390625 266.147460938 c 128,-1,60
 881.423828125 260.099609375 881.423828125 260.099609375 877.025390625 254.6015625 c 0,61,62
 815.444335938 167.728515625 815.444335938 167.728515625 719.774414062 117.14453125 c 128,-1,63
 624.104492188 66.5595703125 624.104492188 66.5595703125 513.038085938 66.5595703125 c 0,64,65
 430.564453125 66.5595703125 430.564453125 66.5595703125 356.88671875 94.0517578125 c 0,66,67
 346.990234375 97.3505859375 346.990234375 97.3505859375 341.4921875 106.147460938 c 128,-1,68
 335.993164062 114.9453125 335.993164062 114.9453125 335.993164062 124.841796875 c 0,69,70
 334.893554688 164.4296875 334.893554688 164.4296875 342.591796875 205.1171875 c 0,71,72
 348.08984375 241.405273438 348.08984375 241.405273438 363.485351562 282.092773438 c 1,73,74
 506.440429688 227.110351562 506.440429688 227.110351562 639.499023438 227.110351562 c 1,53,-1
790.15234375 499.825195312 m 1,75,-1
 790.15234375 498.725585938 l 1,76,77
 767.059570312 638.381835938 767.059570312 638.381835938 701.629882812 753.295898438 c 128,-1,78
 636.200195312 868.2109375 636.200195312 868.2109375 542.729492188 940.788085938 c 0,79,80
 537.231445312 945.186523438 537.231445312 945.186523438 539.98046875 951.784179688 c 128,-1,81
 542.729492188 958.3828125 542.729492188 958.3828125 549.327148438 957.283203125 c 0,82,83
 650.49609375 949.584960938 650.49609375 949.584960938 736.819335938 899.000976562 c 128,-1,84
 823.142578125 848.416992188 823.142578125 848.416992188 879.774414062 767.041992188 c 128,-1,85
 936.407226562 685.666992188 936.407226562 685.666992188 952.901367188 587.797851562 c 0,86,87
 954.000976562 577.900390625 954.000976562 577.900390625 949.602539062 568.553710938 c 128,-1,88
 945.204101562 559.20703125 945.204101562 559.20703125 937.506835938 553.708007812 c 0,89,90
 867.127929688 513.020507812 867.127929688 513.020507812 790.15234375 499.825195312 c 1,75,-1
709.876953125 444.841796875 m 1,91,-1
 709.876953125 444.841796875 l 1,92,93
 825.341796875 444.841796875 825.341796875 444.841796875 930.908203125 496.526367188 c 0,94,95
 940.805664062 502.024414062 940.805664062 502.024414062 949.602539062 495.9765625 c 128,-1,96
 958.400390625 489.927734375 958.400390625 489.927734375 957.30078125 478.931640625 c 0,97,98
 954.000976562 431.646484375 954.000976562 431.646484375 939.706054688 382.162109375 c 0,99,100
 930.908203125 355.76953125 930.908203125 355.76953125 907.815429688 342.57421875 c 0,101,102
 844.03515625 304.0859375 844.03515625 304.0859375 761.561523438 286.491210938 c 0,103,104
 671.389648438 266.697265625 671.389648438 266.697265625 574.069335938 277.14453125 c 128,-1,105
 476.75 287.590820312 476.75 287.590820312 381.080078125 324.979492188 c 1,106,107
 428.365234375 421.749023438 428.365234375 421.749023438 515.23828125 486.62890625 c 1,108,109
 610.908203125 444.841796875 610.908203125 444.841796875 709.876953125 444.841796875 c 1,91,-1
EndSplineSet
EndChar

StartChar: uniE00C
Encoding: 57356 57356 14
Width: 1024
VWidth: 1024
GlyphClass: 2
Flags: HW
LayerCount: 2
Fore
SplineSet
636.126953125 321.96484375 m 1,0,-1
 582.301757812 211.018554688 l 1,1,-1
 441.697265625 211.018554688 l 1,2,-1
 387.873046875 321.96484375 l 1,3,-1
 512 394.463867188 l 1,4,-1
 636.126953125 321.96484375 l 1,0,-1
684.459960938 315.374023438 m 1,5,-1
 684.459960938 315.374023438 l 1,6,-1
 821.768554688 395.561523438 l 1,7,-1
 895.366210938 352.721679688 l 2,8,9
 906.350585938 346.130859375 906.350585938 346.130859375 910.1953125 333.498046875 c 128,-1,10
 914.040039062 320.866210938 914.040039062 320.866210938 907.44921875 309.880859375 c 0,11,12
 855.821289062 207.723632812 855.821289062 207.723632812 761.352539062 142.9140625 c 0,13,14
 743.77734375 131.928710938 743.77734375 131.928710938 726.201171875 141.815429688 c 2,15,-1
 627.338867188 197.836914062 l 1,16,-1
 684.459960938 315.374023438 l 1,5,-1
910.744140625 627.338867188 m 1,17,-1
 910.744140625 626.240234375 l 1,18,19
 920.630859375 632.831054688 920.630859375 632.831054688 931.615234375 628.4375 c 128,-1,20
 942.599609375 624.043945312 942.599609375 624.043945312 945.895507812 611.9609375 c 0,21,22
 968.962890625 512 968.962890625 512 945.895507812 412.0390625 c 0,23,24
 942.599609375 401.0546875 942.599609375 401.0546875 931.615234375 396.111328125 c 128,-1,25
 920.630859375 391.16796875 920.630859375 391.16796875 910.744140625 397.758789062 c 2,26,-1
 844.8359375 435.106445312 l 1,27,-1
 844.8359375 588.892578125 l 1,28,-1
 910.744140625 627.338867188 l 1,17,-1
821.768554688 629.536132812 m 1,29,-1
 821.768554688 629.536132812 l 1,30,-1
 684.459960938 709.724609375 l 1,31,-1
 627.338867188 827.260742188 l 1,32,-1
 726.201171875 882.184570312 l 2,33,34
 744.875 892.0703125 744.875 892.0703125 761.352539062 881.0859375 c 0,35,36
 856.918945312 816.276367188 856.918945312 816.276367188 908.547851562 714.118164062 c 0,37,38
 914.040039062 703.133789062 914.040039062 703.133789062 910.1953125 690.500976562 c 128,-1,39
 906.350585938 677.869140625 906.350585938 677.869140625 895.366210938 671.278320312 c 2,40,-1
 821.768554688 629.536132812 l 1,29,-1
178.064453125 588.892578125 m 1,41,-1
 178.064453125 436.205078125 l 1,42,-1
 112.15625 397.758789062 l 2,43,44
 102.270507812 392.266601562 102.270507812 392.266601562 91.2861328125 396.66015625 c 128,-1,45
 80.30078125 401.0546875 80.30078125 401.0546875 78.1044921875 413.137695312 c 0,46,47
 55.0361328125 513.098632812 55.0361328125 513.098632812 78.1044921875 611.9609375 c 0,48,49
 80.30078125 622.9453125 80.30078125 622.9453125 91.2861328125 627.888671875 c 128,-1,50
 102.270507812 632.831054688 102.270507812 632.831054688 112.15625 626.240234375 c 2,51,-1
 178.064453125 588.892578125 l 1,41,-1
535.067382812 588.892578125 m 1,52,-1
 666.883789062 664.6875 l 1,53,-1
 798.700195312 588.892578125 l 1,54,-1
 798.700195312 435.106445312 l 1,55,-1
 666.883789062 359.3125 l 1,56,-1
 535.067382812 435.106445312 l 1,57,-1
 535.067382812 588.892578125 l 1,52,-1
338.44140625 708.625976562 m 1,58,-1
 339.540039062 708.625976562 l 1,59,-1
 202.231445312 629.536132812 l 1,60,-1
 128.633789062 671.278320312 l 2,61,62
 117.649414062 677.869140625 117.649414062 677.869140625 113.8046875 690.500976562 c 128,-1,63
 109.959960938 703.133789062 109.959960938 703.133789062 115.452148438 714.118164062 c 0,64,65
 167.080078125 816.276367188 167.080078125 816.276367188 262.647460938 881.0859375 c 0,66,67
 279.124023438 892.0703125 279.124023438 892.0703125 296.69921875 882.184570312 c 2,68,-1
 396.66015625 826.162109375 l 1,69,-1
 338.44140625 708.625976562 l 1,58,-1
512 629.536132812 m 1,70,-1
 387.873046875 702.03515625 l 1,71,-1
 441.697265625 812.98046875 l 1,72,-1
 582.301757812 812.98046875 l 1,73,-1
 636.126953125 702.03515625 l 1,74,-1
 512 629.536132812 l 1,70,-1
201.1328125 394.463867188 m 1,75,-1
 338.44140625 315.374023438 l 1,76,-1
 395.561523438 197.836914062 l 1,77,-1
 297.797851562 142.9140625 l 2,78,79
 279.124023438 131.928710938 279.124023438 131.928710938 262.647460938 142.9140625 c 0,80,81
 167.080078125 207.723632812 167.080078125 207.723632812 115.452148438 309.880859375 c 0,82,83
 109.959960938 320.866210938 109.959960938 320.866210938 113.8046875 333.498046875 c 128,-1,84
 117.649414062 346.130859375 117.649414062 346.130859375 128.633789062 352.721679688 c 2,85,-1
 201.1328125 394.463867188 l 1,75,-1
357.115234375 664.6875 m 1,86,-1
 488.931640625 588.892578125 l 1,87,-1
 488.931640625 435.106445312 l 1,88,-1
 357.115234375 359.3125 l 1,89,-1
 224.200195312 435.106445312 l 1,90,-1
 224.200195312 588.892578125 l 1,91,-1
 357.115234375 664.6875 l 1,86,-1
431.811523438 164.8828125 m 1,92,-1
 591.08984375 164.8828125 l 1,93,-1
 669.081054688 119.845703125 l 2,94,95
 676.770507812 116.55078125 676.770507812 116.55078125 676.220703125 107.213867188 c 128,-1,96
 675.671875 97.876953125 675.671875 97.876953125 667.982421875 94.5810546875 c 0,97,98
 591.08984375 66.0205078125 591.08984375 66.0205078125 511.450195312 66.5703125 c 128,-1,99
 431.811523438 67.119140625 431.811523438 67.119140625 356.016601562 94.5810546875 c 0,100,101
 348.328125 97.876953125 348.328125 97.876953125 347.778320312 106.6640625 c 128,-1,102
 347.229492188 115.452148438 347.229492188 115.452148438 354.918945312 119.845703125 c 2,103,-1
 431.811523438 164.8828125 l 1,92,-1
591.08984375 860.21484375 m 1,104,-1
 432.91015625 860.21484375 l 1,105,-1
 354.918945312 904.153320312 l 2,106,107
 347.229492188 908.547851562 347.229492188 908.547851562 347.778320312 917.334960938 c 128,-1,108
 348.328125 926.123046875 348.328125 926.123046875 356.016601562 929.41796875 c 0,109,110
 432.91015625 957.978515625 432.91015625 957.978515625 513.098632812 957.4296875 c 128,-1,111
 593.286132812 956.879882812 593.286132812 956.879882812 667.982421875 929.41796875 c 0,112,113
 676.770507812 926.123046875 676.770507812 926.123046875 677.319335938 917.334960938 c 128,-1,114
 677.869140625 908.547851562 677.869140625 908.547851562 670.1796875 904.153320312 c 2,115,-1
 591.08984375 860.21484375 l 1,104,-1
EndSplineSet
EndChar

StartChar: uniE00D
Encoding: 57357 57357 15
Width: 1024
VWidth: 1024
GlyphClass: 2
Flags: HW
LayerCount: 2
Fore
SplineSet
897.799804688 820.859375 m 2,0,1
 897.799804688 827.454101562 897.799804688 827.454101562 904.944335938 829.65234375 c 128,-1,2
 912.088867188 831.850585938 912.088867188 831.850585938 915.385742188 825.255859375 c 0,3,4
 948.360351562 770.298828125 948.360351562 770.298828125 955.504882812 698.3046875 c 128,-1,5
 962.649414062 626.310546875 962.649414062 626.310546875 943.4140625 551.568359375 c 128,-1,6
 924.178710938 476.827148438 924.178710938 476.827148438 879.114257812 399.336914062 c 128,-1,7
 834.048828125 321.84765625 834.048828125 321.84765625 768.100585938 255.8984375 c 128,-1,8
 702.151367188 189.950195312 702.151367188 189.950195312 624.662109375 144.884765625 c 128,-1,9
 547.171875 99.8203125 547.171875 99.8203125 471.880859375 80.5849609375 c 128,-1,10
 396.58984375 61.3505859375 396.58984375 61.3505859375 325.14453125 68.494140625 c 128,-1,11
 253.700195312 75.638671875 253.700195312 75.638671875 197.64453125 108.61328125 c 0,12,13
 192.1484375 111.911132812 192.1484375 111.911132812 194.346679688 119.055664062 c 128,-1,14
 196.544921875 126.19921875 196.544921875 126.19921875 203.139648438 125.100585938 c 0,15,16
 277.881835938 121.802734375 277.881835938 121.802734375 398.788085938 192.1484375 c 128,-1,17
 519.693359375 262.494140625 519.693359375 262.494140625 640.599609375 382.849609375 c 128,-1,18
 761.505859375 503.206054688 761.505859375 503.206054688 831.850585938 624.112304688 c 128,-1,19
 902.196289062 745.018554688 902.196289062 745.018554688 897.799804688 819.759765625 c 1,20,-1
 897.799804688 820.859375 l 2,0,1
826.35546875 915.385742188 m 0,21,22
 831.850585938 910.989257812 831.850585938 910.989257812 830.202148438 904.39453125 c 128,-1,23
 828.553710938 897.799804688 828.553710938 897.799804688 820.859375 897.799804688 c 0,24,25
 765.90234375 901.096679688 765.90234375 901.096679688 682.3671875 861.52734375 c 128,-1,26
 598.83203125 821.958984375 598.83203125 821.958984375 506.50390625 749.415039062 c 1,27,-1
 502.107421875 753.811523438 l 2,28,29
 495.512695312 760.40625 495.512695312 760.40625 485.620117188 760.40625 c 128,-1,30
 475.727539062 760.40625 475.727539062 760.40625 469.1328125 753.26171875 c 128,-1,31
 462.538085938 746.1171875 462.538085938 746.1171875 462.538085938 736.774414062 c 128,-1,32
 462.538085938 727.431640625 462.538085938 727.431640625 469.1328125 719.73828125 c 2,33,-1
 518.594726562 670.276367188 l 2,34,35
 525.189453125 663.681640625 525.189453125 663.681640625 535.08203125 663.681640625 c 128,-1,36
 544.973632812 663.681640625 544.973632812 663.681640625 552.118164062 670.826171875 c 128,-1,37
 559.262695312 677.970703125 559.262695312 677.970703125 559.262695312 687.313476562 c 128,-1,38
 559.262695312 696.65625 559.262695312 696.65625 551.568359375 704.349609375 c 2,39,-1
 540.577148438 715.341796875 l 1,40,41
 585.642578125 751.61328125 585.642578125 751.61328125 629.608398438 778.541992188 c 128,-1,42
 673.57421875 805.471679688 673.57421875 805.471679688 708.197265625 820.859375 c 128,-1,43
 742.8203125 836.247070312 742.8203125 836.247070312 771.397460938 843.94140625 c 128,-1,44
 799.975585938 851.635742188 799.975585938 851.635742188 818.111328125 851.0859375 c 128,-1,45
 836.247070312 850.536132812 836.247070312 850.536132812 843.94140625 842.841796875 c 0,46,47
 851.635742188 834.048828125 851.635742188 834.048828125 852.184570312 814.264648438 c 128,-1,48
 852.734375 794.479492188 852.734375 794.479492188 845.041015625 765.352539062 c 128,-1,49
 837.346679688 736.225585938 837.346679688 736.225585938 818.111328125 697.205078125 c 128,-1,50
 798.875976562 658.185546875 798.875976562 658.185546875 771.397460938 614.76953125 c 128,-1,51
 743.918945312 571.353515625 743.918945312 571.353515625 701.602539062 519.693359375 c 128,-1,52
 659.28515625 468.034179688 659.28515625 468.034179688 607.625 416.374023438 c 128,-1,53
 555.965820312 364.713867188 555.965820312 364.713867188 504.305664062 322.397460938 c 128,-1,54
 452.645507812 280.080078125 452.645507812 280.080078125 409.229492188 252.6015625 c 128,-1,55
 365.813476562 225.123046875 365.813476562 225.123046875 326.793945312 205.887695312 c 128,-1,56
 287.774414062 186.65234375 287.774414062 186.65234375 258.646484375 178.958984375 c 128,-1,57
 229.51953125 171.264648438 229.51953125 171.264648438 209.734375 171.814453125 c 128,-1,58
 189.950195312 172.36328125 189.950195312 172.36328125 181.157226562 180.057617188 c 0,59,60
 173.462890625 188.850585938 173.462890625 188.850585938 172.913085938 206.987304688 c 128,-1,61
 172.36328125 225.123046875 172.36328125 225.123046875 180.057617188 253.700195312 c 128,-1,62
 187.751953125 282.278320312 187.751953125 282.278320312 203.139648438 316.3515625 c 128,-1,63
 218.528320312 350.424804688 218.528320312 350.424804688 246.006835938 394.390625 c 128,-1,64
 273.485351562 438.356445312 273.485351562 438.356445312 308.658203125 483.421875 c 1,65,-1
 320.748046875 472.430664062 l 2,66,67
 327.342773438 465.8359375 327.342773438 465.8359375 336.685546875 465.286132812 c 128,-1,68
 346.028320312 464.736328125 346.028320312 464.736328125 353.172851562 471.880859375 c 128,-1,69
 360.317382812 479.025390625 360.317382812 479.025390625 360.317382812 488.91796875 c 128,-1,70
 360.317382812 498.809570312 360.317382812 498.809570312 353.72265625 505.404296875 c 2,71,-1
 304.260742188 554.866210938 l 2,72,73
 296.567382812 562.560546875 296.567382812 562.560546875 287.224609375 562.560546875 c 128,-1,74
 277.881835938 562.560546875 277.881835938 562.560546875 270.737304688 555.416015625 c 128,-1,75
 263.592773438 548.271484375 263.592773438 548.271484375 263.592773438 538.37890625 c 128,-1,76
 263.592773438 528.486328125 263.592773438 528.486328125 270.1875 521.891601562 c 2,77,-1
 274.583984375 517.495117188 l 1,78,79
 202.041015625 425.166992188 202.041015625 425.166992188 162.471679688 342.181640625 c 128,-1,80
 122.90234375 259.196289062 122.90234375 259.196289062 126.19921875 203.139648438 c 0,81,82
 126.19921875 196.544921875 126.19921875 196.544921875 119.604492188 194.346679688 c 128,-1,83
 113.009765625 192.1484375 113.009765625 192.1484375 108.61328125 198.743164062 c 0,84,85
 75.638671875 253.700195312 75.638671875 253.700195312 68.494140625 325.694335938 c 128,-1,86
 61.3505859375 397.688476562 61.3505859375 397.688476562 80.5849609375 472.430664062 c 128,-1,87
 99.8203125 547.171875 99.8203125 547.171875 144.3359375 624.662109375 c 128,-1,88
 188.850585938 702.151367188 188.850585938 702.151367188 255.349609375 768.100585938 c 128,-1,89
 321.84765625 834.048828125 321.84765625 834.048828125 399.336914062 879.114257812 c 128,-1,90
 476.827148438 924.178710938 476.827148438 924.178710938 552.118164062 943.4140625 c 128,-1,91
 627.41015625 962.649414062 627.41015625 962.649414062 698.854492188 955.504882812 c 128,-1,92
 770.298828125 948.360351562 770.298828125 948.360351562 826.35546875 915.385742188 c 0,21,22
360.317382812 630.70703125 m 2,93,94
 353.72265625 637.301757812 353.72265625 637.301757812 343.830078125 637.301757812 c 128,-1,95
 333.938476562 637.301757812 333.938476562 637.301757812 327.342773438 630.157226562 c 128,-1,96
 320.748046875 623.013671875 320.748046875 623.013671875 320.748046875 613.670898438 c 128,-1,97
 320.748046875 604.328125 320.748046875 604.328125 327.342773438 596.633789062 c 2,98,-1
 376.8046875 547.171875 l 2,99,100
 384.499023438 540.577148438 384.499023438 540.577148438 393.841796875 540.577148438 c 128,-1,101
 403.184570312 540.577148438 403.184570312 540.577148438 410.329101562 547.171875 c 128,-1,102
 417.47265625 553.767578125 417.47265625 553.767578125 417.47265625 563.659179688 c 128,-1,103
 417.47265625 573.551757812 417.47265625 573.551757812 410.877929688 580.146484375 c 2,104,-1
 360.317382812 630.70703125 l 2,93,94
426.266601562 696.65625 m 2,105,106
 419.671875 703.250976562 419.671875 703.250976562 410.329101562 703.250976562 c 128,-1,107
 400.986328125 703.250976562 400.986328125 703.250976562 393.841796875 696.106445312 c 128,-1,108
 386.697265625 688.961914062 386.697265625 688.961914062 386.697265625 679.619140625 c 128,-1,109
 386.697265625 670.276367188 386.697265625 670.276367188 393.291992188 662.58203125 c 2,110,-1
 442.75390625 613.12109375 l 2,111,112
 450.447265625 606.526367188 450.447265625 606.526367188 459.790039062 606.526367188 c 128,-1,113
 469.1328125 606.526367188 469.1328125 606.526367188 476.27734375 613.670898438 c 128,-1,114
 483.421875 620.815429688 483.421875 620.815429688 483.421875 630.157226562 c 128,-1,115
 483.421875 639.5 483.421875 639.5 476.827148438 646.095703125 c 2,116,-1
 426.266601562 696.65625 l 2,105,106
EndSplineSet
EndChar

StartChar: uniE00E
Encoding: 57358 57358 16
Width: 1024
VWidth: 1024
GlyphClass: 2
Flags: HW
LayerCount: 2
Fore
SplineSet
472.560546875 459.798828125 m 1,0,1
 477.19921875 457.48046875 477.19921875 457.48046875 494.599609375 450.51953125 c 128,-1,2
 512 443.560546875 512 443.560546875 526.5 437.1796875 c 128,-1,3
 541 430.798828125 541 430.798828125 542.16015625 430.798828125 c 1,4,-1
 466.759765625 319.439453125 l 2,5,6
 462.119140625 313.638671875 462.119140625 313.638671875 462.119140625 302.0390625 c 2,7,-1
 462.119140625 289.279296875 l 1,8,-1
 348.439453125 289.279296875 l 1,9,10
 447.0390625 369.3203125 447.0390625 369.3203125 472.560546875 459.798828125 c 1,0,1
957.439453125 759.080078125 m 2,11,-1
 957.439453125 264.919921875 l 2,12,13
 957.439453125 210.400390625 957.439453125 210.400390625 930.759765625 165.16015625 c 128,-1,14
 904.080078125 119.919921875 904.080078125 119.919921875 858.83984375 93.240234375 c 128,-1,15
 813.599609375 66.560546875 813.599609375 66.560546875 759.080078125 66.560546875 c 2,16,-1
 264.919921875 66.560546875 l 2,17,18
 210.400390625 66.560546875 210.400390625 66.560546875 165.16015625 93.240234375 c 128,-1,19
 119.919921875 119.919921875 119.919921875 119.919921875 93.240234375 165.16015625 c 128,-1,20
 66.560546875 210.400390625 66.560546875 210.400390625 66.560546875 264.919921875 c 2,21,-1
 66.560546875 759.080078125 l 2,22,23
 66.560546875 813.599609375 66.560546875 813.599609375 93.240234375 858.83984375 c 128,-1,24
 119.919921875 904.080078125 119.919921875 904.080078125 165.16015625 930.759765625 c 128,-1,25
 210.400390625 957.439453125 210.400390625 957.439453125 264.919921875 957.439453125 c 2,26,-1
 759.080078125 957.439453125 l 2,27,28
 813.599609375 957.439453125 813.599609375 957.439453125 858.83984375 930.759765625 c 128,-1,29
 904.080078125 904.080078125 904.080078125 904.080078125 930.759765625 858.83984375 c 128,-1,30
 957.439453125 813.599609375 957.439453125 813.599609375 957.439453125 759.080078125 c 2,11,-1
487.638671875 734.71875 m 128,-1,32
 487.638671875 703.400390625 487.638671875 703.400390625 509.099609375 681.939453125 c 128,-1,33
 530.560546875 660.48046875 530.560546875 660.48046875 561.298828125 660.48046875 c 128,-1,34
 592.0390625 660.48046875 592.0390625 660.48046875 614.080078125 681.939453125 c 128,-1,35
 636.119140625 703.400390625 636.119140625 703.400390625 636.119140625 734.71875 c 128,-1,36
 636.119140625 766.0390625 636.119140625 766.0390625 614.080078125 787.5 c 128,-1,37
 592.0390625 808.958984375 592.0390625 808.958984375 561.298828125 808.958984375 c 128,-1,38
 530.560546875 808.958984375 530.560546875 808.958984375 509.099609375 787.5 c 128,-1,31
 487.638671875 766.0390625 487.638671875 766.0390625 487.638671875 734.71875 c 128,-1,32
259.119140625 392.51953125 m 1,39,40
 273.0390625 385.560546875 273.0390625 385.560546875 287.5390625 389.0390625 c 128,-1,41
 302.0390625 392.51953125 302.0390625 392.51953125 309 406.439453125 c 2,42,-1
 378.599609375 524.759765625 l 2,43,44
 385.560546875 538.6796875 385.560546875 538.6796875 382.080078125 553.1796875 c 128,-1,45
 378.599609375 567.6796875 378.599609375 567.6796875 364.6796875 575.798828125 c 1,46,-1
 391.359375 619.87890625 l 2,47,48
 399.48046875 633.798828125 399.48046875 633.798828125 395.419921875 648.87890625 c 128,-1,49
 391.359375 663.958984375 391.359375 663.958984375 377.439453125 670.919921875 c 0,50,51
 373.958984375 673.240234375 373.958984375 673.240234375 367 674.400390625 c 1,52,-1
 460.958984375 839.119140625 l 2,53,54
 464.439453125 843.759765625 464.439453125 843.759765625 462.69921875 848.400390625 c 128,-1,55
 460.958984375 853.0390625 460.958984375 853.0390625 456.900390625 855.939453125 c 128,-1,56
 452.83984375 858.83984375 452.83984375 858.83984375 447.619140625 857.6796875 c 128,-1,57
 442.400390625 856.51953125 442.400390625 856.51953125 440.080078125 851.87890625 c 2,58,-1
 433.119140625 839.119140625 l 1,59,-1
 413.400390625 850.71875 l 2,60,61
 408.759765625 853.0390625 408.759765625 853.0390625 404.119140625 851.87890625 c 128,-1,62
 399.48046875 850.71875 399.48046875 850.71875 396.580078125 846.080078125 c 128,-1,63
 393.6796875 841.439453125 393.6796875 841.439453125 395.419921875 836.798828125 c 128,-1,64
 397.16015625 832.16015625 397.16015625 832.16015625 400.638671875 828.6796875 c 2,65,-1
 420.359375 818.240234375 l 1,66,-1
 284.638671875 582.759765625 l 2,67,68
 276.51953125 568.83984375 276.51953125 568.83984375 280.580078125 554.33984375 c 128,-1,69
 284.638671875 539.83984375 284.638671875 539.83984375 297.400390625 531.71875 c 1,70,-1
 246.359375 442.400390625 l 2,71,72
 238.240234375 429.638671875 238.240234375 429.638671875 242.298828125 414.560546875 c 128,-1,73
 246.359375 399.48046875 246.359375 399.48046875 259.119140625 392.51953125 c 1,74,-1
 259.119140625 392.51953125 l 1,39,40
855.359375 302.0390625 m 0,75,76
 850.71875 305.51953125 850.71875 305.51953125 846.080078125 305.51953125 c 128,-1,77
 841.439453125 305.51953125 841.439453125 305.51953125 837.958984375 302.0390625 c 0,78,79
 825.19921875 289.279296875 825.19921875 289.279296875 806.638671875 289.279296875 c 2,80,-1
 610.599609375 289.279296875 l 1,81,-1
 610.599609375 300.87890625 l 2,82,83
 610.599609375 315.958984375 610.599609375 315.958984375 599.580078125 326.98046875 c 128,-1,84
 588.560546875 338 588.560546875 338 573.48046875 338 c 2,85,-1
 545.638671875 338 l 1,86,87
 552.599609375 346.119140625 552.599609375 346.119140625 563.0390625 358.87890625 c 128,-1,88
 573.48046875 371.638671875 573.48046875 371.638671875 581.01953125 380.919921875 c 128,-1,89
 588.560546875 390.19921875 588.560546875 390.19921875 593.19921875 394.83984375 c 0,90,91
 614.080078125 423.83984375 614.080078125 423.83984375 610.01953125 448.19921875 c 128,-1,92
 605.958984375 472.560546875 605.958984375 472.560546875 580.439453125 486.48046875 c 0,93,94
 573.48046875 489.958984375 573.48046875 489.958984375 541 506.779296875 c 128,-1,95
 508.51953125 523.599609375 508.51953125 523.599609375 503.87890625 525.919921875 c 1,96,97
 508.51953125 538.6796875 508.51953125 538.6796875 512 550.279296875 c 1,98,99
 557.240234375 535.19921875 557.240234375 535.19921875 600.740234375 543.3203125 c 128,-1,100
 644.240234375 551.439453125 644.240234375 551.439453125 673.240234375 581.599609375 c 1,101,-1
 803.16015625 356.560546875 l 2,102,103
 806.638671875 350.759765625 806.638671875 350.759765625 813.599609375 350.759765625 c 0,104,105
 817.080078125 350.759765625 817.080078125 350.759765625 819.400390625 351.919921875 c 0,106,107
 824.0390625 354.240234375 824.0390625 354.240234375 825.19921875 359.458984375 c 128,-1,108
 826.359375 364.6796875 826.359375 364.6796875 824.0390625 369.3203125 c 2,109,-1
 689.48046875 602.48046875 l 1,110,111
 706.87890625 629.16015625 706.87890625 629.16015625 712.6796875 665.119140625 c 0,112,113
 715 677.87890625 715 677.87890625 705.71875 686.580078125 c 128,-1,114
 696.439453125 695.279296875 696.439453125 695.279296875 683.6796875 694.119140625 c 128,-1,115
 670.919921875 692.958984375 670.919921875 692.958984375 665.119140625 680.19921875 c 0,116,117
 643.080078125 634.958984375 643.080078125 634.958984375 622.19921875 625.6796875 c 0,118,119
 614.080078125 621.0390625 614.080078125 621.0390625 606.5390625 618.71875 c 128,-1,120
 599 616.400390625 599 616.400390625 589.138671875 616.98046875 c 128,-1,121
 579.279296875 617.560546875 579.279296875 617.560546875 572.900390625 618.138671875 c 128,-1,122
 566.51953125 618.71875 566.51953125 618.71875 554.33984375 623.359375 c 128,-1,123
 542.16015625 628 542.16015625 628 538.099609375 629.740234375 c 128,-1,124
 534.0390625 631.48046875 534.0390625 631.48046875 520.69921875 637.279296875 c 128,-1,125
 507.359375 643.080078125 507.359375 643.080078125 506.19921875 644.240234375 c 0,126,127
 493.439453125 651.19921875 493.439453125 651.19921875 483.580078125 652.939453125 c 128,-1,128
 473.71875 654.6796875 473.71875 654.6796875 465.599609375 648.87890625 c 128,-1,129
 457.48046875 643.080078125 457.48046875 643.080078125 452.259765625 636.69921875 c 128,-1,130
 447.0390625 630.3203125 447.0390625 630.3203125 440.66015625 614.080078125 c 128,-1,131
 434.279296875 597.83984375 434.279296875 597.83984375 430.21875 586.8203125 c 128,-1,132
 426.16015625 575.798828125 426.16015625 575.798828125 419.19921875 552.599609375 c 0,133,134
 409.919921875 520.119140625 409.919921875 520.119140625 403.5390625 502.138671875 c 128,-1,135
 397.16015625 484.16015625 397.16015625 484.16015625 384.400390625 451.6796875 c 128,-1,136
 371.638671875 419.19921875 371.638671875 419.19921875 357.138671875 396.580078125 c 128,-1,137
 342.638671875 373.958984375 342.638671875 373.958984375 321.759765625 346.69921875 c 128,-1,138
 300.87890625 319.439453125 300.87890625 319.439453125 273.0390625 297.98046875 c 128,-1,139
 245.19921875 276.51953125 245.19921875 276.51953125 211.560546875 260.279296875 c 0,140,141
 202.279296875 255.638671875 202.279296875 255.638671875 196.48046875 246.939453125 c 128,-1,142
 190.6796875 238.240234375 190.6796875 238.240234375 190.6796875 227.798828125 c 2,143,-1
 190.6796875 201.119140625 l 2,144,145
 190.6796875 190.6796875 190.6796875 190.6796875 202.279296875 190.6796875 c 2,146,-1
 578.119140625 190.6796875 l 2,147,148
 605.958984375 190.6796875 605.958984375 190.6796875 625.6796875 210.400390625 c 0,149,150
 629.16015625 213.87890625 629.16015625 213.87890625 629.16015625 219.099609375 c 128,-1,151
 629.16015625 224.3203125 629.16015625 224.3203125 625.6796875 227.798828125 c 128,-1,152
 622.19921875 231.279296875 622.19921875 231.279296875 616.98046875 231.279296875 c 128,-1,153
 611.759765625 231.279296875 611.759765625 231.279296875 608.279296875 227.798828125 c 0,154,155
 595.51953125 215.0390625 595.51953125 215.0390625 578.119140625 215.0390625 c 2,156,-1
 339.16015625 215.0390625 l 1,157,-1
 339.16015625 226.638671875 l 2,158,159
 339.16015625 239.400390625 339.16015625 239.400390625 331.619140625 248.6796875 c 128,-1,160
 324.080078125 257.958984375 324.080078125 257.958984375 312.48046875 261.439453125 c 1,161,162
 312.48046875 261.439453125 312.48046875 261.439453125 313.638671875 262.01953125 c 128,-1,163
 314.798828125 262.599609375 314.798828125 262.599609375 314.798828125 262.599609375 c 1,164,-1
 806.638671875 262.599609375 l 2,165,166
 834.48046875 262.599609375 834.48046875 262.599609375 854.19921875 282.3203125 c 0,167,168
 857.6796875 286.958984375 857.6796875 286.958984375 858.259765625 292.759765625 c 128,-1,169
 858.83984375 298.560546875 858.83984375 298.560546875 855.359375 302.0390625 c 0,75,76
EndSplineSet
EndChar

StartChar: uniE00F
Encoding: 57359 57359 17
Width: 1024
VWidth: 1024
GlyphClass: 2
Flags: HW
LayerCount: 2
Fore
SplineSet
297.529296875 530.697265625 m 0,0,1
 297.529296875 564.79296875 297.529296875 564.79296875 325.025390625 585.689453125 c 1,2,3
 350.322265625 575.791015625 350.322265625 575.791015625 366.818359375 565.892578125 c 1,4,5
 351.421875 564.79296875 351.421875 564.79296875 341.5234375 553.244140625 c 128,-1,6
 331.623046875 541.6953125 331.623046875 541.6953125 333.82421875 525.197265625 c 0,7,8
 334.923828125 513.099609375 334.923828125 513.099609375 344.271484375 504.8515625 c 128,-1,9
 353.62109375 496.6015625 353.62109375 496.6015625 365.71875 495.501953125 c 0,10,11
 381.1171875 494.40234375 381.1171875 494.40234375 392.115234375 504.8515625 c 128,-1,12
 403.115234375 515.298828125 403.115234375 515.298828125 403.115234375 530.697265625 c 0,13,14
 403.115234375 537.296875 403.115234375 537.296875 400.9140625 543.89453125 c 1,15,16
 422.912109375 529.59765625 422.912109375 529.59765625 437.208984375 515.298828125 c 1,17,18
 431.7109375 491.1015625 431.7109375 491.1015625 412.462890625 475.705078125 c 128,-1,19
 393.21484375 460.306640625 393.21484375 460.306640625 367.919921875 460.306640625 c 0,20,21
 339.322265625 460.306640625 339.322265625 460.306640625 318.42578125 481.203125 c 128,-1,22
 297.529296875 502.1015625 297.529296875 502.1015625 297.529296875 530.697265625 c 0,0,1
664.87890625 460.306640625 m 0,23,24
 637.3828125 457.0078125 637.3828125 457.0078125 615.384765625 472.955078125 c 128,-1,25
 593.388671875 488.90234375 593.388671875 488.90234375 587.888671875 515.298828125 c 1,26,27
 601.087890625 527.3984375 601.087890625 527.3984375 624.18359375 543.89453125 c 1,28,29
 620.884765625 537.296875 620.884765625 537.296875 620.884765625 530.697265625 c 0,30,31
 620.884765625 518.599609375 620.884765625 518.599609375 629.134765625 508.150390625 c 128,-1,32
 637.3828125 497.701171875 637.3828125 497.701171875 649.48046875 495.501953125 c 0,33,34
 665.978515625 493.302734375 665.978515625 493.302734375 678.626953125 503.75 c 128,-1,35
 691.275390625 514.19921875 691.275390625 514.19921875 691.275390625 530.697265625 c 0,36,37
 691.275390625 544.99609375 691.275390625 544.99609375 681.92578125 554.89453125 c 128,-1,38
 672.578125 564.79296875 672.578125 564.79296875 658.279296875 565.892578125 c 1,39,40
 682.4765625 579.08984375 682.4765625 579.08984375 700.07421875 585.689453125 c 1,41,42
 727.5703125 563.693359375 727.5703125 563.693359375 726.470703125 526.296875 c 0,43,44
 725.37109375 501.001953125 725.37109375 501.001953125 707.7734375 482.302734375 c 128,-1,45
 690.17578125 463.60546875 690.17578125 463.60546875 664.87890625 460.306640625 c 0,23,24
747.3671875 603.287109375 m 1,46,47
 775.96484375 613.185546875 775.96484375 613.185546875 801.259765625 618.685546875 c 1,48,49
 819.958984375 582.390625 819.958984375 582.390625 819.958984375 540.595703125 c 0,50,51
 819.958984375 504.30078125 819.958984375 504.30078125 810.609375 475.154296875 c 128,-1,52
 801.259765625 446.0078125 801.259765625 446.0078125 789.162109375 427.310546875 c 128,-1,53
 777.064453125 408.61328125 777.064453125 408.61328125 750.66796875 388.265625 c 128,-1,54
 724.271484375 367.919921875 724.271484375 367.919921875 706.123046875 358.01953125 c 128,-1,55
 687.9765625 348.12109375 687.9765625 348.12109375 651.681640625 328.32421875 c 1,56,-1
 651.681640625 328.32421875 l 1,57,58
 620.884765625 312.92578125 620.884765625 312.92578125 603.287109375 303.02734375 c 128,-1,59
 585.689453125 293.12890625 585.689453125 293.12890625 560.392578125 276.08203125 c 128,-1,60
 535.095703125 259.033203125 535.095703125 259.033203125 515.298828125 242.53515625 c 0,61,62
 512 239.236328125 512 239.236328125 508.69921875 242.53515625 c 0,63,64
 488.90234375 259.033203125 488.90234375 259.033203125 463.60546875 276.08203125 c 128,-1,65
 438.30859375 293.12890625 438.30859375 293.12890625 421.26171875 302.478515625 c 128,-1,66
 404.21484375 311.826171875 404.21484375 311.826171875 373.41796875 328.32421875 c 0,67,68
 336.0234375 348.12109375 336.0234375 348.12109375 318.42578125 358.01953125 c 128,-1,69
 300.828125 367.919921875 300.828125 367.919921875 274.431640625 388.265625 c 128,-1,70
 248.03515625 408.61328125 248.03515625 408.61328125 235.38671875 427.310546875 c 128,-1,71
 222.73828125 446.0078125 222.73828125 446.0078125 213.390625 475.154296875 c 128,-1,72
 204.041015625 504.30078125 204.041015625 504.30078125 204.041015625 540.595703125 c 0,73,74
 204.041015625 583.490234375 204.041015625 583.490234375 223.837890625 619.78515625 c 1,75,76
 252.435546875 612.0859375 252.435546875 612.0859375 277.73046875 604.38671875 c 1,77,78
 251.333984375 571.392578125 251.333984375 571.392578125 251.333984375 530.697265625 c 0,79,80
 251.333984375 482.302734375 251.333984375 482.302734375 285.98046875 447.658203125 c 128,-1,81
 320.625 413.013671875 320.625 413.013671875 367.919921875 413.013671875 c 0,82,83
 400.9140625 413.013671875 400.9140625 413.013671875 428.41015625 430.060546875 c 128,-1,84
 455.90625 447.107421875 455.90625 447.107421875 471.3046875 474.60546875 c 1,85,86
 476.8046875 466.90625 476.8046875 466.90625 498.80078125 409.712890625 c 0,87,88
 503.201171875 400.9140625 503.201171875 400.9140625 512.548828125 400.9140625 c 128,-1,89
 521.8984375 400.9140625 521.8984375 400.9140625 525.197265625 409.712890625 c 0,90,91
 548.294921875 468.005859375 548.294921875 468.005859375 553.794921875 475.705078125 c 1,92,93
 571.392578125 442.708984375 571.392578125 442.708984375 603.837890625 425.662109375 c 128,-1,94
 636.283203125 408.61328125 636.283203125 408.61328125 674.77734375 415.212890625 c 0,95,96
 712.171875 420.712890625 712.171875 420.712890625 739.669921875 448.7578125 c 128,-1,97
 767.166015625 476.8046875 767.166015625 476.8046875 772.6640625 515.298828125 c 0,98,99
 779.263671875 565.892578125 779.263671875 565.892578125 747.3671875 603.287109375 c 1,46,47
957.439453125 511.44921875 m 128,-1,101
 957.439453125 420.712890625 957.439453125 420.712890625 922.244140625 338.22265625 c 128,-1,102
 887.048828125 255.734375 887.048828125 255.734375 827.65625 196.341796875 c 128,-1,103
 768.265625 136.94921875 768.265625 136.94921875 685.775390625 101.755859375 c 128,-1,104
 603.287109375 66.560546875 603.287109375 66.560546875 512 66.560546875 c 128,-1,105
 420.712890625 66.560546875 420.712890625 66.560546875 338.22265625 101.755859375 c 128,-1,106
 255.734375 136.94921875 255.734375 136.94921875 196.341796875 196.341796875 c 128,-1,107
 136.94921875 255.734375 136.94921875 255.734375 101.755859375 338.22265625 c 128,-1,108
 66.560546875 420.712890625 66.560546875 420.712890625 66.560546875 512 c 128,-1,109
 66.560546875 603.287109375 66.560546875 603.287109375 101.755859375 685.775390625 c 128,-1,110
 136.94921875 768.265625 136.94921875 768.265625 196.892578125 827.65625 c 128,-1,111
 256.833984375 887.048828125 256.833984375 887.048828125 339.322265625 922.244140625 c 128,-1,112
 421.8125 957.439453125 421.8125 957.439453125 512 957.439453125 c 128,-1,113
 602.1875 957.439453125 602.1875 957.439453125 684.67578125 922.244140625 c 128,-1,114
 767.166015625 887.048828125 767.166015625 887.048828125 827.107421875 827.107421875 c 128,-1,115
 887.048828125 767.166015625 887.048828125 767.166015625 922.244140625 684.67578125 c 128,-1,100
 957.439453125 602.1875 957.439453125 602.1875 957.439453125 511.44921875 c 128,-1,101
241.435546875 711.072265625 m 1,116,117
 271.1328125 704.474609375 271.1328125 704.474609375 298.62890625 695.67578125 c 1,118,119
 381.1171875 746.267578125 381.1171875 746.267578125 512 746.267578125 c 256,120,121
 642.8828125 746.267578125 642.8828125 746.267578125 726.470703125 695.67578125 c 1,122,123
 760.56640625 705.57421875 760.56640625 705.57421875 783.662109375 711.072265625 c 1,124,125
 735.26953125 750.66796875 735.26953125 750.66796875 665.978515625 772.115234375 c 128,-1,126
 596.6875 793.5625 596.6875 793.5625 512.548828125 793.5625 c 128,-1,127
 428.41015625 793.5625 428.41015625 793.5625 359.12109375 772.115234375 c 128,-1,128
 289.830078125 750.66796875 289.830078125 750.66796875 241.435546875 711.072265625 c 1,116,117
867.251953125 540.595703125 m 0,129,130
 867.251953125 587.888671875 867.251953125 587.888671875 847.455078125 628.583984375 c 0,131,132
 838.65625 651.681640625 838.65625 651.681640625 822.158203125 671.478515625 c 1,133,134
 795.76171875 667.078125 795.76171875 667.078125 771.564453125 660.48046875 c 0,135,136
 684.67578125 637.3828125 684.67578125 637.3828125 618.685546875 597.23828125 c 128,-1,137
 552.693359375 557.09375 552.693359375 557.09375 516.3984375 504.30078125 c 0,138,139
 515.298828125 502.1015625 515.298828125 502.1015625 512.548828125 502.1015625 c 128,-1,140
 509.80078125 502.1015625 509.80078125 502.1015625 508.69921875 504.30078125 c 0,141,142
 472.404296875 557.09375 472.404296875 557.09375 406.4140625 597.23828125 c 128,-1,143
 340.421875 637.3828125 340.421875 637.3828125 253.53515625 660.48046875 c 0,144,145
 221.638671875 668.177734375 221.638671875 668.177734375 202.94140625 671.478515625 c 1,146,147
 186.443359375 651.681640625 186.443359375 651.681640625 176.544921875 628.583984375 c 0,148,149
 156.748046875 587.888671875 156.748046875 587.888671875 156.748046875 540.595703125 c 0,150,151
 156.748046875 508.69921875 156.748046875 508.69921875 163.345703125 481.203125 c 128,-1,152
 169.9453125 453.70703125 169.9453125 453.70703125 178.1953125 433.359375 c 128,-1,153
 186.443359375 413.013671875 186.443359375 413.013671875 203.490234375 393.21484375 c 128,-1,154
 220.5390625 373.41796875 220.5390625 373.41796875 233.736328125 360.76953125 c 128,-1,155
 246.935546875 348.12109375 246.935546875 348.12109375 270.58203125 332.724609375 c 128,-1,156
 294.228515625 317.326171875 294.228515625 317.326171875 308.52734375 309.626953125 c 128,-1,157
 322.82421875 301.927734375 322.82421875 301.927734375 349.220703125 287.62890625 c 0,158,159
 350.322265625 286.529296875 350.322265625 286.529296875 351.421875 286.529296875 c 0,160,161
 384.416015625 268.931640625 384.416015625 268.931640625 403.115234375 258.484375 c 128,-1,162
 421.8125 248.03515625 421.8125 248.03515625 448.7578125 229.337890625 c 128,-1,163
 475.705078125 210.640625 475.705078125 210.640625 495.501953125 190.84375 c 0,164,165
 502.1015625 183.14453125 502.1015625 183.14453125 512 183.14453125 c 128,-1,166
 521.8984375 183.14453125 521.8984375 183.14453125 528.498046875 190.84375 c 0,167,168
 548.294921875 210.640625 548.294921875 210.640625 575.240234375 229.337890625 c 128,-1,169
 602.1875 248.03515625 602.1875 248.03515625 620.884765625 258.484375 c 128,-1,170
 639.58203125 268.931640625 639.58203125 268.931640625 672.578125 286.529296875 c 1,171,-1
 672.578125 286.529296875 l 1,172,173
 700.07421875 300.828125 700.07421875 300.828125 714.373046875 308.52734375 c 128,-1,174
 728.669921875 316.2265625 728.669921875 316.2265625 752.8671875 332.173828125 c 128,-1,175
 777.064453125 348.12109375 777.064453125 348.12109375 790.26171875 360.220703125 c 128,-1,176
 803.4609375 372.318359375 803.4609375 372.318359375 820.5078125 392.115234375 c 128,-1,177
 837.556640625 411.9140625 837.556640625 411.9140625 846.35546875 432.810546875 c 128,-1,178
 855.154296875 453.70703125 855.154296875 453.70703125 861.203125 481.203125 c 128,-1,179
 867.251953125 508.69921875 867.251953125 508.69921875 867.251953125 540.595703125 c 0,129,130
EndSplineSet
EndChar

StartChar: uniE010
Encoding: 57360 57360 18
Width: 1024
VWidth: 1024
GlyphClass: 2
Flags: HW
LayerCount: 2
Fore
SplineSet
794.662109375 690.17578125 m 1,0,1
 781.462890625 751.767578125 781.462890625 751.767578125 753.41796875 810.05859375 c 128,-1,2
 725.37109375 868.3515625 725.37109375 868.3515625 686.876953125 912.345703125 c 0,3,4
 684.67578125 915.64453125 684.67578125 915.64453125 686.876953125 918.39453125 c 128,-1,5
 689.076171875 921.14453125 689.076171875 921.14453125 692.375 920.044921875 c 0,6,7
 811.16015625 867.251953125 811.16015625 867.251953125 884.298828125 757.265625 c 128,-1,8
 957.439453125 647.28125 957.439453125 647.28125 957.439453125 512 c 2,9,-1
 957.439453125 503.201171875 l 2,10,11
 957.439453125 498.80078125 957.439453125 498.80078125 954.140625 498.251953125 c 128,-1,12
 950.83984375 497.701171875 950.83984375 497.701171875 948.640625 501.001953125 c 0,13,14
 935.443359375 536.197265625 935.443359375 536.197265625 917.294921875 566.9921875 c 128,-1,15
 899.1484375 597.787109375 899.1484375 597.787109375 882.650390625 617.03515625 c 128,-1,16
 866.15234375 636.283203125 866.15234375 636.283203125 847.455078125 652.78125 c 128,-1,17
 828.7578125 669.279296875 828.7578125 669.279296875 817.208984375 676.9765625 c 128,-1,18
 805.66015625 684.67578125 805.66015625 684.67578125 794.662109375 691.275390625 c 1,19,-1
 794.662109375 690.17578125 l 1,0,1
924.443359375 419.611328125 m 0,20,21
 936.54296875 366.818359375 936.54296875 366.818359375 914.544921875 320.625 c 1,22,-1
 914.544921875 319.525390625 l 1,23,24
 898.046875 285.4296875 898.046875 285.4296875 867.80078125 262.333984375 c 128,-1,25
 837.556640625 239.236328125 837.556640625 239.236328125 800.16015625 233.736328125 c 0,26,27
 656.080078125 210.640625 656.080078125 210.640625 536.197265625 261.234375 c 1,28,-1
 536.197265625 522.998046875 l 1,29,-1
 773.763671875 648.380859375 l 1,30,31
 785.86328125 641.78125 785.86328125 641.78125 797.412109375 633.533203125 c 128,-1,32
 808.958984375 625.28515625 808.958984375 625.28515625 828.7578125 605.486328125 c 128,-1,33
 848.5546875 585.689453125 848.5546875 585.689453125 865.052734375 562.04296875 c 128,-1,34
 881.55078125 538.396484375 881.55078125 538.396484375 898.046875 500.451171875 c 128,-1,35
 914.544921875 462.505859375 914.544921875 462.505859375 924.443359375 419.611328125 c 0,20,21
512 221.638671875 m 1,36,37
 647.28125 162.24609375 647.28125 162.24609375 803.4609375 186.443359375 c 0,38,39
 806.759765625 186.443359375 806.759765625 186.443359375 808.41015625 183.693359375 c 128,-1,40
 810.05859375 180.943359375 810.05859375 180.943359375 807.859375 177.64453125 c 0,41,42
 747.3671875 124.8515625 747.3671875 124.8515625 671.478515625 95.705078125 c 128,-1,43
 595.587890625 66.560546875 595.587890625 66.560546875 512 66.560546875 c 128,-1,44
 428.41015625 66.560546875 428.41015625 66.560546875 353.0703125 95.705078125 c 128,-1,45
 277.73046875 124.8515625 277.73046875 124.8515625 217.240234375 177.64453125 c 0,46,47
 215.0390625 179.84375 215.0390625 179.84375 216.689453125 183.14453125 c 128,-1,48
 218.33984375 186.443359375 218.33984375 186.443359375 221.638671875 186.443359375 c 0,49,50
 378.91796875 162.24609375 378.91796875 162.24609375 512 221.638671875 c 1,36,37
512 564.79296875 m 1,51,-1
 277.73046875 686.876953125 l 1,52,53
 288.73046875 737.46875 288.73046875 737.46875 311.826171875 785.86328125 c 128,-1,54
 334.923828125 834.255859375 334.923828125 834.255859375 365.169921875 872.751953125 c 128,-1,55
 395.416015625 911.24609375 395.416015625 911.24609375 433.91015625 934.341796875 c 128,-1,56
 472.404296875 957.439453125 472.404296875 957.439453125 512.548828125 957.439453125 c 128,-1,57
 552.693359375 957.439453125 552.693359375 957.439453125 591.189453125 934.341796875 c 128,-1,58
 629.68359375 911.24609375 629.68359375 911.24609375 659.9296875 872.751953125 c 128,-1,59
 690.17578125 834.255859375 690.17578125 834.255859375 712.72265625 785.86328125 c 128,-1,60
 735.26953125 737.46875 735.26953125 737.46875 747.3671875 686.876953125 c 1,61,-1
 512 564.79296875 l 1,51,-1
224.9375 233.736328125 m 1,62,-1
 224.9375 232.63671875 l 1,63,64
 187.54296875 238.13671875 187.54296875 238.13671875 156.748046875 261.234375 c 128,-1,65
 125.951171875 284.330078125 125.951171875 284.330078125 110.552734375 319.525390625 c 1,66,-1
 109.453125 320.625 l 1,67,68
 88.556640625 369.01953125 88.556640625 369.01953125 99.5546875 419.611328125 c 0,69,70
 110.552734375 463.60546875 110.552734375 463.60546875 127.05078125 501.55078125 c 128,-1,71
 143.548828125 539.49609375 143.548828125 539.49609375 160.046875 563.142578125 c 128,-1,72
 176.544921875 586.7890625 176.544921875 586.7890625 195.79296875 606.037109375 c 128,-1,73
 215.0390625 625.28515625 215.0390625 625.28515625 227.138671875 633.533203125 c 128,-1,74
 239.236328125 641.78125 239.236328125 641.78125 251.333984375 648.380859375 c 1,75,-1
 488.90234375 522.998046875 l 1,76,-1
 488.90234375 261.234375 l 1,77,78
 369.01953125 210.640625 369.01953125 210.640625 224.9375 233.736328125 c 1,62,-1
67.66015625 503.201171875 m 2,79,-1
 66.560546875 504.30078125 l 1,80,-1
 66.560546875 513.099609375 l 2,81,82
 66.560546875 647.28125 66.560546875 647.28125 139.150390625 757.265625 c 128,-1,83
 211.740234375 867.251953125 211.740234375 867.251953125 330.5234375 920.044921875 c 0,84,85
 333.82421875 921.14453125 333.82421875 921.14453125 336.0234375 917.845703125 c 128,-1,86
 338.22265625 914.544921875 338.22265625 914.544921875 336.0234375 912.345703125 c 0,87,88
 298.62890625 868.3515625 298.62890625 868.3515625 271.1328125 810.05859375 c 128,-1,89
 243.63671875 751.767578125 243.63671875 751.767578125 230.4375 691.275390625 c 1,90,91
 219.439453125 684.67578125 219.439453125 684.67578125 207.33984375 676.9765625 c 128,-1,92
 195.2421875 669.279296875 195.2421875 669.279296875 177.095703125 652.78125 c 128,-1,93
 158.947265625 636.283203125 158.947265625 636.283203125 142.44921875 617.03515625 c 128,-1,94
 125.951171875 597.787109375 125.951171875 597.787109375 107.8046875 566.9921875 c 128,-1,95
 89.65625 536.197265625 89.65625 536.197265625 76.458984375 502.1015625 c 0,96,97
 74.2578125 498.80078125 74.2578125 498.80078125 70.958984375 499.3515625 c 128,-1,98
 67.66015625 499.900390625 67.66015625 499.900390625 67.66015625 503.201171875 c 2,79,-1
EndSplineSet
EndChar

StartChar: uniE011
Encoding: 57361 57361 19
Width: 1024
VWidth: 1024
GlyphClass: 2
Flags: HW
LayerCount: 2
Fore
SplineSet
511.44921875 957.439453125 m 128,-1,1
 602.1875 957.439453125 602.1875 957.439453125 684.67578125 922.244140625 c 128,-1,2
 767.166015625 887.048828125 767.166015625 887.048828125 827.107421875 827.65625 c 128,-1,3
 887.048828125 768.265625 887.048828125 768.265625 922.244140625 685.775390625 c 128,-1,4
 957.439453125 603.287109375 957.439453125 603.287109375 957.439453125 512 c 128,-1,5
 957.439453125 420.712890625 957.439453125 420.712890625 922.244140625 338.22265625 c 128,-1,6
 887.048828125 255.734375 887.048828125 255.734375 827.65625 196.341796875 c 128,-1,7
 768.265625 136.94921875 768.265625 136.94921875 685.775390625 101.755859375 c 128,-1,8
 603.287109375 66.560546875 603.287109375 66.560546875 512 66.560546875 c 128,-1,9
 420.712890625 66.560546875 420.712890625 66.560546875 338.22265625 101.755859375 c 128,-1,10
 255.734375 136.94921875 255.734375 136.94921875 196.341796875 196.892578125 c 128,-1,11
 136.94921875 256.833984375 136.94921875 256.833984375 101.755859375 339.322265625 c 128,-1,12
 66.560546875 421.8125 66.560546875 421.8125 66.560546875 512 c 128,-1,13
 66.560546875 602.1875 66.560546875 602.1875 101.755859375 684.67578125 c 128,-1,14
 136.94921875 767.166015625 136.94921875 767.166015625 196.341796875 827.107421875 c 128,-1,15
 255.734375 887.048828125 255.734375 887.048828125 338.22265625 922.244140625 c 128,-1,0
 420.712890625 957.439453125 420.712890625 957.439453125 511.44921875 957.439453125 c 128,-1,1
183.14453125 406.4140625 m 1,16,-1
 254.634765625 406.4140625 l 1,17,-1
 386.6171875 542.794921875 l 2,18,19
 407.513671875 564.79296875 407.513671875 564.79296875 438.30859375 564.79296875 c 2,20,-1
 651.681640625 564.79296875 l 1,21,-1
 701.173828125 617.5859375 l 1,22,-1
 438.30859375 617.5859375 l 2,23,24
 387.716796875 617.5859375 387.716796875 617.5859375 352.521484375 580.19140625 c 2,25,-1
 183.14453125 406.4140625 l 1,16,-1
458.107421875 459.20703125 m 2,26,-1
 552.693359375 459.20703125 l 1,27,-1
 601.087890625 512 l 1,28,-1
 458.107421875 512 l 2,29,30
 428.41015625 512 428.41015625 512 406.4140625 490.001953125 c 2,31,-1
 326.125 406.4140625 l 1,32,-1
 396.515625 406.4140625 l 1,33,-1
 441.609375 451.5078125 l 2,34,35
 449.30859375 459.20703125 449.30859375 459.20703125 458.107421875 459.20703125 c 2,26,-1
641.78125 406.4140625 m 1,36,-1
 840.85546875 617.5859375 l 1,37,-1
 771.564453125 617.5859375 l 1,38,-1
 572.4921875 406.4140625 l 1,39,-1
 641.78125 406.4140625 l 1,36,-1
EndSplineSet
EndChar

StartChar: uniE012
Encoding: 57362 57362 20
Width: 1024
VWidth: 1024
GlyphClass: 2
Flags: HW
LayerCount: 2
Fore
SplineSet
927.72265625 418.517578125 m 2,0,1
 948.619140625 381.125 948.619140625 381.125 954.66796875 340.431640625 c 128,-1,2
 960.716796875 299.740234375 960.716796875 299.740234375 953.568359375 262.345703125 c 128,-1,3
 946.419921875 224.953125 946.419921875 224.953125 926.623046875 190.859375 c 128,-1,4
 906.826171875 156.765625 906.826171875 156.765625 878.232421875 132.021484375 c 128,-1,5
 849.63671875 107.275390625 849.63671875 107.275390625 811.14453125 92.427734375 c 128,-1,6
 772.65234375 77.580078125 772.65234375 77.580078125 729.759765625 77.580078125 c 2,7,-1
 294.240234375 77.580078125 l 2,8,9
 251.34765625 77.580078125 251.34765625 77.580078125 212.85546875 92.427734375 c 128,-1,10
 174.36328125 107.275390625 174.36328125 107.275390625 145.767578125 132.021484375 c 128,-1,11
 117.173828125 156.765625 117.173828125 156.765625 97.376953125 190.859375 c 128,-1,12
 77.580078125 224.953125 77.580078125 224.953125 70.431640625 262.345703125 c 128,-1,13
 63.283203125 299.740234375 63.283203125 299.740234375 69.33203125 340.431640625 c 128,-1,14
 75.380859375 381.125 75.380859375 381.125 96.27734375 418.517578125 c 2,15,-1
 334.93359375 841.939453125 l 2,16,17
 362.427734375 892.529296875 362.427734375 892.529296875 410.26953125 919.474609375 c 128,-1,18
 458.109375 946.419921875 458.109375 946.419921875 512 946.419921875 c 128,-1,19
 565.890625 946.419921875 565.890625 946.419921875 613.181640625 919.474609375 c 128,-1,20
 660.47265625 892.529296875 660.47265625 892.529296875 689.06640625 841.939453125 c 2,21,-1
 927.72265625 418.517578125 l 2,0,1
717.662109375 237.05078125 m 128,-1,23
 748.455078125 237.05078125 748.455078125 237.05078125 770.451171875 259.046875 c 128,-1,24
 792.447265625 281.04296875 792.447265625 281.04296875 792.447265625 312.38671875 c 128,-1,25
 792.447265625 343.73046875 792.447265625 343.73046875 770.451171875 365.7265625 c 128,-1,26
 748.455078125 387.72265625 748.455078125 387.72265625 717.662109375 387.72265625 c 128,-1,27
 686.8671875 387.72265625 686.8671875 387.72265625 665.421875 365.7265625 c 128,-1,28
 643.974609375 343.73046875 643.974609375 343.73046875 643.974609375 312.38671875 c 128,-1,29
 643.974609375 281.04296875 643.974609375 281.04296875 665.421875 259.046875 c 128,-1,22
 686.8671875 237.05078125 686.8671875 237.05078125 717.662109375 237.05078125 c 128,-1,23
231.552734375 312.9375 m 0,30,31
 231.552734375 281.04296875 231.552734375 281.04296875 253.548828125 259.046875 c 128,-1,32
 275.544921875 237.05078125 275.544921875 237.05078125 306.337890625 237.05078125 c 128,-1,33
 337.1328125 237.05078125 337.1328125 237.05078125 359.12890625 259.046875 c 128,-1,34
 381.125 281.04296875 381.125 281.04296875 381.125 312.38671875 c 128,-1,35
 381.125 343.73046875 381.125 343.73046875 359.12890625 365.7265625 c 128,-1,36
 337.1328125 387.72265625 337.1328125 387.72265625 306.337890625 387.72265625 c 128,-1,37
 275.544921875 387.72265625 275.544921875 387.72265625 253.548828125 365.7265625 c 128,-1,38
 231.552734375 343.73046875 231.552734375 343.73046875 231.552734375 312.9375 c 0,30,31
512 781.44921875 m 0,39,40
 482.3046875 781.44921875 482.3046875 781.44921875 460.310546875 759.453125 c 128,-1,41
 438.314453125 737.45703125 438.314453125 737.45703125 438.314453125 706.6640625 c 128,-1,42
 438.314453125 675.869140625 438.314453125 675.869140625 459.759765625 653.873046875 c 128,-1,43
 481.205078125 631.876953125 481.205078125 631.876953125 512.55078125 631.876953125 c 128,-1,44
 543.89453125 631.876953125 543.89453125 631.876953125 565.33984375 653.873046875 c 128,-1,45
 586.78515625 675.869140625 586.78515625 675.869140625 586.78515625 706.6640625 c 128,-1,46
 586.78515625 737.45703125 586.78515625 737.45703125 565.33984375 759.453125 c 128,-1,47
 543.89453125 781.44921875 543.89453125 781.44921875 512 781.44921875 c 0,39,40
536.1953125 508.701171875 m 2,48,49
 536.1953125 477.90625 536.1953125 477.90625 558.19140625 456.4609375 c 128,-1,50
 580.1875 435.013671875 580.1875 435.013671875 610.982421875 435.013671875 c 128,-1,51
 641.775390625 435.013671875 641.775390625 435.013671875 663.22265625 457.009765625 c 128,-1,52
 684.66796875 479.005859375 684.66796875 479.005859375 684.66796875 509.80078125 c 128,-1,53
 684.66796875 540.59375 684.66796875 540.59375 663.22265625 562.58984375 c 128,-1,54
 641.775390625 584.5859375 641.775390625 584.5859375 610.982421875 584.5859375 c 128,-1,55
 580.1875 584.5859375 580.1875 584.5859375 558.19140625 563.140625 c 128,-1,56
 536.1953125 541.6953125 536.1953125 541.6953125 536.1953125 510.900390625 c 2,57,-1
 536.1953125 508.701171875 l 2,48,49
587.88671875 312.9375 m 0,58,59
 587.88671875 343.73046875 587.88671875 343.73046875 565.890625 365.7265625 c 128,-1,60
 543.89453125 387.72265625 543.89453125 387.72265625 513.099609375 387.72265625 c 128,-1,61
 482.3046875 387.72265625 482.3046875 387.72265625 460.310546875 365.7265625 c 128,-1,62
 438.314453125 343.73046875 438.314453125 343.73046875 438.314453125 312.38671875 c 128,-1,63
 438.314453125 281.04296875 438.314453125 281.04296875 460.310546875 259.046875 c 128,-1,64
 482.3046875 237.05078125 482.3046875 237.05078125 513.099609375 237.05078125 c 128,-1,65
 543.89453125 237.05078125 543.89453125 237.05078125 565.890625 259.046875 c 128,-1,66
 587.88671875 281.04296875 587.88671875 281.04296875 587.88671875 312.9375 c 0,58,59
490.00390625 510.900390625 m 2,67,68
 488.904296875 541.6953125 488.904296875 541.6953125 467.458984375 563.140625 c 128,-1,69
 446.01171875 584.5859375 446.01171875 584.5859375 415.21875 584.5859375 c 128,-1,70
 384.423828125 584.5859375 384.423828125 584.5859375 362.427734375 562.58984375 c 128,-1,71
 340.431640625 540.59375 340.431640625 540.59375 340.431640625 509.25 c 128,-1,72
 340.431640625 477.90625 340.431640625 477.90625 362.427734375 456.4609375 c 128,-1,73
 384.423828125 435.013671875 384.423828125 435.013671875 415.21875 435.013671875 c 128,-1,74
 446.01171875 435.013671875 446.01171875 435.013671875 467.458984375 456.4609375 c 128,-1,75
 488.904296875 477.90625 488.904296875 477.90625 490.00390625 508.701171875 c 2,76,-1
 490.00390625 510.900390625 l 2,67,68
EndSplineSet
EndChar

StartChar: uniE013
Encoding: 57363 57363 21
Width: 1024
VWidth: 1024
GlyphClass: 2
Flags: HW
LayerCount: 2
Fore
SplineSet
396.092773438 606.15234375 m 0,0,1
 352.2265625 562.286132812 352.2265625 562.286132812 352.2265625 500.765625 c 128,-1,2
 352.2265625 439.24609375 352.2265625 439.24609375 395.557617188 395.9140625 c 128,-1,3
 438.889648438 352.583007812 438.889648438 352.583007812 500.409179688 352.583007812 c 128,-1,4
 561.9296875 352.583007812 561.9296875 352.583007812 605.795898438 396.44921875 c 0,5,6
 632.543945312 423.197265625 632.543945312 423.197265625 643.2421875 459.57421875 c 128,-1,7
 653.94140625 495.951171875 653.94140625 495.951171875 645.3828125 532.328125 c 1,8,-1
 742.744140625 629.690429688 l 1,9,10
 769.4921875 578.334960938 769.4921875 578.334960938 773.771484375 520.024414062 c 128,-1,11
 778.051757812 461.713867188 778.051757812 461.713867188 757.188476562 406.079101562 c 128,-1,12
 736.325195312 350.443359375 736.325195312 350.443359375 693.528320312 307.646484375 c 0,13,14
 641.102539062 255.220703125 641.102539062 255.220703125 571.0234375 236.498046875 c 128,-1,15
 500.944335938 217.774414062 500.944335938 217.774414062 430.330078125 236.498046875 c 128,-1,16
 359.715820312 255.220703125 359.715820312 255.220703125 307.290039062 307.646484375 c 256,17,18
 254.864257812 360.072265625 254.864257812 360.072265625 236.141601562 430.686523438 c 128,-1,19
 217.41796875 501.30078125 217.41796875 501.30078125 236.141601562 571.915039062 c 128,-1,20
 254.864257812 642.529296875 254.864257812 642.529296875 307.290039062 694.955078125 c 0,21,22
 350.086914062 737.750976562 350.086914062 737.750976562 405.721679688 758.080078125 c 128,-1,23
 461.357421875 778.408203125 461.357421875 778.408203125 519.66796875 774.127929688 c 128,-1,24
 577.977539062 769.848632812 577.977539062 769.848632812 629.333984375 743.100585938 c 1,25,-1
 533.041992188 645.739257812 l 1,26,27
 496.665039062 654.297851562 496.665039062 654.297851562 459.752929688 644.133789062 c 128,-1,28
 422.840820312 633.969726562 422.840820312 633.969726562 396.092773438 606.15234375 c 0,0,1
775.912109375 662.857421875 m 1,29,-1
 858.294921875 746.310546875 l 1,30,31
 916.0703125 661.788085938 916.0703125 661.788085938 929.979492188 562.286132812 c 128,-1,32
 943.887695312 462.784179688 943.887695312 462.784179688 912.325195312 365.421875 c 128,-1,33
 880.762695312 268.060546875 880.762695312 268.060546875 806.939453125 194.236328125 c 0,34,35
 744.883789062 132.181640625 744.883789062 132.181640625 663.571289062 99.548828125 c 128,-1,36
 582.2578125 66.9169921875 582.2578125 66.9169921875 500.409179688 66.9169921875 c 128,-1,37
 418.561523438 66.9169921875 418.561523438 66.9169921875 337.248046875 99.548828125 c 128,-1,38
 255.934570312 132.181640625 255.934570312 132.181640625 193.879882812 194.236328125 c 128,-1,39
 131.82421875 256.291015625 131.82421875 256.291015625 99.1923828125 337.604492188 c 128,-1,40
 66.560546875 418.91796875 66.560546875 418.91796875 66.560546875 501.30078125 c 128,-1,41
 66.560546875 583.684570312 66.560546875 583.684570312 99.1923828125 664.462890625 c 128,-1,42
 131.82421875 745.241210938 131.82421875 745.241210938 193.879882812 808.365234375 c 0,43,44
 267.703125 882.189453125 267.703125 882.189453125 365.065429688 913.751953125 c 128,-1,45
 462.427734375 945.314453125 462.427734375 945.314453125 561.9296875 930.870117188 c 128,-1,46
 661.430664062 916.426757812 661.430664062 916.426757812 745.954101562 858.651367188 c 1,47,-1
 663.571289062 776.268554688 l 1,48,49
 602.5859375 811.575195312 602.5859375 811.575195312 532.506835938 819.064453125 c 128,-1,50
 462.427734375 826.553710938 462.427734375 826.553710938 394.48828125 802.481445312 c 128,-1,51
 326.548828125 778.408203125 326.548828125 778.408203125 275.193359375 727.052734375 c 0,52,53
 213.137695312 666.067382812 213.137695312 666.067382812 191.740234375 583.684570312 c 128,-1,54
 170.341796875 501.30078125 170.341796875 501.30078125 191.740234375 418.91796875 c 128,-1,55
 213.137695312 336.534179688 213.137695312 336.534179688 275.193359375 274.479492188 c 0,56,57
 336.177734375 213.494140625 336.177734375 213.494140625 418.561523438 191.561523438 c 128,-1,58
 500.944335938 169.627929688 500.944335938 169.627929688 583.327148438 191.561523438 c 128,-1,59
 665.7109375 213.494140625 665.7109375 213.494140625 726.6953125 274.479492188 c 0,60,61
 778.051757812 326.905273438 778.051757812 326.905273438 802.125 394.309570312 c 128,-1,62
 826.197265625 461.713867188 826.197265625 461.713867188 819.243164062 531.79296875 c 128,-1,63
 812.2890625 601.873046875 812.2890625 601.873046875 775.912109375 662.857421875 c 1,29,-1
949.237304688 873.629882812 m 2,64,65
 954.586914062 872.560546875 954.586914062 872.560546875 956.7265625 866.67578125 c 128,-1,66
 958.866210938 860.791015625 958.866210938 860.791015625 954.586914062 856.51171875 c 2,67,-1
 887.182617188 789.107421875 l 2,68,69
 870.063476562 771.98828125 870.063476562 771.98828125 846.525390625 777.337890625 c 2,70,-1
 830.477539062 780.547851562 l 1,71,-1
 594.026367188 544.09765625 l 1,72,73
 604.725585938 522.69921875 604.725585938 522.69921875 604.725585938 500.23046875 c 0,74,75
 604.725585938 457.434570312 604.725585938 457.434570312 574.233398438 427.4765625 c 128,-1,76
 543.741210938 397.51953125 543.741210938 397.51953125 501.479492188 397.51953125 c 128,-1,77
 459.217773438 397.51953125 459.217773438 397.51953125 429.259765625 427.4765625 c 128,-1,78
 399.302734375 457.434570312 399.302734375 457.434570312 399.302734375 500.23046875 c 128,-1,79
 399.302734375 543.02734375 399.302734375 543.02734375 429.259765625 572.985351562 c 128,-1,80
 459.217773438 602.942382812 459.217773438 602.942382812 502.014648438 602.942382812 c 0,81,82
 524.482421875 602.942382812 524.482421875 602.942382812 545.880859375 593.313476562 c 1,83,-1
 781.26171875 829.763671875 l 1,84,-1
 778.051757812 845.8125 l 2,85,86
 772.702148438 869.350585938 772.702148438 869.350585938 789.8203125 886.46875 c 2,87,-1
 858.294921875 954.943359375 l 2,88,89
 861.504882812 958.153320312 861.504882812 958.153320312 866.854492188 956.548828125 c 128,-1,90
 872.204101562 954.943359375 872.204101562 954.943359375 873.2734375 949.59375 c 2,91,-1
 882.903320312 901.448242188 l 2,92,93
 886.112304688 886.46875 886.112304688 886.46875 901.091796875 883.259765625 c 2,94,-1
 949.237304688 873.629882812 l 2,64,65
EndSplineSet
EndChar

StartChar: uniE014
Encoding: 57364 57364 22
Width: 1024
VWidth: 1024
GlyphClass: 2
Flags: HW
LayerCount: 2
Fore
SplineSet
950.299804688 592.190429688 m 0,0,1
 964.580078125 513.098632812 964.580078125 513.098632812 950.299804688 434.006835938 c 0,2,3
 949.201171875 424.120117188 949.201171875 424.120117188 939.314453125 418.627929688 c 0,4,5
 930.52734375 413.135742188 930.52734375 413.135742188 927.231445312 401.051757812 c 0,6,7
 923.935546875 390.067382812 923.935546875 390.067382812 929.428710938 381.279296875 c 0,8,9
 934.920898438 371.392578125 934.920898438 371.392578125 931.625 361.505859375 c 0,10,11
 905.26171875 287.907226562 905.26171875 287.907226562 852.534179688 225.29296875 c 0,12,13
 845.942382812 217.603515625 845.942382812 217.603515625 834.958007812 217.603515625 c 0,14,15
 825.071289062 216.504882812 825.071289062 216.504882812 816.283203125 208.815429688 c 0,16,17
 807.495117188 198.928710938 807.495117188 198.928710938 807.495117188 190.140625 c 0,18,19
 807.495117188 179.15625 807.495117188 179.15625 799.805664062 172.564453125 c 0,20,21
 739.388671875 120.935546875 739.388671875 120.935546875 663.592773438 93.4736328125 c 0,22,23
 653.706054688 90.177734375 653.706054688 90.177734375 643.819335938 95.669921875 c 0,24,25
 636.129882812 100.064453125 636.129882812 100.064453125 624.046875 96.7685546875 c 256,26,27
 611.962890625 93.4736328125 611.962890625 93.4736328125 607.569335938 84.685546875 c 0,28,29
 602.077148438 75.8974609375 602.077148438 75.8974609375 592.190429688 73.7001953125 c 0,30,31
 513.098632812 59.419921875 513.098632812 59.419921875 434.006835938 73.7001953125 c 0,32,33
 424.120117188 74.798828125 424.120117188 74.798828125 418.627929688 84.685546875 c 0,34,35
 413.135742188 93.4736328125 413.135742188 93.4736328125 401.051757812 96.7685546875 c 0,36,37
 390.067382812 100.064453125 390.067382812 100.064453125 381.279296875 94.5712890625 c 0,38,39
 371.392578125 89.0791015625 371.392578125 89.0791015625 361.505859375 92.375 c 0,40,41
 287.907226562 118.73828125 287.907226562 118.73828125 225.29296875 171.466796875 c 0,42,43
 217.603515625 178.057617188 217.603515625 178.057617188 217.603515625 189.041992188 c 0,44,45
 216.504882812 198.928710938 216.504882812 198.928710938 208.815429688 207.716796875 c 0,46,47
 198.928710938 216.504882812 198.928710938 216.504882812 190.140625 216.504882812 c 0,48,49
 179.15625 216.504882812 179.15625 216.504882812 172.564453125 224.194335938 c 0,50,51
 120.935546875 284.611328125 120.935546875 284.611328125 93.4736328125 360.407226562 c 0,52,53
 90.177734375 370.293945312 90.177734375 370.293945312 95.669921875 380.180664062 c 0,54,55
 100.064453125 387.870117188 100.064453125 387.870117188 96.7685546875 399.953125 c 256,56,57
 93.4736328125 412.037109375 93.4736328125 412.037109375 84.685546875 416.430664062 c 0,58,59
 75.8974609375 421.923828125 75.8974609375 421.923828125 73.7001953125 431.809570312 c 0,60,61
 59.419921875 510.901367188 59.419921875 510.901367188 73.7001953125 589.993164062 c 0,62,63
 74.798828125 599.879882812 74.798828125 599.879882812 84.685546875 605.372070312 c 0,64,65
 93.4736328125 610.864257812 93.4736328125 610.864257812 96.7685546875 622.948242188 c 0,66,67
 100.064453125 633.93359375 100.064453125 633.93359375 94.5712890625 642.720703125 c 0,68,69
 89.0791015625 652.607421875 89.0791015625 652.607421875 92.375 662.494140625 c 0,70,71
 118.73828125 736.092773438 118.73828125 736.092773438 171.466796875 798.70703125 c 0,72,73
 178.057617188 806.396484375 178.057617188 806.396484375 189.041992188 806.396484375 c 0,74,75
 198.928710938 807.495117188 198.928710938 807.495117188 207.716796875 815.184570312 c 0,76,77
 216.504882812 825.071289062 216.504882812 825.071289062 216.504882812 833.859375 c 0,78,79
 216.504882812 844.844726562 216.504882812 844.844726562 224.194335938 851.435546875 c 0,80,81
 284.611328125 903.064453125 284.611328125 903.064453125 360.407226562 930.52734375 c 0,82,83
 370.293945312 933.822265625 370.293945312 933.822265625 380.180664062 928.330078125 c 0,84,85
 387.870117188 923.935546875 387.870117188 923.935546875 399.953125 927.231445312 c 256,86,87
 412.037109375 930.52734375 412.037109375 930.52734375 416.430664062 939.314453125 c 0,88,89
 421.923828125 948.102539062 421.923828125 948.102539062 431.809570312 950.299804688 c 0,90,91
 510.901367188 964.580078125 510.901367188 964.580078125 589.993164062 950.299804688 c 0,92,93
 599.879882812 949.201171875 599.879882812 949.201171875 605.372070312 939.314453125 c 0,94,95
 610.864257812 930.52734375 610.864257812 930.52734375 622.948242188 927.231445312 c 0,96,97
 633.93359375 923.935546875 633.93359375 923.935546875 642.720703125 929.428710938 c 0,98,99
 652.607421875 934.920898438 652.607421875 934.920898438 662.494140625 931.625 c 0,100,101
 736.092773438 905.26171875 736.092773438 905.26171875 798.70703125 852.534179688 c 0,102,103
 806.396484375 845.942382812 806.396484375 845.942382812 806.396484375 834.958007812 c 0,104,105
 807.495117188 825.071289062 807.495117188 825.071289062 815.184570312 816.283203125 c 0,106,107
 825.071289062 807.495117188 825.071289062 807.495117188 833.859375 807.495117188 c 0,108,109
 844.844726562 807.495117188 844.844726562 807.495117188 851.435546875 799.805664062 c 0,110,111
 903.064453125 739.388671875 903.064453125 739.388671875 930.52734375 663.592773438 c 0,112,113
 933.822265625 653.706054688 933.822265625 653.706054688 928.330078125 643.819335938 c 0,114,115
 923.935546875 635.03125 923.935546875 635.03125 927.231445312 624.046875 c 0,116,117
 930.52734375 611.962890625 930.52734375 611.962890625 939.314453125 607.569335938 c 0,118,119
 948.102539062 602.077148438 948.102539062 602.077148438 950.299804688 592.190429688 c 0,0,1
798.70703125 717.967773438 m 128,-1,121
 789.919921875 713.024414062 789.919921875 713.024414062 789.370117188 700.94140625 c 128,-1,122
 788.821289062 688.857421875 788.821289062 688.857421875 795.9609375 676.225585938 c 128,-1,123
 803.1015625 663.592773438 803.1015625 663.592773438 814.0859375 658.099609375 c 128,-1,124
 825.071289062 652.607421875 825.071289062 652.607421875 833.859375 657.55078125 c 128,-1,125
 842.647460938 662.494140625 842.647460938 662.494140625 843.196289062 674.577148438 c 128,-1,126
 843.74609375 686.661132812 843.74609375 686.661132812 836.60546875 699.293945312 c 128,-1,127
 829.465820312 711.926757812 829.465820312 711.926757812 818.48046875 717.418945312 c 128,-1,120
 807.495117188 722.911132812 807.495117188 722.911132812 798.70703125 717.967773438 c 128,-1,121
657.55078125 833.859375 m 128,-1,129
 652.607421875 825.071289062 652.607421875 825.071289062 658.099609375 814.0859375 c 128,-1,130
 663.592773438 803.1015625 663.592773438 803.1015625 676.225585938 795.9609375 c 128,-1,131
 688.857421875 788.821289062 688.857421875 788.821289062 700.94140625 789.370117188 c 128,-1,132
 713.024414062 789.919921875 713.024414062 789.919921875 717.967773438 798.70703125 c 128,-1,133
 722.911132812 807.495117188 722.911132812 807.495117188 717.418945312 818.48046875 c 128,-1,134
 711.926757812 829.465820312 711.926757812 829.465820312 699.842773438 837.155273438 c 0,135,136
 686.661132812 843.74609375 686.661132812 843.74609375 674.577148438 843.196289062 c 128,-1,128
 662.494140625 842.647460938 662.494140625 842.647460938 657.55078125 833.859375 c 128,-1,129
512 886.586914062 m 128,-1,138
 497.719726562 886.586914062 497.719726562 886.586914062 487.284179688 879.99609375 c 128,-1,139
 476.848632812 873.405273438 476.848632812 873.405273438 476.848632812 863.518554688 c 128,-1,140
 476.848632812 853.631835938 476.848632812 853.631835938 487.284179688 847.041015625 c 128,-1,141
 497.719726562 840.450195312 497.719726562 840.450195312 512 840.450195312 c 128,-1,142
 526.280273438 840.450195312 526.280273438 840.450195312 536.715820312 847.041015625 c 128,-1,143
 547.15234375 853.631835938 547.15234375 853.631835938 547.15234375 863.518554688 c 128,-1,144
 547.15234375 873.405273438 547.15234375 873.405273438 536.715820312 879.99609375 c 128,-1,137
 526.280273438 886.586914062 526.280273438 886.586914062 512 886.586914062 c 128,-1,138
324.70703125 836.60546875 m 128,-1,146
 312.07421875 829.465820312 312.07421875 829.465820312 306.581054688 818.48046875 c 128,-1,147
 301.088867188 807.495117188 301.088867188 807.495117188 306.032226562 798.70703125 c 128,-1,148
 310.975585938 789.919921875 310.975585938 789.919921875 323.05859375 789.370117188 c 128,-1,149
 335.142578125 788.821289062 335.142578125 788.821289062 347.775390625 795.9609375 c 128,-1,150
 360.407226562 803.1015625 360.407226562 803.1015625 365.900390625 814.0859375 c 128,-1,151
 371.392578125 825.071289062 371.392578125 825.071289062 366.44921875 833.859375 c 128,-1,152
 361.505859375 842.647460938 361.505859375 842.647460938 349.422851562 843.196289062 c 128,-1,145
 337.338867188 843.74609375 337.338867188 843.74609375 324.70703125 836.60546875 c 128,-1,146
271.4296875 650.959960938 m 128,-1,154
 262.641601562 636.129882812 262.641601562 636.129882812 264.2890625 620.750976562 c 128,-1,155
 265.9375 605.372070312 265.9375 605.372070312 277.471679688 598.232421875 c 128,-1,156
 289.005859375 591.091796875 289.005859375 591.091796875 303.286132812 597.133789062 c 128,-1,157
 317.56640625 603.174804688 317.56640625 603.174804688 326.354492188 618.553710938 c 128,-1,158
 335.142578125 633.93359375 335.142578125 633.93359375 332.9453125 649.3125 c 128,-1,159
 330.748046875 664.69140625 330.748046875 664.69140625 319.763671875 671.282226562 c 128,-1,160
 308.778320312 677.873046875 308.778320312 677.873046875 294.498046875 671.831054688 c 128,-1,153
 280.217773438 665.7890625 280.217773438 665.7890625 271.4296875 650.959960938 c 128,-1,154
160.481445312 476.848632812 m 128,-1,162
 170.368164062 476.848632812 170.368164062 476.848632812 176.958984375 487.284179688 c 128,-1,163
 183.549804688 497.719726562 183.549804688 497.719726562 183.549804688 512 c 128,-1,164
 183.549804688 526.280273438 183.549804688 526.280273438 176.958984375 536.715820312 c 128,-1,165
 170.368164062 547.15234375 170.368164062 547.15234375 160.481445312 547.15234375 c 128,-1,166
 150.594726562 547.15234375 150.594726562 547.15234375 144.00390625 536.715820312 c 128,-1,167
 137.413085938 526.280273438 137.413085938 526.280273438 137.413085938 512 c 128,-1,168
 137.413085938 497.719726562 137.413085938 497.719726562 144.00390625 487.284179688 c 128,-1,161
 150.594726562 476.848632812 150.594726562 476.848632812 160.481445312 476.848632812 c 128,-1,162
225.29296875 306.032226562 m 128,-1,170
 234.081054688 310.975585938 234.081054688 310.975585938 234.629882812 323.05859375 c 128,-1,171
 235.178710938 335.142578125 235.178710938 335.142578125 228.0390625 347.775390625 c 128,-1,172
 220.8984375 360.407226562 220.8984375 360.407226562 209.9140625 365.900390625 c 128,-1,173
 198.928710938 371.392578125 198.928710938 371.392578125 190.140625 366.44921875 c 128,-1,174
 181.352539062 361.505859375 181.352539062 361.505859375 180.803710938 349.422851562 c 128,-1,175
 180.254882812 337.338867188 180.254882812 337.338867188 187.39453125 324.70703125 c 128,-1,176
 194.53515625 312.07421875 194.53515625 312.07421875 205.51953125 306.581054688 c 128,-1,169
 216.504882812 301.088867188 216.504882812 301.088867188 225.29296875 306.032226562 c 128,-1,170
228.0390625 676.225585938 m 128,-1,178
 235.178710938 688.857421875 235.178710938 688.857421875 234.629882812 700.94140625 c 128,-1,179
 234.081054688 713.024414062 234.081054688 713.024414062 225.29296875 717.967773438 c 128,-1,180
 216.504882812 722.911132812 216.504882812 722.911132812 205.51953125 717.418945312 c 128,-1,181
 194.53515625 711.926757812 194.53515625 711.926757812 187.39453125 699.293945312 c 128,-1,182
 180.254882812 686.661132812 180.254882812 686.661132812 180.803710938 674.577148438 c 128,-1,183
 181.352539062 662.494140625 181.352539062 662.494140625 190.140625 657.55078125 c 128,-1,184
 198.928710938 652.607421875 198.928710938 652.607421875 209.9140625 658.099609375 c 128,-1,177
 220.8984375 663.592773438 220.8984375 663.592773438 228.0390625 676.225585938 c 128,-1,178
284.611328125 407.642578125 m 2,185,-1
 285.709960938 407.642578125 l 2,186,187
 297.79296875 410.938476562 297.79296875 410.938476562 303.834960938 425.21875 c 128,-1,188
 309.876953125 439.499023438 309.876953125 439.499023438 305.483398438 456.526367188 c 128,-1,189
 301.088867188 473.552734375 301.088867188 473.552734375 288.456054688 482.889648438 c 128,-1,190
 275.823242188 492.227539062 275.823242188 492.227539062 263.740234375 488.931640625 c 0,191,192
 250.55859375 485.635742188 250.55859375 485.635742188 245.065429688 471.35546875 c 128,-1,193
 239.573242188 457.075195312 239.573242188 457.075195312 243.966796875 440.048828125 c 128,-1,194
 248.361328125 423.021484375 248.361328125 423.021484375 260.444335938 413.684570312 c 128,-1,195
 272.528320312 404.34765625 272.528320312 404.34765625 284.611328125 407.642578125 c 2,185,-1
366.44921875 190.140625 m 128,-1,197
 371.392578125 198.928710938 371.392578125 198.928710938 365.900390625 209.9140625 c 128,-1,198
 360.407226562 220.8984375 360.407226562 220.8984375 347.775390625 228.0390625 c 128,-1,199
 335.142578125 235.178710938 335.142578125 235.178710938 323.05859375 234.629882812 c 128,-1,200
 310.975585938 234.081054688 310.975585938 234.081054688 306.032226562 225.29296875 c 128,-1,201
 301.088867188 216.504882812 301.088867188 216.504882812 306.581054688 205.51953125 c 128,-1,202
 312.07421875 194.53515625 312.07421875 194.53515625 324.70703125 187.39453125 c 128,-1,203
 337.338867188 180.254882812 337.338867188 180.254882812 349.422851562 180.803710938 c 128,-1,196
 361.505859375 181.352539062 361.505859375 181.352539062 366.44921875 190.140625 c 128,-1,197
425.21875 277.471679688 m 128,-1,205
 431.809570312 289.005859375 431.809570312 289.005859375 425.768554688 303.286132812 c 128,-1,206
 419.7265625 317.56640625 419.7265625 317.56640625 404.896484375 326.354492188 c 128,-1,207
 390.067382812 335.142578125 390.067382812 335.142578125 374.688476562 332.9453125 c 128,-1,208
 359.309570312 330.748046875 359.309570312 330.748046875 352.168945312 319.763671875 c 128,-1,209
 345.028320312 308.778320312 345.028320312 308.778320312 351.0703125 294.498046875 c 128,-1,210
 357.112304688 280.217773438 357.112304688 280.217773438 372.491210938 271.4296875 c 128,-1,211
 387.870117188 262.641601562 387.870117188 262.641601562 403.249023438 264.2890625 c 128,-1,204
 418.627929688 265.9375 418.627929688 265.9375 425.21875 277.471679688 c 128,-1,205
407.642578125 738.290039062 m 0,212,213
 410.938476562 726.20703125 410.938476562 726.20703125 425.21875 720.165039062 c 128,-1,214
 439.499023438 714.123046875 439.499023438 714.123046875 455.9765625 718.517578125 c 0,215,216
 473.552734375 722.911132812 473.552734375 722.911132812 482.889648438 734.995117188 c 128,-1,217
 492.227539062 747.078125 492.227539062 747.078125 488.931640625 760.259765625 c 0,218,219
 485.635742188 772.34375 485.635742188 772.34375 471.35546875 778.385742188 c 128,-1,220
 457.075195312 784.426757812 457.075195312 784.426757812 439.499023438 780.033203125 c 0,221,222
 423.021484375 775.638671875 423.021484375 775.638671875 413.684570312 763.555664062 c 128,-1,223
 404.34765625 751.471679688 404.34765625 751.471679688 407.642578125 738.290039062 c 0,212,213
512 136.314453125 m 128,-1,225
 526.280273438 136.314453125 526.280273438 136.314453125 536.715820312 143.455078125 c 128,-1,226
 547.15234375 150.594726562 547.15234375 150.594726562 547.15234375 159.932617188 c 128,-1,227
 547.15234375 169.26953125 547.15234375 169.26953125 536.715820312 176.41015625 c 128,-1,228
 526.280273438 183.549804688 526.280273438 183.549804688 512 183.549804688 c 128,-1,229
 497.719726562 183.549804688 497.719726562 183.549804688 487.284179688 176.41015625 c 128,-1,230
 476.848632812 169.26953125 476.848632812 169.26953125 476.848632812 159.932617188 c 128,-1,231
 476.848632812 150.594726562 476.848632812 150.594726562 487.284179688 143.455078125 c 128,-1,224
 497.719726562 136.314453125 497.719726562 136.314453125 512 136.314453125 c 128,-1,225
583.951171875 243.41796875 m 128,-1,233
 600.978515625 248.361328125 600.978515625 248.361328125 610.315429688 260.444335938 c 128,-1,234
 619.65234375 272.528320312 619.65234375 272.528320312 616.357421875 284.611328125 c 0,235,236
 613.061523438 297.79296875 613.061523438 297.79296875 598.78125 303.286132812 c 128,-1,237
 584.500976562 308.778320312 584.500976562 308.778320312 566.924804688 304.384765625 c 0,238,239
 550.447265625 299.990234375 550.447265625 299.990234375 541.110351562 287.907226562 c 128,-1,240
 531.7734375 275.823242188 531.7734375 275.823242188 535.068359375 262.641601562 c 0,241,242
 538.364257812 250.55859375 538.364257812 250.55859375 552.64453125 244.516601562 c 128,-1,232
 566.924804688 238.474609375 566.924804688 238.474609375 583.951171875 243.41796875 c 128,-1,233
618.553710938 697.645507812 m 128,-1,244
 633.93359375 688.857421875 633.93359375 688.857421875 649.3125 690.505859375 c 128,-1,245
 664.69140625 692.153320312 664.69140625 692.153320312 671.282226562 703.6875 c 128,-1,246
 677.873046875 715.221679688 677.873046875 715.221679688 671.831054688 728.953125 c 128,-1,247
 665.7890625 742.684570312 665.7890625 742.684570312 650.959960938 751.471679688 c 128,-1,248
 636.129882812 760.259765625 636.129882812 760.259765625 620.750976562 758.612304688 c 128,-1,249
 605.372070312 756.96484375 605.372070312 756.96484375 598.232421875 745.979492188 c 128,-1,250
 591.091796875 734.995117188 591.091796875 734.995117188 597.133789062 720.713867188 c 128,-1,243
 603.174804688 706.43359375 603.174804688 706.43359375 618.553710938 697.645507812 c 128,-1,244
699.293945312 187.39453125 m 128,-1,252
 711.926757812 194.53515625 711.926757812 194.53515625 717.418945312 205.51953125 c 128,-1,253
 722.911132812 216.504882812 722.911132812 216.504882812 717.967773438 225.29296875 c 128,-1,254
 713.024414062 234.081054688 713.024414062 234.081054688 700.392578125 234.629882812 c 128,-1,255
 687.759765625 235.178710938 687.759765625 235.178710938 675.126953125 228.0390625 c 128,-1,256
 662.494140625 220.8984375 662.494140625 220.8984375 657.001953125 209.9140625 c 128,-1,257
 651.508789062 198.928710938 651.508789062 198.928710938 656.452148438 190.140625 c 128,-1,258
 661.395507812 181.352539062 661.395507812 181.352539062 674.028320312 180.803710938 c 128,-1,251
 686.661132812 180.254882812 686.661132812 180.254882812 699.293945312 187.39453125 c 128,-1,252
751.471679688 373.040039062 m 128,-1,260
 760.259765625 387.870117188 760.259765625 387.870117188 758.612304688 403.249023438 c 128,-1,261
 756.96484375 418.627929688 756.96484375 418.627929688 745.979492188 425.768554688 c 128,-1,262
 734.995117188 432.908203125 734.995117188 432.908203125 720.713867188 426.866210938 c 128,-1,263
 706.43359375 420.825195312 706.43359375 420.825195312 697.645507812 405.446289062 c 128,-1,264
 688.857421875 390.067382812 688.857421875 390.067382812 690.505859375 374.688476562 c 128,-1,265
 692.153320312 359.309570312 692.153320312 359.309570312 703.6875 352.717773438 c 128,-1,266
 715.221679688 346.126953125 715.221679688 346.126953125 728.953125 352.168945312 c 128,-1,259
 742.684570312 358.2109375 742.684570312 358.2109375 751.471679688 373.040039062 c 128,-1,260
760.259765625 535.068359375 m 1,267,-1
 760.259765625 535.068359375 l 1,268,269
 773.442382812 538.364257812 773.442382812 538.364257812 778.934570312 552.64453125 c 128,-1,270
 784.426757812 566.924804688 784.426757812 566.924804688 780.033203125 583.951171875 c 128,-1,271
 775.638671875 600.978515625 775.638671875 600.978515625 763.555664062 610.315429688 c 128,-1,272
 751.471679688 619.65234375 751.471679688 619.65234375 738.290039062 616.357421875 c 0,273,274
 726.20703125 613.061523438 726.20703125 613.061523438 720.165039062 598.78125 c 128,-1,275
 714.123046875 584.500976562 714.123046875 584.500976562 718.517578125 566.924804688 c 0,276,277
 722.911132812 550.447265625 722.911132812 550.447265625 734.995117188 541.110351562 c 128,-1,278
 747.078125 531.7734375 747.078125 531.7734375 760.259765625 535.068359375 c 1,267,-1
836.056640625 324.70703125 m 128,-1,280
 843.74609375 337.338867188 843.74609375 337.338867188 842.647460938 349.422851562 c 128,-1,281
 841.548828125 361.505859375 841.548828125 361.505859375 833.310546875 366.44921875 c 128,-1,282
 825.071289062 371.392578125 825.071289062 371.392578125 813.537109375 365.900390625 c 128,-1,283
 802.002929688 360.407226562 802.002929688 360.407226562 794.862304688 347.775390625 c 128,-1,284
 787.72265625 335.142578125 787.72265625 335.142578125 788.821289062 323.05859375 c 128,-1,285
 789.919921875 310.975585938 789.919921875 310.975585938 798.158203125 306.032226562 c 128,-1,286
 806.396484375 301.088867188 806.396484375 301.088867188 817.381835938 306.581054688 c 128,-1,279
 828.3671875 312.07421875 828.3671875 312.07421875 836.056640625 324.70703125 c 128,-1,280
862.419921875 476.848632812 m 128,-1,288
 872.306640625 476.848632812 872.306640625 476.848632812 878.897460938 487.284179688 c 128,-1,289
 885.48828125 497.719726562 885.48828125 497.719726562 885.48828125 512 c 128,-1,290
 885.48828125 526.280273438 885.48828125 526.280273438 878.897460938 536.715820312 c 128,-1,291
 872.306640625 547.15234375 872.306640625 547.15234375 862.419921875 547.15234375 c 128,-1,292
 852.534179688 547.15234375 852.534179688 547.15234375 845.942382812 536.715820312 c 128,-1,293
 839.3515625 526.280273438 839.3515625 526.280273438 839.3515625 512 c 128,-1,294
 839.3515625 497.719726562 839.3515625 497.719726562 845.942382812 487.284179688 c 128,-1,287
 852.534179688 476.848632812 852.534179688 476.848632812 862.419921875 476.848632812 c 128,-1,288
EndSplineSet
EndChar

StartChar: uniE015
Encoding: 57365 57365 23
Width: 1024
VWidth: 1024
GlyphClass: 2
Flags: HW
LayerCount: 2
Fore
SplineSet
956.396484375 123.153320312 m 1,0,1
 956.396484375 113.764648438 956.396484375 113.764648438 950.13671875 106.983398438 c 128,-1,2
 943.87890625 100.203125 943.87890625 100.203125 934.490234375 100.203125 c 2,3,-1
 89.509765625 100.203125 l 2,4,5
 80.12109375 100.203125 80.12109375 100.203125 73.33984375 106.983398438 c 128,-1,6
 66.560546875 113.764648438 66.560546875 113.764648438 66.560546875 123.153320312 c 2,7,-1
 66.560546875 145.059570312 l 2,8,9
 66.560546875 154.448242188 66.560546875 154.448242188 73.33984375 160.708007812 c 128,-1,10
 80.12109375 166.966796875 80.12109375 166.966796875 89.509765625 166.966796875 c 0,11,12
 118.71875 166.966796875 118.71875 166.966796875 144.798828125 179.485351562 c 2,13,-1
 226.16796875 218.083007812 l 2,14,15
 260.591796875 233.73046875 260.591796875 233.73046875 300.232421875 233.73046875 c 128,-1,16
 339.875 233.73046875 339.875 233.73046875 374.298828125 218.083007812 c 2,17,-1
 456.7109375 179.485351562 l 2,18,19
 482.791015625 166.966796875 482.791015625 166.966796875 512 166.966796875 c 128,-1,20
 541.208984375 166.966796875 541.208984375 166.966796875 567.2890625 179.485351562 c 2,21,-1
 649.701171875 218.083007812 l 2,22,23
 684.125 233.73046875 684.125 233.73046875 723.244140625 233.73046875 c 128,-1,24
 762.365234375 233.73046875 762.365234375 233.73046875 797.83203125 218.083007812 c 2,25,-1
 879.201171875 179.485351562 l 2,26,27
 904.23828125 166.966796875 904.23828125 166.966796875 934.490234375 166.966796875 c 0,28,29
 943.87890625 166.966796875 943.87890625 166.966796875 950.66015625 160.708007812 c 128,-1,30
 957.439453125 154.448242188 957.439453125 154.448242188 957.439453125 145.059570312 c 2,31,-1
 957.439453125 122.110351562 l 1,32,-1
 956.396484375 123.153320312 l 1,0,1
649.701171875 654.134765625 m 1,33,-1
 649.701171875 655.177734375 l 1,34,-1
 702.90234375 728.200195312 l 1,35,-1
 879.201171875 686.47265625 l 2,36,37
 893.8046875 683.34375 893.8046875 683.34375 901.107421875 668.739257812 c 0,38,39
 915.712890625 632.227539062 915.712890625 632.227539062 923.015625 598.845703125 c 0,40,41
 927.1875 583.197265625 927.1875 583.197265625 916.755859375 571.72265625 c 2,42,-1
 797.83203125 432.979492188 l 1,43,-1
 712.291015625 461.145507812 l 1,44,-1
 649.701171875 654.134765625 l 1,33,-1
840.603515625 740.71875 m 1,45,-1
 841.646484375 740.71875 l 1,46,-1
 708.119140625 772.014648438 l 1,47,-1
 636.138671875 889.89453125 l 2,48,49
 633.009765625 895.110351562 633.009765625 895.110351562 637.181640625 899.8046875 c 128,-1,50
 641.35546875 904.499023438 641.35546875 904.499023438 646.5703125 902.412109375 c 0,51,52
 709.162109375 881.548828125 709.162109375 881.548828125 760.798828125 843.47265625 c 128,-1,53
 812.4375 805.396484375 812.4375 805.396484375 849.9921875 754.280273438 c 0,54,55
 854.1640625 749.064453125 854.1640625 749.064453125 850.513671875 743.848632812 c 128,-1,56
 846.861328125 738.631835938 846.861328125 738.631835938 840.603515625 740.71875 c 1,45,-1
794.703125 263.983398438 m 1,57,58
 760.27734375 278.587890625 760.27734375 278.587890625 721.6796875 278.587890625 c 128,-1,59
 683.08203125 278.587890625 683.08203125 278.587890625 649.701171875 262.939453125 c 2,60,-1
 567.2890625 224.341796875 l 2,61,62
 549.5546875 215.99609375 549.5546875 215.99609375 533.90625 213.91015625 c 1,63,-1
 533.90625 299.451171875 l 1,64,-1
 697.6875 418.374023438 l 1,65,-1
 784.271484375 390.208007812 l 1,66,-1
 794.703125 263.983398438 l 1,57,58
410.810546875 680.213867188 m 1,67,-1
 410.810546875 680.213867188 l 1,68,-1
 356.564453125 753.237304688 l 1,69,-1
 450.451171875 907.627929688 l 2,70,71
 458.796875 921.189453125 458.796875 921.189453125 474.4453125 922.232421875 c 0,72,73
 507.826171875 925.362304688 507.826171875 925.362304688 549.5546875 922.232421875 c 0,74,75
 565.203125 921.189453125 565.203125 921.189453125 572.50390625 907.627929688 c 2,76,-1
 666.390625 754.280273438 l 1,77,-1
 613.189453125 680.213867188 l 1,78,-1
 410.810546875 680.213867188 l 1,67,-1
667.43359375 451.756835938 m 1,79,-1
 512 338.048828125 l 1,80,-1
 355.521484375 451.756835938 l 1,81,-1
 414.984375 635.357421875 l 1,82,-1
 607.97265625 635.357421875 l 1,83,-1
 667.43359375 451.756835938 l 1,79,-1
325.26953125 418.374023438 m 1,84,-1
 489.05078125 299.451171875 l 1,85,-1
 489.05078125 213.91015625 l 1,86,87
 472.359375 217.040039062 472.359375 217.040039062 456.7109375 224.341796875 c 2,88,-1
 374.298828125 262.939453125 l 2,89,90
 339.875 278.587890625 339.875 278.587890625 301.798828125 278.587890625 c 128,-1,91
 263.72265625 278.587890625 263.72265625 278.587890625 229.296875 263.983398438 c 1,92,-1
 239.728515625 390.208007812 l 1,93,-1
 325.26953125 418.374023438 l 1,84,-1
387.861328125 889.89453125 m 2,94,-1
 387.861328125 888.850585938 l 1,95,-1
 315.880859375 772.014648438 l 1,96,-1
 181.310546875 739.67578125 l 2,97,98
 175.05078125 738.631835938 175.05078125 738.631835938 171.921875 743.848632812 c 128,-1,99
 168.79296875 749.064453125 168.79296875 749.064453125 171.921875 754.280273438 c 0,100,101
 210.51953125 806.439453125 210.51953125 806.439453125 263.201171875 844.515625 c 128,-1,102
 315.880859375 882.591796875 315.880859375 882.591796875 377.4296875 902.412109375 c 0,103,104
 382.64453125 904.499023438 382.64453125 904.499023438 386.818359375 899.8046875 c 128,-1,105
 390.990234375 895.110351562 390.990234375 895.110351562 387.861328125 889.89453125 c 2,94,-1
310.666015625 461.145507812 m 1,106,-1
 225.123046875 432.979492188 l 1,107,-1
 107.244140625 571.72265625 l 2,108,109
 96.8125 583.197265625 96.8125 583.197265625 99.94140625 598.845703125 c 0,110,111
 108.287109375 633.270507812 108.287109375 633.270507812 122.892578125 666.65234375 c 0,112,113
 129.150390625 681.256835938 129.150390625 681.256835938 143.755859375 684.38671875 c 2,114,-1
 321.09765625 727.157226562 l 1,115,-1
 374.298828125 654.134765625 l 1,116,-1
 310.666015625 461.145507812 l 1,106,-1
88.466796875 498.700195312 m 2,117,-1
 88.466796875 499.743164062 l 2,118,119
 88.466796875 506.001953125 88.466796875 506.001953125 94.205078125 508.087890625 c 128,-1,120
 99.94140625 510.174804688 99.94140625 510.174804688 104.115234375 504.958984375 c 2,121,-1
 194.87109375 400.640625 l 1,122,-1
 183.396484375 259.810546875 l 2,123,124
 183.396484375 253.55078125 183.396484375 253.55078125 177.13671875 251.986328125 c 128,-1,125
 170.87890625 250.421875 170.87890625 250.421875 167.748046875 255.637695312 c 0,126,127
 88.466796875 365.171875 88.466796875 365.171875 88.466796875 498.700195312 c 2,117,-1
855.20703125 255.637695312 m 0,128,129
 851.03515625 250.421875 851.03515625 250.421875 845.296875 252.5078125 c 128,-1,130
 839.560546875 254.594726562 839.560546875 254.594726562 839.560546875 260.853515625 c 2,131,-1
 828.083984375 400.640625 l 1,132,-1
 918.841796875 506.001953125 l 2,133,134
 921.970703125 511.217773438 921.970703125 511.217773438 927.708984375 508.610351562 c 128,-1,135
 933.447265625 506.001953125 933.447265625 506.001953125 933.447265625 499.743164062 c 0,136,137
 933.447265625 366.21484375 933.447265625 366.21484375 855.20703125 255.637695312 c 0,128,129
EndSplineSet
EndChar

StartChar: uniE016
Encoding: 57366 57366 24
Width: 1024
VWidth: 1024
GlyphClass: 2
Flags: HW
LayerCount: 2
Fore
SplineSet
957.439453125 394.31640625 m 2,0,-1
 957.439453125 371.21875 l 1,1,-1
 66.560546875 371.21875 l 1,2,-1
 66.560546875 394.31640625 l 2,3,4
 66.560546875 451.5078125 66.560546875 451.5078125 94.60546875 500.452148438 c 128,-1,5
 122.65234375 549.395507812 122.65234375 549.395507812 171.595703125 577.44140625 c 128,-1,6
 220.5390625 605.487304688 220.5390625 605.487304688 277.73046875 605.487304688 c 2,7,-1
 746.267578125 605.487304688 l 2,8,9
 804.560546875 605.487304688 804.560546875 605.487304688 852.953125 577.44140625 c 128,-1,10
 901.34765625 549.395507812 901.34765625 549.395507812 929.392578125 500.452148438 c 128,-1,11
 957.439453125 451.5078125 957.439453125 451.5078125 957.439453125 394.31640625 c 2,0,-1
66.560546875 300.828125 m 2,12,-1
 66.560546875 323.92578125 l 1,13,-1
 957.439453125 323.92578125 l 1,14,-1
 957.439453125 300.828125 l 2,15,16
 957.439453125 243.63671875 957.439453125 243.63671875 929.392578125 194.692382812 c 128,-1,17
 901.34765625 145.749023438 901.34765625 145.749023438 852.953125 117.703125 c 128,-1,18
 804.560546875 89.6572265625 804.560546875 89.6572265625 746.267578125 89.6572265625 c 2,19,-1
 277.73046875 89.6572265625 l 2,20,21
 220.5390625 89.6572265625 220.5390625 89.6572265625 171.595703125 117.703125 c 128,-1,22
 122.65234375 145.749023438 122.65234375 145.749023438 94.60546875 194.692382812 c 128,-1,23
 66.560546875 243.63671875 66.560546875 243.63671875 66.560546875 300.828125 c 2,12,-1
805.66015625 698.974609375 m 0,24,25
 815.55859375 692.375976562 815.55859375 692.375976562 816.658203125 680.827148438 c 128,-1,26
 817.7578125 669.279296875 817.7578125 669.279296875 810.05859375 661.030273438 c 128,-1,27
 802.361328125 652.78125 802.361328125 652.78125 790.26171875 652.78125 c 2,28,-1
 233.736328125 652.78125 l 2,29,30
 221.638671875 652.78125 221.638671875 652.78125 213.939453125 661.030273438 c 128,-1,31
 206.240234375 669.279296875 206.240234375 669.279296875 207.33984375 680.827148438 c 128,-1,32
 208.44140625 692.375976562 208.44140625 692.375976562 218.33984375 698.974609375 c 0,33,34
 261.234375 729.770507812 261.234375 729.770507812 340.421875 749.568359375 c 128,-1,35
 419.611328125 769.365234375 419.611328125 769.365234375 512 769.365234375 c 0,36,37
 543.89453125 769.365234375 543.89453125 769.365234375 581.291015625 766.065429688 c 0,38,39
 597.787109375 764.965820312 597.787109375 764.965820312 608.236328125 777.064453125 c 128,-1,40
 618.685546875 789.163085938 618.685546875 789.163085938 614.28515625 804.560546875 c 0,41,42
 610.986328125 821.05859375 610.986328125 821.05859375 598.337890625 830.95703125 c 128,-1,43
 585.689453125 840.85546875 585.689453125 840.85546875 569.19140625 840.85546875 c 2,44,-1
 323.92578125 840.85546875 l 2,45,46
 304.126953125 840.85546875 304.126953125 840.85546875 289.830078125 855.704101562 c 128,-1,47
 275.53125 870.551757812 275.53125 870.551757812 277.73046875 890.349609375 c 0,48,49
 278.830078125 909.046875 278.830078125 909.046875 292.580078125 921.6953125 c 128,-1,50
 306.328125 934.342773438 306.328125 934.342773438 326.125 934.342773438 c 2,51,-1
 541.6953125 934.342773438 l 2,52,53
 571.392578125 934.342773438 571.392578125 934.342773438 595.0390625 918.395507812 c 128,-1,54
 618.685546875 902.447265625 618.685546875 902.447265625 629.68359375 874.951171875 c 2,55,-1
 653.880859375 813.359375 l 2,56,57
 664.87890625 785.86328125 664.87890625 785.86328125 686.326171875 764.965820312 c 128,-1,58
 707.7734375 744.069335938 707.7734375 744.069335938 736.369140625 733.0703125 c 0,59,60
 779.263671875 717.672851562 779.263671875 717.672851562 805.66015625 698.974609375 c 0,24,25
EndSplineSet
EndChar

StartChar: uniE017
Encoding: 57367 57367 25
Width: 1024
VWidth: 1024
GlyphClass: 2
Flags: HW
LayerCount: 2
Fore
SplineSet
512 957.439453125 m 128,-1,1
 603.287109375 957.439453125 603.287109375 957.439453125 685.775390625 922.244140625 c 128,-1,2
 768.265625 887.048828125 768.265625 887.048828125 827.65625 827.65625 c 128,-1,3
 887.048828125 768.265625 887.048828125 768.265625 922.244140625 685.775390625 c 128,-1,4
 957.439453125 603.287109375 957.439453125 603.287109375 957.439453125 512 c 128,-1,5
 957.439453125 420.712890625 957.439453125 420.712890625 922.244140625 338.22265625 c 128,-1,6
 887.048828125 255.734375 887.048828125 255.734375 827.65625 196.341796875 c 128,-1,7
 768.265625 136.94921875 768.265625 136.94921875 685.775390625 101.755859375 c 128,-1,8
 603.287109375 66.560546875 603.287109375 66.560546875 512 66.560546875 c 128,-1,9
 420.712890625 66.560546875 420.712890625 66.560546875 338.22265625 101.755859375 c 128,-1,10
 255.734375 136.94921875 255.734375 136.94921875 196.341796875 196.892578125 c 128,-1,11
 136.94921875 256.833984375 136.94921875 256.833984375 101.755859375 339.322265625 c 128,-1,12
 66.560546875 421.8125 66.560546875 421.8125 66.560546875 512 c 128,-1,13
 66.560546875 602.1875 66.560546875 602.1875 101.755859375 684.67578125 c 128,-1,14
 136.94921875 767.166015625 136.94921875 767.166015625 196.341796875 827.107421875 c 128,-1,15
 255.734375 887.048828125 255.734375 887.048828125 338.22265625 922.244140625 c 128,-1,0
 420.712890625 957.439453125 420.712890625 957.439453125 512 957.439453125 c 128,-1,1
371.21875 470.205078125 m 2,16,-1
 371.21875 552.693359375 l 2,17,18
 371.21875 570.291015625 371.21875 570.291015625 359.12109375 582.390625 c 128,-1,19
 347.021484375 594.48828125 347.021484375 594.48828125 330.5234375 594.48828125 c 2,20,-1
 248.03515625 594.48828125 l 2,21,22
 231.537109375 594.48828125 231.537109375 594.48828125 219.439453125 582.390625 c 128,-1,23
 207.33984375 570.291015625 207.33984375 570.291015625 207.33984375 552.693359375 c 2,24,-1
 207.33984375 470.205078125 l 2,25,26
 207.33984375 453.70703125 207.33984375 453.70703125 219.439453125 441.609375 c 128,-1,27
 231.537109375 429.51171875 231.537109375 429.51171875 248.03515625 429.51171875 c 2,28,-1
 330.5234375 429.51171875 l 2,29,30
 347.021484375 429.51171875 347.021484375 429.51171875 359.12109375 441.609375 c 128,-1,31
 371.21875 453.70703125 371.21875 453.70703125 371.21875 470.205078125 c 2,16,-1
512 418.51171875 m 128,-1,33
 550.494140625 418.51171875 550.494140625 418.51171875 577.990234375 446.0078125 c 128,-1,34
 605.486328125 473.50390625 605.486328125 473.50390625 605.486328125 512 c 128,-1,35
 605.486328125 550.494140625 605.486328125 550.494140625 577.990234375 577.990234375 c 128,-1,36
 550.494140625 605.486328125 550.494140625 605.486328125 512 605.486328125 c 128,-1,37
 473.50390625 605.486328125 473.50390625 605.486328125 446.0078125 577.990234375 c 128,-1,38
 418.51171875 550.494140625 418.51171875 550.494140625 418.51171875 512 c 128,-1,39
 418.51171875 473.50390625 418.51171875 473.50390625 446.0078125 446.0078125 c 128,-1,32
 473.50390625 418.51171875 473.50390625 418.51171875 512 418.51171875 c 128,-1,33
828.7578125 429.51171875 m 2,40,41
 840.85546875 429.51171875 840.85546875 429.51171875 846.904296875 438.859375 c 128,-1,42
 852.953125 448.208984375 852.953125 448.208984375 846.35546875 457.0078125 c 2,43,-1
 763.865234375 585.689453125 l 2,44,45
 758.3671875 594.48828125 758.3671875 594.48828125 746.818359375 594.48828125 c 128,-1,46
 735.26953125 594.48828125 735.26953125 594.48828125 729.76953125 585.689453125 c 2,47,-1
 646.181640625 457.0078125 l 2,48,49
 640.681640625 448.208984375 640.681640625 448.208984375 646.732421875 438.859375 c 128,-1,50
 652.78125 429.51171875 652.78125 429.51171875 663.779296875 429.51171875 c 2,51,-1
 828.7578125 429.51171875 l 2,40,41
EndSplineSet
EndChar

